<?xml version="1.0" encoding="UTF-8"?>
<svg width="20px" height="20px" viewBox="0 0 20 20" version="1.1" xmlns="http://www.w3.org/2000/svg" xmlns:xlink="http://www.w3.org/1999/xlink">
    <!-- Generator: Sketch 63.1 (92452) - https://sketch.com -->
    <title>ico_slack</title>
    <desc>Created with Sketch.</desc>
    <defs>
        <path d="M19.1878562,7.25641717 C21.2075586,13.9650276 19.4678797,17.1645497 12.7296984,19.1931533 C6.01963573,21.2132915 2.82011369,19.4736126 0.791510046,12.7354313 C-1.22862819,6.02536863 0.511050767,2.82584659 7.24923203,0.797242947 C13.9784272,-1.22865532 17.1655236,0.494520961 19.1878562,7.25641717 Z M7.72969841,2.39315329 C1.86932667,4.15748272 0.633728575,6.42992691 2.38742039,12.2549649 C4.15174982,18.1153367 6.42419401,19.3509348 12.249232,17.5972429 C18.1096038,15.8329135 19.3452019,13.5604693 17.59151,7.73543131 C15.832452,1.85382791 13.5750901,0.633333779 7.72969841,2.39315329 Z M10.1932266,4.19890915 C10.6284025,4.04910823 11.1026199,4.28045033 11.2524209,4.71562621 L11.2524209,4.71562621 L11.795,6.292 L13.37656,5.74890915 C13.7782608,5.61063137 14.2132278,5.79711452 14.3955913,6.16890007 L14.4357542,6.26562621 C14.5855551,6.70080209 14.354213,7.17501949 13.9190371,7.32482042 L13.9190371,7.32482042 L12.337,7.869 L13.148,10.225 L14.72656,9.68224249 C15.1282608,9.54396471 15.5632278,9.73044786 15.7455913,10.1022334 L15.7857542,10.1989595 C15.9355551,10.6341354 15.704213,11.1083528 15.2690371,11.2581538 L15.2690371,11.2581538 L13.691,11.801 L14.2357542,13.3822929 C14.374032,13.7839937 14.1875488,14.2189607 13.8157633,14.4013242 L13.7190371,14.4414871 C13.2838612,14.591288 12.8096438,14.3599459 12.6598429,13.92477 L12.6598429,13.92477 L12.115,12.344 L9.759,13.154 L10.3024209,14.7322929 C10.4406986,15.1339937 10.2542155,15.5689607 9.88242994,15.7513242 L9.78570379,15.7914871 C9.35052791,15.941288 8.87631051,15.7099459 8.72650959,15.27477 L8.72650959,15.27477 L8.183,13.697 L6.60237046,14.2414871 C6.20066965,14.3797649 5.76570269,14.1932817 5.58333914,13.8214962 L5.54317625,13.72477 C5.39337533,13.2895941 5.62471743,12.8153767 6.05989331,12.6655758 L6.05989331,12.6655758 L7.641,12.121 L6.83,9.765 L5.25237046,10.3081538 C4.85066965,10.4464315 4.41570269,10.2599484 4.23333914,9.88816284 L4.19317625,9.79143669 C4.04337533,9.35626081 4.27471743,8.88204342 4.70989331,8.73224249 L4.70989331,8.73224249 L6.287,8.189 L5.74317625,6.60810336 C5.60489847,6.20640255 5.79138162,5.77143559 6.16316717,5.58907204 L6.25989331,5.54890915 C6.69506919,5.39910823 7.16928659,5.63045033 7.31908752,6.06562621 L7.31908752,6.06562621 L7.863,7.646 L10.219,6.835 L9.67650959,5.25810336 C9.53823181,4.85640255 9.72471496,4.42143559 10.0965005,4.23907204 Z M10.761,8.411 L8.406,9.222 L9.217,11.578 L11.572,10.767 L10.761,8.411 Z" id="path-1"></path>
    </defs>
    <g id="Page-1" stroke="none" stroke-width="1" fill="none" fill-rule="evenodd">
        <g id="Artboard" transform="translate(-29.000000, -42.000000)">
            <g id="ico_slack" transform="translate(29.000000, 42.000000)">
                <g id="slack">
                    <mask id="mask-2" fill="white">
                        <use xlink:href="#path-1"></use>
                    </mask>
                    <use id="Combined-Shape" fill="#000000" fill-rule="nonzero" xlink:href="#path-1"></use>
                    <g id="COLOR/-black" mask="url(#mask-2)" fill="#000000" fill-rule="evenodd">
                        <rect id="Rectangle" x="0" y="0" width="20" height="20"></rect>
                    </g>
                </g>
            </g>
        </g>
    </g>
</svg>