<?xml version="1.0" encoding="UTF-8"?>
<svg width="20px" height="16px" viewBox="0 0 20 16" version="1.1" xmlns="http://www.w3.org/2000/svg" xmlns:xlink="http://www.w3.org/1999/xlink">
    <!-- Generator: Sketch 63.1 (92452) - https://sketch.com -->
    <title>ico_mail</title>
    <desc>Created with Sketch.</desc>
    <defs>
        <path d="M16.6667382,2.5 C18.0436422,2.5 19.1667382,3.62309604 19.1667382,5 L19.1667382,15 C19.1667382,16.376904 18.0436422,17.5 16.6667382,17.5 L3.33340489,17.5 C1.95650093,17.5 0.833404885,16.376904 0.833404885,15 L0.833404885,5 C0.833404885,3.62309604 1.95650093,2.5 3.33340489,2.5 L16.6667382,2.5 Z M17.4993333,6.6 L10.4779568,11.5160266 C10.1910234,11.71688 9.80911972,11.71688 9.52218626,11.5160266 L9.52218626,11.5160266 L2.49933333,6.6 L2.50007155,15 C2.50007155,15.4564294 2.87697551,15.8333333 3.33340489,15.8333333 L16.6667382,15.8333333 C17.1231676,15.8333333 17.5000716,15.4564294 17.5000716,15 L17.4993333,6.6 Z M16.6667382,4.16666667 L3.33340489,4.16666667 C3.00969884,4.16666667 2.72599284,4.35624344 2.58836877,4.62931509 L10.0000716,9.81612037 L17.4112816,4.62833903 C17.2734739,4.3557918 16.9900584,4.16666667 16.6667382,4.16666667 Z" id="path-1"></path>
    </defs>
    <g id="Page-1" stroke="none" stroke-width="1" fill="none" fill-rule="evenodd">
        <g id="Artboard" transform="translate(-76.000000, -44.000000)">
            <g id="ico_mail" transform="translate(76.000000, 42.000000)">
                <g id="mail">
                    <mask id="mask-2" fill="white">
                        <use xlink:href="#path-1"></use>
                    </mask>
                    <use id="Combined-Shape" fill="#000000" fill-rule="nonzero" xlink:href="#path-1"></use>
                    <g id="COLOR/-black" mask="url(#mask-2)" fill="#000000" fill-rule="evenodd">
                        <rect id="Rectangle" x="0" y="0" width="20" height="20"></rect>
                    </g>
                </g>
            </g>
        </g>
    </g>
</svg>