<?xml version="1.0" encoding="utf-8"?>
<!-- Generator: Adobe Illustrator 22.0.0, SVG Export Plug-In . SVG Version: 6.00 Build 0)  -->
<svg version="1.1" id="f7453241-aea4-44f3-9345-a352701b2511"
	 xmlns="http://www.w3.org/2000/svg" xmlns:xlink="http://www.w3.org/1999/xlink" x="0px" y="0px" viewBox="0 0 269.4 154.5"
	 style="enable-background:new 0 0 269.4 154.5;" xml:space="preserve">
<style type="text/css">
	.st0{fill:#949494;}
</style>
<path class="st0" d="M36.4,17h5.7l21.8,51.3h-7.1l-5.2-12.6H26l-5.3,12.6h-6.9L36.4,17z M39.1,24.9H39L28.3,50h20.9L39.1,24.9z"/>
<path class="st0" d="M75,17h31.8v5.6H81.1v17H105v5.6H81.1v23H75V17z"/>
<path class="st0" d="M154.1,22.7h-17v45.6h-6V22.7h-17V17h40L154.1,22.7z"/>
<path class="st0" d="M165.6,17h32.2v5.6h-26.1v16.1h24.4v5.6h-24.4v18.2h27.5v5.6h-33.5V17z"/>
<path class="st0" d="M212.8,17h13.1c2.5,0,4.9,0.1,7.4,0.4c2.3,0.2,4.5,0.9,6.5,1.9c1.9,1,3.6,2.4,4.7,4.2c1.3,2.3,1.9,4.9,1.8,7.6
	c0.1,3.4-1.1,6.7-3.4,9.1c-2.6,2.5-5.9,4-9.4,4.4l14.6,23.6h-7.5l-13.9-23h-7.8v23h-6.1V17z M218.9,39.6h5.4c1.7,0,3.4,0,5.2-0.1
	c1.7-0.1,3.4-0.4,5-1c1.5-0.5,2.8-1.3,3.8-2.5c1.1-1.4,1.6-3.1,1.5-4.9c0.1-1.5-0.3-3.1-1.1-4.4c-0.7-1.1-1.7-2-2.9-2.6
	c-1.3-0.6-2.6-1-4-1.2c-1.5-0.2-3-0.3-4.5-0.3h-8.5L218.9,39.6z"/>
<path class="st0" d="M18.6,83.2h17.1l11.8,33.5h0.1l11.9-33.5h17v51.3H65.2V95.1H65l-13.4,39.3H43L30,95.1h-0.1v39.3H18.5L18.6,83.2
	z"/>
<path class="st0" d="M108.1,83.2h9.3l22.3,51.3H127l-4.4-10.9h-19.9l-4.3,10.9H86L108.1,83.2z M112.5,98.1l-6.2,15.9h12.5
	L112.5,98.1z"/>
<path class="st0" d="M149.3,83.2h19.8c2.5,0,5,0.2,7.4,0.8c2.2,0.5,4.3,1.3,6.1,2.5c1.8,1.2,3.2,2.9,4.2,4.8
	c1.1,2.3,1.6,4.9,1.6,7.5c0.1,3.3-0.9,6.5-2.8,9.2c-2,2.6-5,4.3-8.3,4.8l13,21.6h-13.5L166.1,114h-5.6v20.5h-11.2V83.2z
	 M160.6,104.4h6.7c1,0,2.1,0,3.2-0.1c1.1-0.1,2.1-0.3,3.1-0.6c0.9-0.3,1.7-0.9,2.3-1.7c0.7-1,1-2.1,0.9-3.3c0.1-1.1-0.2-2.2-0.8-3.1
	c-0.5-0.8-1.2-1.4-2-1.8c-0.9-0.4-1.8-0.7-2.8-0.8c-1-0.1-2.1-0.2-3.1-0.2h-7.4L160.6,104.4z"/>
<path class="st0" d="M250.2,104.7l1.8,1l3.7,2c-0.3-9.4-5.5-18-13.8-22.7l-3.3,2l-2,1.2l-7.4,4.5l13.2,7.6l0,0L250.2,104.7z"/>
<path class="st0" d="M255.6,109.7l-3.5-2l-1.7-0.9l-8-4.5v29.8l5.4,5.4l3.7-3.7l-5-5C252.1,123.9,255.3,117,255.6,109.7z"/>
<path class="st0" d="M218.5,130.6l-3,1.7c7.8,4.4,17.3,4.6,25.3,0.5v-15L221,129.1L218.5,130.6z"/>
<path class="st0" d="M219,128.3l7.9-4.5l-19.9-12l-2.6-1.6l-2.8-1.7v0c0,9.1,4.6,17.6,12.2,22.6l2.9-1.6L219,128.3z"/>
<path class="st0" d="M236.6,86.2l3.4-2.1c-7.7-3.6-16.7-3.4-24.2,0.7l0,3.4v2.8l-0.1,7.9l18.8-11.3L236.6,86.2z"/>
<path class="st0" d="M206.7,109.7l6.9,4.2l0.3-21.5v-3l0-3.5c-7.2,4.6-11.8,12.3-12.4,20.8l2.6,1.6L206.7,109.7z"/>
<polygon class="st0" points="3.5,22.4 0,22.4 0,0.9 21.5,0.9 21.5,4.3 3.5,4.3 "/>
<polygon class="st0" points="21.5,154.5 0,154.5 0,133 3.5,133 3.5,151.1 21.5,151.1 "/>
<polygon class="st0" points="269.4,21.5 266,21.5 266,3.5 247.9,3.5 247.9,0 269.4,0 "/>
<polygon class="st0" points="268.3,153.6 246.9,153.6 246.9,150.1 264.9,150.1 264.9,132.1 268.3,132.1 "/>
</svg>
