<?xml version="1.0" encoding="utf-8"?>
<!-- Generator: Adobe Illustrator 22.0.0, SVG Export Plug-In . SVG Version: 6.00 Build 0)  -->
<svg version="1.1" id="Layer_1" xmlns="http://www.w3.org/2000/svg" xmlns:xlink="http://www.w3.org/1999/xlink" x="0px" y="0px"
	 viewBox="0 0 576 576" style="enable-background:new 0 0 576 576;" xml:space="preserve">
<style type="text/css">
	.st0{fill:#949494;}
	.st1{fill:#FFFFFF;}
</style>
<title>00_</title>
<g>
	<g>
		<path class="st0" d="M416.3,50.8v161.5c0,10.2-8.2,18.6-18.4,18.7h-43.8V115.2c0.1-10.2-8.2-18.6-18.4-18.7H220.4V50.8
			c0-10.2,8.2-18.6,18.4-18.7h159.1C408.1,32.2,416.4,40.6,416.3,50.8"/>
		<path class="st0" d="M354.1,231v45.7c0.1,10.2-8.2,18.6-18.4,18.7H176.6c-10.2-0.1-18.5-8.5-18.4-18.7V115.2
			c-0.1-10.2,8.2-18.6,18.4-18.7h43.8v115.9c0,10.2,8.2,18.6,18.4,18.7H354.1z"/>
		<path class="st1" d="M354.3,115.2V231H239.1c-10.2-0.1-18.5-8.5-18.4-18.7V96.5h115.3C346.1,96.6,354.4,104.9,354.3,115.2"/>
		<path class="st0" d="M520.7,474.4c-3.4-1.8-7-3.3-10.7-4.2c-3.5-0.9-7.1-1.4-10.7-1.5c-3.4,0-6.7,0.5-9.9,1.7
			c-5.6,2-10.1,6.3-12.2,11.9c-1.2,3-1.7,6.2-1.7,9.4c-0.1,2.9,0.4,5.9,1.6,8.6c1,2.1,2.4,4.1,4.2,5.6c1.8,1.5,3.8,2.7,5.9,3.6
			c2.2,0.9,4.5,1.7,6.8,2.5c1.9,0.7,3.6,1.3,5,1.9c1.2,0.5,2.3,1.1,3.3,1.8c0.8,0.6,1.4,1.3,1.8,2.1c0.4,0.9,0.6,1.8,0.5,2.7
			c0,1.8-0.8,3.5-2.1,4.6c-1.4,1.4-3.6,2-6.5,2c-2.7,0-5.3-0.6-7.8-1.8c-2.9-1.4-5.6-3.2-8-5.4l-7.7,14.7c7,5.1,15.5,7.9,24.2,7.9
			c3.8,0.1,7.6-0.5,11.3-1.7c3.1-1,6-2.7,8.4-4.8c2.3-2.1,4.1-4.6,5.2-7.5c1.2-3.1,1.8-6.4,1.8-9.7c0-5.3-1.4-9.6-4.1-13
			c-2.7-3.3-7-5.9-12.8-7.9c-1.5-0.5-2.9-1-4.4-1.4c-1.4-0.4-2.7-0.9-4-1.5c-1.1-0.5-2.1-1.2-2.9-2.1c-0.7-0.8-1.1-1.9-1.1-3.1
			c0-1.7,0.8-3.4,2.2-4.4c1.6-1.2,3.6-1.8,5.7-1.7c1.9,0,3.9,0.4,5.7,1.1c2.1,0.9,4.1,2.1,5.8,3.6L520.7,474.4z M443.9,511.9
			c4.9-1.2,8.7-3.4,11.2-6.7c2.5-3.3,3.8-7.6,3.8-13c0-2.8-0.5-5.7-1.4-8.4c-0.9-2.5-2.4-4.9-4.2-6.9c-2-2.1-4.4-3.7-7.1-4.7
			c-3.2-1.2-6.6-1.8-10-1.7h-27.9v70h17.9v-27l17.1,26.9h22.3L443.9,511.9z M426.2,484.6h3.4c3.5,0,6.2,0.8,8.1,2.2
			c3.5,3.2,3.8,8.7,0.6,12.2c-0.2,0.2-0.4,0.4-0.6,0.6c-1.9,1.5-4.6,2.2-8.1,2.2h-3.4V484.6z M392.7,470.6h-39.2v70h39.2v-15.4
			h-21.3v-12.1h20.1v-15.4h-20.1V486h21.3L392.7,470.6z M279.8,540.6h26.5c4.6,0,9.1-0.9,13.3-2.9c8.2-3.8,14.6-10.5,18-18.9
			c3.5-8.5,3.5-18,0-26.5c-1.7-4.1-4.2-7.9-7.3-11.1c-3.1-3.2-6.7-5.8-10.8-7.7c-4.1-1.9-8.6-2.9-13.2-2.9h-26.5L279.8,540.6z
			 M297.7,486h4.1c2.8,0,5.6,0.5,8.2,1.5c2.3,0.9,4.4,2.3,6.2,4.1c1.7,1.8,3,3.9,3.9,6.2c0.9,2.5,1.4,5.1,1.4,7.8
			c0,2.7-0.4,5.3-1.3,7.8c-0.8,2.3-2.1,4.4-3.8,6.2c-1.7,1.8-3.8,3.2-6.2,4.1c-2.6,1-5.5,1.5-8.3,1.5h-4.1V486z M228.5,470.6v70
			h39.4v-15.4h-21.5v-54.6L228.5,470.6z M193.4,540.6h17.9v-70h-17.9L193.4,540.6z M116.2,470.6v40.5c0,10.9,2.5,18.8,7.4,23.8
			c4.9,5,12.5,7.5,22.7,7.5c10.2,0,17.7-2.5,22.6-7.5c4.9-5,7.4-13,7.4-23.8v-40.5h-17.8v38c0,2-0.1,4.1-0.2,6.3
			c-0.1,2-0.6,4-1.4,5.8c-0.8,1.7-2,3.2-3.6,4.2c-2.1,1.2-4.5,1.8-6.9,1.6c-2.4,0.1-4.8-0.4-6.9-1.6c-1.6-1-2.9-2.5-3.6-4.2
			c-0.8-1.8-1.2-3.8-1.4-5.8c-0.1-2.1-0.2-4.2-0.2-6.3v-38L116.2,470.6z M50.2,540.6H79c3.3,0,6.7-0.4,9.9-1.3
			c2.7-0.8,5.3-2.1,7.4-3.9c2.1-1.7,3.7-3.9,4.8-6.4c1.2-2.8,1.7-5.7,1.7-8.7c0-2-0.2-4-0.7-5.9c-1-3.7-3.4-6.9-6.8-8.8
			c-2-1.1-4.2-1.9-6.5-2.3c2.4-1.4,4.4-3.5,5.7-5.9c1.3-2.7,2-5.7,1.9-8.8c0-5.8-1.6-10.3-4.9-13.4s-8.1-4.6-14.4-4.6H50.3
			L50.2,540.6z M68.1,484.6h3.3c5.6,0,8.4,2.3,8.4,6.8c0,4.5-2.8,6.8-8.4,6.8h-3.3L68.1,484.6z M68.1,511.7h4c4.5,0,7.7,0.6,9.7,1.8
			c3.1,2.2,3.9,6.6,1.6,9.7c-0.4,0.6-1,1.2-1.6,1.6c-2,1.2-5.2,1.8-9.7,1.8h-3.9L68.1,511.7z"/>
		<path class="st0" d="M520.8,376.9c-3.4-1.8-7-3.3-10.7-4.2c-3.5-0.9-7.1-1.4-10.7-1.5c-3.4,0-6.7,0.5-9.9,1.7
			c-5.6,2-10.1,6.3-12.2,11.9c-1.2,3-1.7,6.2-1.7,9.4c-0.1,2.9,0.4,5.9,1.6,8.6c1,2.1,2.4,4.1,4.2,5.6c1.8,1.5,3.8,2.7,5.9,3.6
			c2.2,0.9,4.5,1.7,6.8,2.5c1.9,0.7,3.6,1.3,5,1.9c1.2,0.5,2.3,1.1,3.3,1.8c0.8,0.6,1.4,1.3,1.8,2.1c0.4,0.9,0.6,1.8,0.5,2.7
			c0,1.8-0.8,3.5-2.1,4.6c-1.4,1.3-3.6,2-6.5,2c-2.7,0-5.3-0.6-7.8-1.8c-2.9-1.4-5.6-3.2-8-5.4l-7.7,14.7c7,5.1,15.5,7.9,24.2,7.9
			c3.8,0.1,7.6-0.5,11.3-1.7c3.1-1,6-2.7,8.4-4.8c2.3-2.1,4.1-4.6,5.2-7.5c1.2-3.1,1.8-6.4,1.8-9.7c0-5.3-1.4-9.7-4.1-13
			c-2.7-3.3-7-5.9-12.8-7.9c-1.5-0.5-2.9-1-4.4-1.4c-1.4-0.4-2.7-0.9-4-1.5c-1.1-0.5-2.1-1.2-2.9-2.1c-0.7-0.8-1.1-1.9-1.1-3.1
			c0-1.7,0.8-3.4,2.2-4.4c1.6-1.2,3.6-1.8,5.7-1.7c1.9,0,3.9,0.4,5.7,1.2c2.1,0.9,4.1,2.1,5.8,3.6L520.8,376.9z M461.3,376.9
			c-3.4-1.8-7-3.3-10.7-4.2c-3.5-0.9-7.1-1.4-10.6-1.4c-3.4,0-6.7,0.5-9.9,1.7c-5.6,2-10.1,6.3-12.2,11.9c-1.2,3-1.7,6.2-1.7,9.4
			c-0.1,2.9,0.4,5.9,1.6,8.6c1,2.1,2.4,4.1,4.2,5.6c1.8,1.5,3.8,2.7,5.9,3.6c2.2,0.9,4.5,1.7,6.8,2.5c2,0.7,3.6,1.3,5,1.9
			c1.2,0.5,2.3,1.1,3.3,1.8c0.8,0.6,1.4,1.3,1.8,2.1c0.4,0.9,0.6,1.8,0.5,2.7c0,1.8-0.8,3.5-2.1,4.6c-1.4,1.4-3.6,2-6.5,2
			c-2.7,0-5.3-0.6-7.8-1.8c-2.9-1.4-5.6-3.2-8-5.4l-7.7,14.7c7,5.1,15.5,7.9,24.2,7.9c3.8,0.1,7.6-0.5,11.3-1.7c3.1-1,6-2.7,8.4-4.8
			c2.3-2.1,4.1-4.6,5.2-7.5c1.2-3.1,1.8-6.4,1.8-9.7c0-5.3-1.4-9.7-4.1-13c-2.7-3.3-7-5.9-12.8-7.9c-1.5-0.5-2.9-1-4.4-1.4
			c-1.4-0.4-2.7-0.9-4-1.5c-1.1-0.5-2.1-1.2-2.9-2.1c-0.8-0.8-1.2-1.9-1.1-3.1c0-1.7,0.8-3.4,2.2-4.4c1.6-1.2,3.6-1.8,5.7-1.7
			c1.9,0,3.9,0.4,5.7,1.2c2.1,0.9,4.1,2.1,5.8,3.6L461.3,376.9z M403.1,373.2h-39.2v70h39.2v-15.4h-21.3v-12.1h20.1v-15.4h-20.1
			v-11.7h21.3V373.2z M298.1,443.2v-42.8l33.1,42.8H349v-70h-17.8V416l-33.1-42.8h-17.9v70H298.1z M247.4,443.2h17.9v-70h-17.9
			L247.4,443.2z M232.8,377c-3.4-1.8-7-3.3-10.7-4.2c-3.5-0.9-7.1-1.4-10.7-1.5c-3.4,0-6.7,0.5-9.9,1.7c-5.6,2-10.1,6.4-12.2,11.9
			c-1.2,3-1.7,6.2-1.7,9.4c-0.1,2.9,0.4,5.9,1.6,8.6c1,2.1,2.4,4.1,4.2,5.6c1.8,1.5,3.8,2.7,5.9,3.6c2.2,0.9,4.5,1.7,6.8,2.5
			c1.9,0.7,3.6,1.3,5,1.9c1.2,0.5,2.3,1.1,3.3,1.8c0.8,0.6,1.4,1.3,1.8,2.1c0.4,0.9,0.6,1.8,0.6,2.7c0,1.8-0.8,3.5-2.1,4.6
			c-1.4,1.3-3.6,2-6.5,2c-2.7,0-5.3-0.6-7.8-1.8c-2.9-1.4-5.6-3.2-7.9-5.4l-7.7,14.7c7,5.1,15.5,7.9,24.2,7.9
			c3.8,0.1,7.6-0.5,11.3-1.7c3.1-1,6-2.7,8.4-4.8c2.3-2.1,4.1-4.6,5.2-7.5c1.2-3.1,1.8-6.4,1.8-9.7c0-5.3-1.4-9.7-4.1-13
			c-2.7-3.3-7-5.9-12.8-7.9c-1.5-0.5-2.9-1-4.4-1.4c-1.4-0.4-2.7-0.9-4-1.5c-1.1-0.5-2.1-1.2-2.9-2.1c-0.7-0.8-1.1-1.9-1.1-3.1
			c0-1.7,0.8-3.4,2.2-4.4c1.6-1.2,3.6-1.8,5.7-1.7c1.9,0,3.9,0.4,5.7,1.2c2.1,0.9,4.1,2.1,5.9,3.6L232.8,377z M113.9,373.2v40.5
			c0,10.9,2.5,18.8,7.4,23.8c4.9,5,12.5,7.5,22.7,7.5c10.2,0,17.7-2.5,22.6-7.5c4.9-5,7.4-13,7.4-23.8v-40.6h-17.9v38
			c0,2-0.1,4.1-0.2,6.3c-0.1,2-0.6,4-1.4,5.8c-0.8,1.7-2,3.2-3.6,4.2c-2.1,1.2-4.5,1.8-6.9,1.6c-2.4,0.1-4.8-0.4-6.9-1.6
			c-1.6-1-2.9-2.5-3.6-4.2c-0.8-1.8-1.3-3.8-1.4-5.8c-0.2-2.1-0.2-4.2-0.2-6.3v-38L113.9,373.2z M50.2,443.2H79
			c3.3,0,6.7-0.4,9.9-1.3c2.7-0.8,5.3-2.1,7.4-3.9c2-1.8,3.7-3.9,4.7-6.4c1.2-2.8,1.7-5.7,1.7-8.7c0-2-0.2-4-0.7-5.9
			c-1-3.7-3.4-6.9-6.8-8.8c-2-1.1-4.2-1.9-6.5-2.3c2.4-1.4,4.4-3.5,5.7-5.9c1.3-2.7,2-5.7,1.9-8.8c0-5.8-1.6-10.3-4.9-13.4
			c-3.3-3.1-8.1-4.6-14.4-4.6H50.3L50.2,443.2z M68.1,387.2h3.3c5.6,0,8.4,2.3,8.4,6.8c0,4.5-2.8,6.8-8.4,6.8h-3.2L68.1,387.2z
			 M68.1,414.3h4c4.5,0,7.7,0.6,9.7,1.8c3.1,2.2,3.9,6.6,1.6,9.7c-0.4,0.6-1,1.2-1.6,1.6c-2,1.2-5.2,1.8-9.7,1.8h-3.9L68.1,414.3z"
			/>
	</g>
</g>
</svg>
