<?xml version="1.0" encoding="utf-8"?>
<!-- Generator: Adobe Illustrator 22.0.0, SVG Export Plug-In . SVG Version: 6.00 Build 0)  -->
<svg version="1.1" id="Layer_1" xmlns="http://www.w3.org/2000/svg" xmlns:xlink="http://www.w3.org/1999/xlink" x="0px" y="0px"
	 viewBox="0 0 192 72" style="enable-background:new 0 0 192 72;" xml:space="preserve">
<style type="text/css">
	.st0{fill:#949494;}
</style>
<g>
	<g>
		<path class="st0" d="M7.9,71.7c-0.8,0-1.6-0.2-2.3-0.5c-0.7-0.3-1.3-0.7-1.9-1.2c-0.5-0.5-0.9-1.1-1.2-1.9C2.2,67.4,2,66.6,2,65.8
			v0c0-0.8,0.1-1.6,0.4-2.3c0.3-0.7,0.7-1.3,1.2-1.9c0.5-0.5,1.1-1,1.9-1.3C6.3,60,7.1,59.9,8,59.9c0.5,0,1,0,1.5,0.1
			c0.4,0.1,0.8,0.2,1.2,0.4c0.4,0.2,0.7,0.3,1,0.6c0.3,0.2,0.6,0.5,0.8,0.7l-1.6,1.8c-0.4-0.4-0.9-0.7-1.4-0.9
			c-0.5-0.2-1-0.3-1.6-0.3c-0.5,0-0.9,0.1-1.3,0.3c-0.4,0.2-0.8,0.4-1.1,0.8c-0.3,0.3-0.5,0.7-0.7,1.1c-0.2,0.4-0.2,0.9-0.2,1.4v0
			c0,0.5,0.1,0.9,0.2,1.4c0.2,0.4,0.4,0.8,0.7,1.1c0.3,0.3,0.6,0.6,1,0.8C7,69.2,7.5,69.3,8,69.3c0.7,0,1.2-0.1,1.7-0.4
			c0.5-0.2,0.9-0.6,1.3-1l1.6,1.6c-0.3,0.3-0.6,0.6-0.9,0.8c-0.3,0.2-0.7,0.5-1,0.6c-0.4,0.2-0.8,0.3-1.2,0.4
			C8.9,71.6,8.4,71.7,7.9,71.7z"/>
		<path class="st0" d="M24.3,71.7c-0.9,0-1.7-0.2-2.4-0.5c-0.7-0.3-1.4-0.7-1.9-1.3c-0.5-0.5-1-1.1-1.3-1.9
			c-0.3-0.7-0.4-1.5-0.4-2.3v0c0-0.8,0.2-1.6,0.5-2.3c0.3-0.7,0.7-1.3,1.3-1.9c0.5-0.5,1.2-1,1.9-1.3c0.7-0.3,1.6-0.5,2.4-0.5
			c0.9,0,1.7,0.2,2.4,0.5c0.7,0.3,1.4,0.7,1.9,1.3c0.5,0.5,1,1.1,1.3,1.9c0.3,0.7,0.4,1.5,0.4,2.3v0c0,0.8-0.2,1.6-0.5,2.3
			c-0.3,0.7-0.7,1.3-1.3,1.9c-0.5,0.5-1.2,1-1.9,1.3C26,71.5,25.1,71.7,24.3,71.7z M24.3,69.3c0.5,0,1-0.1,1.4-0.3
			c0.4-0.2,0.8-0.4,1.1-0.8c0.3-0.3,0.5-0.7,0.7-1.1c0.2-0.4,0.3-0.9,0.3-1.4v0c0-0.5-0.1-1-0.3-1.4c-0.2-0.4-0.4-0.8-0.7-1.1
			c-0.3-0.3-0.7-0.6-1.1-0.8c-0.4-0.2-0.9-0.3-1.4-0.3c-0.5,0-1,0.1-1.4,0.3c-0.4,0.2-0.8,0.4-1.1,0.8c-0.3,0.3-0.5,0.7-0.7,1.1
			c-0.2,0.4-0.3,0.9-0.3,1.4v0c0,0.5,0.1,0.9,0.3,1.4c0.2,0.4,0.4,0.8,0.7,1.1c0.3,0.3,0.7,0.6,1.1,0.8
			C23.3,69.2,23.8,69.3,24.3,69.3z"/>
		<path class="st0" d="M121.9,71.7c-0.9,0-1.7-0.2-2.4-0.5c-0.7-0.3-1.4-0.7-1.9-1.3c-0.5-0.5-1-1.1-1.3-1.9
			c-0.3-0.7-0.4-1.5-0.4-2.3v0c0-0.8,0.2-1.6,0.5-2.3c0.3-0.7,0.7-1.3,1.3-1.9c0.5-0.5,1.2-1,1.9-1.3c0.7-0.3,1.6-0.5,2.4-0.5
			c0.9,0,1.7,0.2,2.4,0.5c0.7,0.3,1.4,0.7,1.9,1.3c0.5,0.5,1,1.1,1.3,1.9c0.3,0.7,0.4,1.5,0.4,2.3v0c0,0.8-0.2,1.6-0.5,2.3
			c-0.3,0.7-0.7,1.3-1.3,1.9c-0.5,0.5-1.2,1-1.9,1.3C123.6,71.5,122.8,71.7,121.9,71.7z M121.9,69.3c0.5,0,1-0.1,1.4-0.3
			c0.4-0.2,0.8-0.4,1.1-0.8c0.3-0.3,0.5-0.7,0.7-1.1c0.2-0.4,0.3-0.9,0.3-1.4v0c0-0.5-0.1-1-0.3-1.4c-0.2-0.4-0.4-0.8-0.7-1.1
			c-0.3-0.3-0.7-0.6-1.1-0.8c-0.4-0.2-0.9-0.3-1.4-0.3c-0.5,0-1,0.1-1.4,0.3c-0.4,0.2-0.8,0.4-1.1,0.8c-0.3,0.3-0.5,0.7-0.7,1.1
			c-0.2,0.4-0.3,0.9-0.3,1.4v0c0,0.5,0.1,0.9,0.3,1.4c0.2,0.4,0.4,0.8,0.7,1.1c0.3,0.3,0.7,0.6,1.1,0.8
			C120.9,69.2,121.4,69.3,121.9,69.3z"/>
		<path class="st0" d="M36,60.1h2.7l3,4.8l3-4.8h2.7v11.4h-2.5V64l-3.2,4.9h-0.1l-3.2-4.8v7.4H36V60.1z"/>
		<path class="st0" d="M53.1,60.1h2.7l3,4.8l3-4.8h2.7v11.4H62V64l-3.2,4.9h-0.1l-3.2-4.8v7.4h-2.5V60.1z"/>
		<path class="st0" d="M83.2,71.6c-0.9,0-1.7-0.1-2.6-0.4c-0.8-0.3-1.6-0.8-2.3-1.4l1.5-1.8c0.5,0.4,1.1,0.8,1.6,1
			c0.5,0.2,1.1,0.4,1.8,0.4c0.5,0,0.9-0.1,1.2-0.3c0.3-0.2,0.4-0.5,0.4-0.8v0c0-0.2,0-0.3-0.1-0.4c-0.1-0.1-0.2-0.2-0.3-0.3
			c-0.2-0.1-0.4-0.2-0.7-0.3c-0.3-0.1-0.7-0.2-1.2-0.3c-0.6-0.1-1.1-0.3-1.6-0.5c-0.5-0.2-0.9-0.4-1.2-0.6c-0.3-0.3-0.6-0.6-0.8-1
			c-0.2-0.4-0.3-0.9-0.3-1.4v0c0-0.5,0.1-1,0.3-1.4c0.2-0.4,0.5-0.8,0.8-1.1c0.4-0.3,0.8-0.5,1.3-0.7c0.5-0.2,1-0.2,1.6-0.2
			c0.8,0,1.6,0.1,2.3,0.4c0.7,0.2,1.3,0.6,1.9,1.1l-1.3,1.9c-0.5-0.3-1-0.6-1.5-0.8c-0.5-0.2-1-0.3-1.5-0.3c-0.5,0-0.9,0.1-1.1,0.3
			c-0.2,0.2-0.4,0.4-0.4,0.7v0c0,0.2,0,0.3,0.1,0.5c0.1,0.1,0.2,0.3,0.4,0.4c0.2,0.1,0.4,0.2,0.8,0.3c0.3,0.1,0.7,0.2,1.2,0.3
			c0.6,0.2,1.1,0.3,1.5,0.5c0.5,0.2,0.8,0.4,1.1,0.7c0.3,0.3,0.5,0.6,0.7,0.9c0.2,0.4,0.2,0.8,0.2,1.3v0c0,0.6-0.1,1.1-0.3,1.5
			c-0.2,0.4-0.5,0.8-0.9,1.1c-0.4,0.3-0.8,0.5-1.3,0.7C84.3,71.5,83.8,71.6,83.2,71.6z"/>
		<path class="st0" d="M97.8,71.6c-0.9,0-1.7-0.1-2.6-0.4c-0.8-0.3-1.6-0.8-2.3-1.4l1.5-1.8c0.5,0.4,1.1,0.8,1.6,1
			c0.5,0.2,1.1,0.4,1.8,0.4c0.5,0,0.9-0.1,1.2-0.3c0.3-0.2,0.4-0.5,0.4-0.8v0c0-0.2,0-0.3-0.1-0.4c-0.1-0.1-0.2-0.2-0.3-0.3
			c-0.2-0.1-0.4-0.2-0.7-0.3c-0.3-0.1-0.7-0.2-1.2-0.3c-0.6-0.1-1.1-0.3-1.6-0.5c-0.5-0.2-0.9-0.4-1.2-0.6c-0.3-0.3-0.6-0.6-0.8-1
			c-0.2-0.4-0.3-0.9-0.3-1.4v0c0-0.5,0.1-1,0.3-1.4c0.2-0.4,0.5-0.8,0.8-1.1c0.4-0.3,0.8-0.5,1.3-0.7c0.5-0.2,1-0.2,1.6-0.2
			c0.8,0,1.6,0.1,2.3,0.4c0.7,0.2,1.3,0.6,1.9,1.1l-1.3,1.9c-0.5-0.3-1-0.6-1.5-0.8c-0.5-0.2-1-0.3-1.5-0.3c-0.5,0-0.9,0.1-1.1,0.3
			c-0.2,0.2-0.4,0.4-0.4,0.7v0c0,0.2,0,0.3,0.1,0.5c0.1,0.1,0.2,0.3,0.4,0.4c0.2,0.1,0.4,0.2,0.8,0.3c0.3,0.1,0.7,0.2,1.2,0.3
			c0.6,0.2,1.1,0.3,1.5,0.5c0.5,0.2,0.8,0.4,1.1,0.7c0.3,0.3,0.5,0.6,0.7,0.9c0.2,0.4,0.2,0.8,0.2,1.3v0c0,0.6-0.1,1.1-0.3,1.5
			c-0.2,0.4-0.5,0.8-0.9,1.1c-0.4,0.3-0.8,0.5-1.3,0.7C99,71.5,98.4,71.6,97.8,71.6z"/>
		<path class="st0" d="M133.6,60.1h2.3l5.3,7v-7h2.5v11.4h-2.1l-5.5-7.2v7.2h-2.5V60.1z"/>
		<path class="st0" d="M70.1,60.1h2.5v11.4h-2.5V60.1z"/>
		<path class="st0" d="M107.7,60.1h2.5v11.4h-2.5V60.1z"/>
	</g>
	<g>
		<path class="st0" d="M11.7,53.8c-1.7,0-3.2-0.3-4.7-0.9c-1.4-0.6-2.7-1.4-3.7-2.5c-1-1-1.9-2.3-2.4-3.7C0.3,45.2,0,43.7,0,42V42
			c0-1.6,0.3-3.2,0.9-4.6c0.6-1.4,1.4-2.7,2.4-3.7c1-1.1,2.3-1.9,3.7-2.5c1.5-0.6,3.1-0.9,4.8-0.9c1.1,0,2,0.1,2.9,0.3
			c0.9,0.2,1.7,0.4,2.4,0.7c0.7,0.3,1.4,0.7,2,1.1c0.6,0.4,1.2,0.9,1.7,1.4l-3.2,3.7c-0.9-0.8-1.8-1.4-2.7-1.9
			c-0.9-0.5-2-0.7-3.1-0.7c-1,0-1.8,0.2-2.6,0.6c-0.8,0.4-1.5,0.9-2.1,1.5c-0.6,0.7-1,1.4-1.4,2.3c-0.3,0.9-0.5,1.8-0.5,2.8V42
			c0,1,0.2,1.9,0.5,2.8c0.3,0.9,0.8,1.6,1.4,2.3c0.6,0.6,1.3,1.2,2.1,1.5c0.8,0.4,1.7,0.6,2.7,0.6c1.3,0,2.4-0.2,3.3-0.7
			c0.9-0.5,1.8-1.1,2.7-2l3.2,3.2c-0.6,0.6-1.2,1.2-1.8,1.7c-0.6,0.5-1.3,0.9-2.1,1.3c-0.7,0.4-1.6,0.6-2.5,0.8
			C13.8,53.7,12.8,53.8,11.7,53.8"/>
		<path class="st0" d="M36.4,49.1c1,0,1.9-0.2,2.8-0.6c0.8-0.4,1.6-0.9,2.2-1.5c0.6-0.7,1.1-1.4,1.4-2.3c0.3-0.9,0.5-1.8,0.5-2.8V42
			c0-1-0.2-1.9-0.5-2.8c-0.3-0.9-0.8-1.6-1.4-2.3c-0.6-0.7-1.3-1.2-2.2-1.5c-0.8-0.4-1.8-0.6-2.8-0.6c-1,0-2,0.2-2.8,0.6
			c-0.8,0.4-1.6,0.9-2.1,1.5c-0.6,0.7-1.1,1.4-1.4,2.3c-0.3,0.9-0.5,1.8-0.5,2.8V42c0,1,0.2,1.9,0.5,2.8c0.3,0.9,0.8,1.6,1.4,2.3
			c0.6,0.6,1.3,1.2,2.2,1.5C34.5,48.9,35.4,49.1,36.4,49.1 M36.4,53.8c-1.8,0-3.4-0.3-4.9-0.9c-1.5-0.6-2.8-1.4-3.8-2.5
			c-1.1-1.1-1.9-2.3-2.5-3.7c-0.6-1.4-0.9-2.9-0.9-4.6V42c0-1.6,0.3-3.2,0.9-4.6c0.6-1.4,1.4-2.7,2.5-3.7c1.1-1.1,2.4-1.9,3.8-2.5
			c1.5-0.6,3.1-0.9,4.9-0.9c1.8,0,3.4,0.3,4.8,0.9c1.5,0.6,2.8,1.5,3.8,2.5c1.1,1.1,1.9,2.3,2.5,3.7c0.6,1.4,0.9,2.9,0.9,4.6V42
			c0,1.6-0.3,3.2-0.9,4.6c-0.6,1.4-1.5,2.7-2.5,3.7c-1.1,1.1-2.4,1.9-3.8,2.5C39.7,53.4,38.1,53.8,36.4,53.8"/>
		<polygon class="st0" points="53.2,30.6 58.2,30.6 58.2,48.8 69.6,48.8 69.6,53.4 53.2,53.4 		"/>
		<path class="st0" d="M82,53.7c-3.1,0-5.5-0.8-7.2-2.5c-1.8-1.7-2.6-4.2-2.6-7.6v-13h5v12.9c0,1.9,0.4,3.3,1.3,4.2
			c0.9,0.9,2.1,1.4,3.6,1.4c1.5,0,2.7-0.5,3.6-1.4c0.9-0.9,1.3-2.3,1.3-4.1V30.6h5v12.9c0,1.7-0.2,3.2-0.7,4.5
			c-0.5,1.3-1.1,2.3-2,3.2c-0.9,0.9-1.9,1.5-3.2,1.9C84.9,53.5,83.5,53.7,82,53.7"/>
		<polygon class="st0" points="98,30.6 103.5,30.6 109.4,40.2 115.4,30.6 120.8,30.6 120.8,53.4 115.9,53.4 115.9,38.5 109.5,48.2 
			109.4,48.2 103,38.6 103,53.4 98,53.4 		"/>
		<path class="st0" d="M137.8,49c1.1,0,2-0.2,2.6-0.6c0.6-0.4,0.9-1,0.9-1.9v-0.1c0-0.8-0.3-1.4-0.9-1.8c-0.6-0.4-1.5-0.7-2.8-0.7
			h-5.8v5H137.8z M136.4,39.8c1.1,0,2-0.2,2.6-0.6c0.7-0.4,1-1,1-1.8v-0.1c0-0.8-0.3-1.3-0.8-1.7c-0.6-0.4-1.4-0.6-2.4-0.6h-5v4.8
			H136.4z M126.9,30.6h10.6c2.6,0,4.6,0.7,6,2c1,1,1.6,2.3,1.6,3.9v0.1c0,0.6-0.1,1.2-0.2,1.7c-0.2,0.5-0.4,1-0.6,1.3
			c-0.3,0.4-0.6,0.8-0.9,1.1c-0.4,0.3-0.7,0.6-1.1,0.8c1.3,0.5,2.4,1.2,3.1,2c0.8,0.9,1.1,2,1.1,3.6v0.1c0,1-0.2,2-0.6,2.7
			c-0.4,0.8-1,1.4-1.7,2c-0.7,0.5-1.6,0.9-2.7,1.2c-1,0.3-2.2,0.4-3.5,0.4h-10.8V30.6z"/>
		<path class="st0" d="M160.2,53.7c-3.1,0-5.5-0.8-7.2-2.5c-1.8-1.7-2.6-4.2-2.6-7.6v-13h5v12.9c0,1.9,0.4,3.3,1.3,4.2
			c0.9,0.9,2.1,1.4,3.6,1.4c1.5,0,2.7-0.5,3.6-1.4c0.9-0.9,1.3-2.3,1.3-4.1V30.6h5v12.9c0,1.7-0.2,3.2-0.7,4.5
			c-0.5,1.3-1.1,2.3-2,3.2c-0.9,0.9-1.9,1.5-3.2,1.9C163.1,53.5,161.7,53.7,160.2,53.7"/>
		<path class="st0" d="M183.6,53.7c-1.7,0-3.4-0.3-5.1-0.9c-1.7-0.6-3.2-1.5-4.6-2.8l3-3.6c1,0.8,2.1,1.5,3.2,2
			c1.1,0.5,2.3,0.7,3.6,0.7c1,0,1.8-0.2,2.4-0.6c0.6-0.4,0.9-0.9,0.9-1.6V47c0-0.3-0.1-0.6-0.2-0.9c-0.1-0.3-0.4-0.5-0.7-0.7
			c-0.3-0.2-0.8-0.4-1.4-0.7c-0.6-0.2-1.4-0.4-2.3-0.7c-1.2-0.3-2.2-0.6-3.1-0.9c-0.9-0.3-1.7-0.8-2.4-1.3c-0.6-0.5-1.2-1.1-1.5-1.9
			c-0.4-0.8-0.5-1.7-0.5-2.8v-0.1c0-1,0.2-2,0.6-2.8c0.4-0.8,0.9-1.6,1.6-2.2c0.7-0.6,1.5-1.1,2.5-1.4c1-0.3,2-0.5,3.2-0.5
			c1.7,0,3.2,0.3,4.6,0.7c1.4,0.5,2.7,1.2,3.9,2.1l-2.6,3.8c-1-0.7-2-1.2-3-1.6c-1-0.4-2-0.6-2.9-0.6c-1,0-1.7,0.2-2.2,0.6
			c-0.5,0.4-0.7,0.9-0.7,1.4v0.1c0,0.4,0.1,0.7,0.2,1c0.1,0.3,0.4,0.5,0.8,0.7c0.4,0.2,0.9,0.4,1.5,0.6c0.6,0.2,1.4,0.4,2.4,0.7
			c1.2,0.3,2.2,0.6,3.1,1c0.9,0.4,1.7,0.8,2.3,1.4c0.6,0.5,1.1,1.2,1.4,1.9c0.3,0.7,0.5,1.6,0.5,2.6v0.1c0,1.1-0.2,2.1-0.6,3
			c-0.4,0.9-1,1.6-1.7,2.2c-0.7,0.6-1.6,1.1-2.6,1.4C186,53.5,184.9,53.7,183.6,53.7"/>
		<polygon class="st0" points="160.3,21.2 161.2,24.1 164.1,24.1 161.8,25.9 162.7,28.8 160.3,27 158,28.8 158.9,25.9 156.5,24.1 
			159.4,24.1 		"/>
	</g>
	<g>
		<path class="st0" d="M11.7,23.9c-1.7,0-3.2-0.3-4.7-0.9c-1.4-0.6-2.7-1.4-3.7-2.5c-1-1.1-1.9-2.3-2.4-3.7c-0.6-1.4-0.9-3-0.9-4.6
			v-0.1C0,10.5,0.3,9,0.9,7.6c0.6-1.4,1.4-2.7,2.4-3.7c1-1.1,2.3-1.9,3.7-2.5c1.5-0.6,3.1-0.9,4.8-0.9c1.1,0,2,0.1,2.9,0.3
			c0.9,0.2,1.7,0.4,2.4,0.7c0.7,0.3,1.4,0.7,2,1.1c0.6,0.4,1.2,0.9,1.7,1.4l-3.2,3.7c-0.9-0.8-1.8-1.4-2.7-1.9C14.1,5.2,13,5,11.9,5
			c-1,0-1.8,0.2-2.7,0.6C8.4,5.9,7.7,6.4,7.1,7.1c-0.6,0.7-1,1.4-1.4,2.3c-0.3,0.9-0.5,1.8-0.5,2.7v0.1c0,1,0.2,1.9,0.5,2.8
			c0.3,0.9,0.8,1.6,1.3,2.3c0.6,0.7,1.3,1.2,2.1,1.5c0.8,0.4,1.7,0.6,2.7,0.6c1.3,0,2.4-0.2,3.3-0.7c0.9-0.5,1.8-1.1,2.7-2l3.2,3.2
			c-0.6,0.6-1.2,1.2-1.8,1.7c-0.6,0.5-1.3,0.9-2.1,1.3c-0.7,0.4-1.6,0.6-2.5,0.8C13.8,23.8,12.8,23.9,11.7,23.9z"/>
		<path class="st0" d="M86,0.9h4.6l9.8,23h-5.2l-2.1-5.1h-9.6l-2.1,5.1h-5.1L86,0.9z M91.3,14.3l-3-7.4l-3,7.4H91.3z"/>
		<path class="st0" d="M126.9,1.1h17.2v4.5h-12.2v4.6h10.7v4.5h-10.7v4.8h12.4v4.5h-17.3V1.1z"/>
		<path class="st0" d="M53.3,1.1h17.2v4.5H58.2v4.6H69v4.5H58.2v4.8h12.4v4.5H53.3V1.1z"/>
		<path class="st0" d="M109.5,5.7h-6.9V1.1h18.9v4.6h-6.9v18.2h-5V5.7z"/>
		<path class="st0" d="M37.3,12.2c2.4,0,3.8-1.3,3.8-3.2l0-0.1c0-2.1-1.5-3.3-3.9-3.3h-5l0,6.5H37.3z M27.2,1.1l10.4,0
			c2.9,0,5.1,0.8,6.6,2.3c1.3,1.3,2,3.1,1.9,5.2l0,0.1c0,3.7-2,6-4.9,7.1l5.6,8.1h-5.9l-4.9-7.3l-3.9,0l0,7.3h-5L27.2,1.1z"/>
	</g>
</g>
</svg>
