<?xml version="1.0" encoding="utf-8"?>
<!-- Generator: Adobe Illustrator 22.0.0, SVG Export Plug-In . SVG Version: 6.00 Build 0)  -->
<svg version="1.1" id="Layer_1" xmlns="http://www.w3.org/2000/svg" xmlns:xlink="http://www.w3.org/1999/xlink" x="0px" y="0px"
	 viewBox="0 0 500 500" style="enable-background:new 0 0 500 500;" xml:space="preserve">
<style type="text/css">
	.st0{fill:#949494;}
	.st1{fill:#FFFFFF;}
</style>
<rect class="st0" width="500" height="500"/>
<g>
	<path class="st1" d="M38.7,176.1v-6.9l26.4-17.1v9.1L47,172.5v0.3l18.1,11.3v9.1L38.7,176.1z"/>
	<path class="st1" d="M83.1,174.1c0-11.3,9.1-17.7,19.5-17.7c5.3,0,9.8,1.9,12.7,4.6l-4.6,6.2c-2.6-1.9-4.9-2.7-7.5-2.7
		c-5.8,0-9.8,3.8-9.8,9.6c0,5.8,3.9,9.6,9.5,9.6c3.5,0,6.5-1.5,8.9-3.2l4,6.3c-4.1,3.4-9.3,5-13.9,5
		C91.3,191.8,83.1,185.3,83.1,174.1z"/>
	<path class="st1" d="M129.4,174.1c0-11.3,8.3-17.7,17.2-17.7s17.2,6.5,17.2,17.7c0,11.2-8.3,17.7-17.2,17.7
		S129.4,185.3,129.4,174.1z M153.7,174.1c0-5.9-2.4-9.6-7-9.6c-4.6,0-7,3.8-7,9.6c0,5.8,2.4,9.6,7,9.6
		C151.3,183.7,153.7,180,153.7,174.1z"/>
	<path class="st1" d="M188,177.8v-26.7h-10.6v-7.9H198v34.9c0,4.2,2.7,5.5,5.5,5.5c1.6,0,3.2-0.3,5.3-1.1l2.2,7.4
		c-3.5,1.1-5.9,1.8-10.1,1.8C192.4,191.8,188,186.4,188,177.8z"/>
	<path class="st1" d="M225.9,178.1v-20.9h10v19.6c0,4.5,1.2,6.5,4.9,6.5c2.5,0,4.3-0.9,6.6-3.9v-22.2h10V191h-8.2l-0.7-4.9h-0.3
		c-3,3.4-6.5,5.7-11.4,5.7C229.1,191.8,225.9,186.6,225.9,178.1z"/>
	<path class="st1" d="M271.7,157.2h7.5l0.7,4.2h0.2c1.3-2.7,3.4-5,7.3-5c2.9,0,5.1,1.9,5.9,5.5c1.2-3.1,3.6-5.5,7.5-5.5
		c4.8,0,7.6,4.2,7.6,10.9V191h-9.5v-23c0-2.1-0.5-3.1-1.8-3.1c-1.3,0-2.2,1.1-3.1,3.3V191h-7.8v-23c0-2.1-0.6-3.1-1.9-3.1
		c-1.2,0-2.1,1.1-3,3.3V191h-9.5V157.2z"/>
	<path class="st1" d="M330.9,187.3h-0.3l-0.8,3.7h-7.8v-47.7h10v11.6l-0.4,5.3h0.3c2.5-2.4,5.9-3.9,9.2-3.9
		c8.4,0,13.6,6.8,13.6,17.1c0,11.7-7.1,18.3-14.6,18.3C337,191.8,333.7,190.3,330.9,187.3z M344.5,173.7c0-6.1-2-9.1-6.2-9.1
		c-2.1,0-4.1,0.9-6.2,3.1v13.6c1.9,1.7,4,2.2,5.8,2.2C341.5,183.6,344.5,180.7,344.5,173.7z"/>
	<path class="st1" d="M368.9,178.1v-20.9h10v19.6c0,4.5,1.2,6.5,4.9,6.5c2.5,0,4.2-0.9,6.6-3.9v-22.2h10V191h-8.2l-0.7-4.9h-0.3
		c-3,3.4-6.5,5.7-11.4,5.7C372.2,191.8,368.9,186.6,368.9,178.1z"/>
	<path class="st1" d="M416,186.7l4.3-6.3c4.2,2.6,8.8,4,13.6,4c3.7,0,5.4-1.2,5.4-2.9c0-1.9-1.6-2.6-8.3-4
		c-9.2-2-12.8-5.3-12.8-10.6c0-6.3,5.9-10.6,15.5-10.6c6,0,11.1,2.4,14.6,4.6l-4.5,6c-3.4-2.1-7.3-3.2-11.1-3.2
		c-3.1,0-4.7,1.1-4.7,2.7c0,1.9,2.1,2.3,7.8,3.6c10.4,2.3,13.3,5.3,13.3,10.8c0,6.1-5.8,10.9-16.7,10.9
		C426.5,191.8,420.3,189.5,416,186.7z"/>
	<path class="st1" d="M81.8,255.9c0-11.1,7.1-17.7,14.5-17.7c3.7,0,6.2,1.3,8.5,3.6h0.2l-0.5-5.2V225h10v47.7h-8.2l-0.7-3.5h-0.3
		c-2.5,2.4-6,4.3-9.4,4.3C87.4,273.6,81.8,266.9,81.8,255.9z M104.5,262.3v-13.6c-1.8-1.7-3.7-2.2-5.7-2.2c-3.7,0-6.8,3-6.8,9.4
		c0,6.6,2.5,9.6,6.5,9.6C100.9,265.4,102.7,264.5,104.5,262.3z"/>
	<path class="st1" d="M145.2,246.8h-13.6V239h23.6v33.8h-10V246.8z M143.1,227.6c0-3.7,2.8-6.2,6.7-6.2s6.7,2.6,6.7,6.2
		c0,3.7-2.8,6.1-6.7,6.1S143.1,231.3,143.1,227.6z"/>
	<path class="st1" d="M177.5,278.5c0-2.8,1.8-5,5.3-6.8v-0.3c-1.9-1.2-3.4-2.9-3.4-5.7c0-2.3,1.6-4.7,4.1-6.3v-0.3
		c-2.5-1.7-4.5-4.7-4.5-8.7c0-8.1,6.8-12.3,14.5-12.3c2,0,3.9,0.3,5.5,0.8h13.7v7.4h-6.8c0.8,1,1.5,2.7,1.5,4.4
		c0,7.8-6.1,11.3-13.9,11.3c-1.4,0-3-0.2-4.7-0.7c-1,0.7-1.5,1.4-1.5,2.5c0,1.8,1.8,2.5,5.8,2.5h6.2c8.9,0,13.7,2.5,13.7,8.6
		c0,7-7.8,12.2-20.2,12.2C184,287.2,177.5,284.6,177.5,278.5z M203.4,276.7c0-2.2-2.1-2.6-5.9-2.6h-4.3c-2.4,0-3.9-0.1-5.1-0.4
		c-1.7,1.1-2.4,2.1-2.4,3.3c0,2.5,3.3,3.8,8.6,3.8C199.7,280.8,203.4,279,203.4,276.7z M198.5,250.4c0-3.6-2.3-5.5-5.1-5.5
		c-2.8,0-5.1,2-5.1,5.5c0,3.7,2.3,5.6,5.1,5.6C196.2,256,198.5,254.1,198.5,250.4z"/>
	<path class="st1" d="M240.6,246.8H227V239h23.6v33.8h-10V246.8z M238.5,227.6c0-3.7,2.8-6.2,6.7-6.2s6.7,2.6,6.7,6.2
		c0,3.7-2.8,6.1-6.7,6.1S238.5,231.3,238.5,227.6z"/>
	<path class="st1" d="M281.2,258.8v-11.9h-8.5v-7.5l9-0.4l1.3-10.3h8.3V239h14.3v7.9h-14.3v11.8c0,5.1,2.2,7.1,7.1,7.1
		c2.5,0,4.7-0.5,6.7-1.2l1.8,7.3c-3,0.9-6.5,1.8-11,1.8C285,273.6,281.2,267.6,281.2,258.8z"/>
	<path class="st1" d="M321.2,263.4c0-7.6,6.3-11.4,22.2-12.4c-0.4-3-2.6-4.9-7.2-4.9c-3.3,0-6.5,1.3-10.3,3.2l-3.6-6.6
		c4.7-2.7,10.1-4.6,15.8-4.6c9.5,0,15.3,4.9,15.3,15.3v19.3h-8.2l-0.7-3.8h-0.3c-3.4,2.6-7.6,4.6-12,4.6
		C325.5,273.6,321.2,269.1,321.2,263.4z M343.4,262.6v-5.5c-9.9,0.5-12.6,2.7-12.6,5.5c0,2.2,1.8,3.2,4.7,3.2
		C338.5,265.8,341.1,264.5,343.4,262.6z"/>
	<path class="st1" d="M378.7,259.6v-26.7h-10.6V225h20.7V260c0,4.2,2.7,5.5,5.5,5.5c1.6,0,3.2-0.3,5.3-1.1l2.2,7.4
		c-3.5,1.1-5.9,1.8-10.1,1.8C383.2,273.6,378.7,268.1,378.7,259.6z"/>
	<path class="st1" d="M82.2,350.2l4.3-6.3c4.2,2.6,8.8,4,13.6,4c3.7,0,5.4-1.2,5.4-2.9c0-1.9-1.6-2.6-8.3-4
		c-9.2-2-12.8-5.3-12.8-10.6c0-6.3,5.9-10.6,15.5-10.6c6,0,11.1,2.4,14.6,4.6l-4.5,6c-3.4-2.1-7.3-3.2-11.1-3.2
		c-3.1,0-4.7,1.1-4.7,2.7c0,1.9,2.1,2.3,7.8,3.6c10.4,2.3,13.3,5.3,13.3,10.8c0,6.1-5.8,10.9-16.7,10.9
		C92.7,355.4,86.4,353,82.2,350.2z"/>
	<path class="st1" d="M130,337.6c0-11.1,8.5-17.7,17.6-17.7c10.4,0,15.9,7,15.9,16.2c0,1.8-0.3,3.7-0.4,4.5h-25.6v-6.7h18.9
		l-1.6,1.9c0-5.4-2.4-8.3-6.8-8.3c-5,0-8.2,3.4-8.2,10.1c0,7,3.8,10.1,10.4,10.1c3.1,0,5.7-0.8,8.7-2.3l3.3,6c-3.9,2.5-8.9,4-13.4,4
		C138.2,355.4,130,348.9,130,337.6z"/>
	<path class="st1" d="M181.8,320.7h8.2l0.8,7.4h0.2c3.3-5.5,8.3-8.2,13.7-8.2c2.9,0,4.5,0.5,6.5,1.4l-2,8.4c-2.1-0.7-3.5-1-6-1
		c-4.2,0-8.5,2.2-11.4,8.2v17.6h-10V320.7z"/>
	<path class="st1" d="M223.8,320.7h10.1l5.3,15.9c1.1,3.4,2,6.9,3,10.4h0.3c1-3.5,1.9-7,3-10.4l5.3-15.9h9.6L248,354.6h-11.5
		L223.8,320.7z"/>
	<path class="st1" d="M288.3,328.6h-13.6v-7.9h23.6v33.8h-10V328.6z M286.2,309.3c0-3.7,2.8-6.2,6.7-6.2c3.9,0,6.7,2.6,6.7,6.2
		c0,3.7-2.8,6.1-6.7,6.1C289,315.5,286.2,313,286.2,309.3z"/>
	<path class="st1" d="M321.6,337.7c0-11.3,9.1-17.7,19.5-17.7c5.3,0,9.8,1.9,12.7,4.6l-4.6,6.2c-2.6-1.9-4.9-2.7-7.5-2.7
		c-5.8,0-9.8,3.8-9.8,9.6c0,5.8,3.9,9.6,9.5,9.6c3.5,0,6.5-1.5,8.9-3.2l4,6.3c-4.1,3.4-9.3,5-13.9,5
		C329.8,355.4,321.6,348.9,321.6,337.7z"/>
	<path class="st1" d="M368.5,337.6c0-11.1,8.5-17.7,17.6-17.7c10.4,0,15.9,7,15.9,16.2c0,1.8-0.3,3.7-0.4,4.5h-25.6v-6.7h18.9
		l-1.6,1.9c0-5.4-2.4-8.3-6.8-8.3c-5,0-8.2,3.4-8.2,10.1c0,7,3.8,10.1,10.4,10.1c3.1,0,5.7-0.8,8.7-2.3l3.3,6c-3.9,2.5-8.9,4-13.4,4
		C376.7,355.4,368.5,348.9,368.5,337.6z"/>
	<path class="st1" d="M419.1,347.6l18.1-11.3V336l-18.1-11.3v-9.1l26.4,17.1v6.9l-26.4,17.1V347.6z"/>
</g>
</svg>
