<?xml version="1.0" encoding="utf-8"?>
<!-- Generator: Adobe Illustrator 22.0.0, SVG Export Plug-In . SVG Version: 6.00 Build 0)  -->
<svg version="1.1" id="Layer_1" xmlns="http://www.w3.org/2000/svg" xmlns:xlink="http://www.w3.org/1999/xlink" x="0px" y="0px"
	 viewBox="0 0 436 188" style="enable-background:new 0 0 436 188;" xml:space="preserve">
<style type="text/css">
	.st0{fill:#949494;}
</style>
<title>CHC001_finalbrand</title>
<path class="st0" d="M69,51.6c-2.9-0.1-5.7,0.6-8.2,2c-2.4,1.4-4.4,3.4-5.7,5.8C53.7,62,53,65,53.1,68c-0.1,3,0.6,6,2,8.6
	c1.3,2.4,3.2,4.4,5.5,5.8c2.4,1.4,5.2,2.1,8.1,2.1c2.8,0,5.6-0.5,8.2-1.5c2.3-0.9,4.4-2.4,6-4.4l4.7,4.8c-2.2,2.7-5,4.8-8.1,6.1
	c-3.5,1.5-7.3,2.2-11.2,2.1c-4.3,0.1-8.5-0.9-12.2-3c-3.5-2-6.4-4.9-8.3-8.4c-2-3.8-3.1-8-3-12.3c-0.1-4.3,1-8.6,3-12.4
	c1.9-3.6,4.8-6.5,8.3-8.5c3.7-2,7.9-3.1,12.2-3c3.7-0.1,7.3,0.6,10.7,1.8c3,1.1,5.8,2.9,8,5.3L82.4,57C78.8,53.5,74,51.5,69,51.6z"
	/>
<path class="st0" d="M137.3,49c3.1,3.2,4.7,7.7,4.7,13.4v29.1h-8.3V64.7c0-4-1.1-7.1-3.3-9.3s-5.3-3.3-9.2-3.4
	c-4.6,0.1-8.2,1.6-10.9,4.6c-2.7,3-4,6.9-4,11.8v23.2H98v-66h8.3v29.1c3.1-6.8,9.1-10.3,18-10.4C129.8,44.2,134.2,45.8,137.3,49z"/>
<path class="st0" d="M192.2,50.7c3.7,4.3,5.6,10.3,5.6,17.9c0,1.2,0,2.1-0.1,2.7h-37.2c0.5,3.9,2.4,7.5,5.3,10.1
	c3,2.5,6.7,3.9,10.6,3.7c2.7,0,5.3-0.5,7.8-1.5c2.4-1,4.5-2.4,6.3-4.3L195,84c-2.3,2.5-5.2,4.5-8.4,5.8c-3.5,1.4-7.1,2.1-10.9,2
	c-4.3,0.1-8.5-1-12.3-3c-3.5-1.9-6.4-4.9-8.4-8.4c-2-3.8-3.1-8.1-3-12.4c-0.1-4.3,1-8.5,3-12.3c1.9-3.5,4.8-6.5,8.3-8.5
	c3.7-2.1,7.9-3.1,12.2-3.1C183,44.2,188.5,46.4,192.2,50.7z M190.4,64.8c-0.2-4.3-1.7-7.6-4.3-10.1S180,51,175.8,51
	c-3.8-0.1-7.5,1.2-10.4,3.7c-2.8,2.6-4.6,6.2-4.9,10.1H190.4z"/>
<path class="st0" d="M240.3,91.6l-15-22.9l-9.2,9.5v13.3h-8.3v-66h8.3v42.1l22.8-23.1h9.7L231,62.7l19.2,28.8L240.3,91.6L240.3,91.6
	z"/>
<path class="st0" d="M69.9,122.1c-3.1-0.1-6,1.1-8.1,3.4c-2.2,2.5-3.3,5.7-3.1,9c-0.1,3.3,1,6.5,3.1,9.1c2,2.3,4.9,3.6,7.9,3.5
	c4.8,0,8.4-1.8,10.8-5.4l9.1,6.2c-1.9,3.3-4.8,5.9-8.2,7.6c-3.8,1.8-8.1,2.7-12.3,2.6c-4.3,0.1-8.5-0.9-12.3-2.9
	c-3.5-1.9-6.4-4.8-8.3-8.3c-2-3.8-3.1-8-3-12.3c-0.1-4.3,1-8.6,3-12.4c1.9-3.5,4.8-6.4,8.3-8.3c3.8-2,8.1-3.1,12.4-3
	c4.1-0.1,8.1,0.8,11.8,2.5c3.3,1.6,6.2,4.1,8.3,7.2l-9,6.4C77.7,123.8,73.9,122,69.9,122.1z"/>
<path class="st0" d="M117.3,113.1c2.8-1.5,5.9-2.3,9-2.3v12.5c-0.7-0.1-1.4-0.1-2.1-0.1c-4.1,0-7.3,1.1-9.7,3.3
	c-2.4,2.3-3.7,5.5-3.6,8.8v22.3H97.8v-46.3H111v8.3C112.5,116.9,114.6,114.6,117.3,113.1z"/>
<path class="st0" d="M172.1,117.3c3.9,4.3,5.8,10.3,5.8,18c0,1.4,0,2.4-0.1,3.2h-33.2c1.2,5.6,6.3,9.5,12,9.3c2.2,0,4.3-0.4,6.3-1.2
	s3.9-2.1,5.4-3.7l7,7c-2.4,2.6-5.3,4.7-8.6,6.1c-3.6,1.4-7.4,2.2-11.2,2.1c-4.4,0.1-8.8-0.9-12.8-2.9c-3.6-1.9-6.5-4.7-8.4-8.3
	c-4-7.8-4-17,0-24.7c2-3.5,4.9-6.4,8.4-8.3c3.8-2,8.1-3.1,12.4-3C162.6,110.8,168.3,113,172.1,117.3z M165.5,130.6
	c0-2.7-1-5.3-2.9-7.3c-2-1.9-4.6-2.9-7.3-2.8c-2.7-0.1-5.2,0.9-7.2,2.7c-2,2-3.3,4.6-3.6,7.3h21V130.6z"/>
<path class="st0" d="M215.2,157.6v-5.4c-1.6,2-3.6,3.5-6,4.5c-2.7,1.1-5.6,1.6-8.5,1.6c-4.9,0-8.7-1.3-11.6-4
	c-2.9-2.7-4.5-6.5-4.3-10.4c-0.2-3.9,1.5-7.7,4.6-10.2c3.1-2.4,7.4-3.7,13-3.7h12.7v-0.9c0.1-2.2-0.8-4.3-2.4-5.7
	c-1.6-1.3-4-2-7.2-2c-4.3,0-8.9,1.3-13.8,4l-4.1-9.1c3.3-1.7,6.8-3,10.3-4c3.5-0.9,7-1.3,10.6-1.3c6.2,0,11,1.5,14.4,4.4
	s5.1,7,5.2,12.2l0.1,30.2L215.2,157.6z M211.5,146.7c1.8-1.1,3.2-2.9,3.6-5v-4.1h-10.4c-2-0.1-4,0.3-5.7,1.2c-1.3,0.9-2,2.4-1.9,4
	c-0.1,1.6,0.7,3.2,1.9,4.3c1.5,1.1,3.4,1.7,5.3,1.6C206.9,148.7,209.3,148.1,211.5,146.7z"/>
<path class="st0" d="M267.4,155c-1.8,1.1-3.7,1.9-5.7,2.4c-2.1,0.5-4.2,0.8-6.3,0.8c-3.8,0.2-7.6-1.2-10.5-3.7c-2.7-2.5-4-6-4-10.6
	v-21.4h-6.4v-9.1h6.4v-12.7H254v12.7h12.5v9.2H254v19.1c0,3.6,1.4,5.3,4.2,5.3c2.3-0.1,4.5-0.7,6.5-1.7L267.4,155z"/>
<path id="pre-loader-text-i" class="st0" d="M288.8,78.8c2.7,3,2.7,7.6,0,10.7c-1.4,1.4-3.3,2.1-5.2,2.1c-1.9,0.1-3.8-0.7-5.1-2.1
	c-2.7-3-2.7-7.6,0-10.6c1.3-1.4,3.2-2.1,5.1-2.1C285.6,76.7,287.5,77.4,288.8,78.8z"/>
<path class="st0" d="M277.1,111.3h13.2v46.3h-13.2V111.3z"/>
<path class="st0" d="M298.2,111.4l13.7-0.1l10.9,33.7l10.8-33.7h13.2l-17.5,46.3h-13.6L298.2,111.4z"/>
<path class="st0" d="M388.6,117.3c3.9,4.3,5.8,10.3,5.8,18c0,1.4,0,2.4-0.1,3.2h-33.2c1.2,5.6,6.3,9.5,12,9.3c2.2,0,4.3-0.4,6.3-1.2
	s3.9-2.1,5.4-3.7l7,7c-2.4,2.6-5.3,4.7-8.6,6.1c-3.6,1.4-7.4,2.2-11.2,2.1c-4.4,0.1-8.8-0.9-12.8-2.9c-3.6-1.9-6.5-4.7-8.4-8.3
	c-4-7.8-4-17,0-24.7c2-3.5,4.9-6.4,8.4-8.3c3.8-2,8.1-3.1,12.4-3C379.1,110.8,384.7,113,388.6,117.3z M381.9,130.6
	c0-2.7-1-5.3-2.9-7.3c-2-1.9-4.6-2.9-7.3-2.8c-2.7-0.1-5.2,0.9-7.2,2.7c-2,2-3.3,4.6-3.7,7.3h21.1V130.6z"/>
</svg>
