<?xml version="1.0" encoding="utf-8"?>
<!-- Generator: Adobe Illustrator 22.0.0, SVG Export Plug-In . SVG Version: 6.00 Build 0)  -->
<svg version="1.1" id="Layer_1" xmlns="http://www.w3.org/2000/svg" xmlns:xlink="http://www.w3.org/1999/xlink" x="0px" y="0px"
	 viewBox="0 0 3849.9 2000" style="enable-background:new 0 0 3849.9 2000;" xml:space="preserve">
<style type="text/css">
	.st0{fill:#949494;}
	.st1{enable-background:new    ;}
</style>
<path class="st0" d="M1827.2,736.7l-600.4-600.4L963,400.1L699.2,136.3L98.8,736.7l263.8,263.8L98.8,1264.3l600.4,600.4L963,1600.9
	l263.8,263.8l600.4-600.4l-263.8-263.8L1827.2,736.7z M1476.3,1087.6l176.7,176.7l-426.2,426.2l-176.7-176.7l-87.1-87.1l-87.1,87.1
	l-176.7,176.7l-426.2-426.2l176.7-176.7l87.1-87.1l-87.1-87.1L272.9,736.7l426.2-426.2l176.7,176.7l87.1,87.1l87.1-87.1l176.7-176.7
	L1653,736.7l-176.7,176.7l-87.1,87.1L1476.3,1087.6z"/>
<path class="st0" d="M1320.8,1011.2c0-107.3-70.9-211.9-176.1-216.9l0,0H938.3c-20.4,0-37,16.6-37,37l0,0c0,20.4,16.6,37,37,37
	h133.1c4.4,0,8,3.6,8,8l0,0c0,4.4-3.6,8-8,8H686.9c-20.4,0-37,16.6-37,37l0,0c0,20.4,16.6,37,37,37h202.4c4.4,0,8,3.6,8,8l0,0
	c0,4.4-3.6,8-8,8H639c-20.4,0-37,16.6-37,37l0,0c0,20.4,16.6,37,37,37h250.3c4.4,0,8,3.6,8,8l0,0c0,4.4-3.6,8-8,8H686.2
	c-20.4,0-37,16.6-37,37h-1.3c0,20.4,17.8,37,38.3,37h222.6c4.4,0,8,3.6,8,8l0,0c0,4.4-3.6,8-8,8h-91.3c-20.4,0-37,16.6-37,37l0,0
	c0,20.4,16.6,37,37,37h306.3v-0.5C1233.8,1219.8,1320.8,1125.9,1320.8,1011.2z"/>
<g class="st1">
	<path class="st0" d="M2020.3,901.8c-13.2,13.4-29,19.4-48.2,19.4c-18.2,0-33.6-6.2-46.1-18.7c-7.4-7.4-12-16.1-13.9-25.7
		s-2.9-23.8-2.9-42.5s1-32.9,2.9-42.5c1.9-9.8,6.5-18.2,13.9-25.7c12.5-12.5,27.8-18.7,46.1-18.7c38.9,0,59.8,25,64.3,54.7h-33.6
		c-4.1-16.6-14.2-25-30.7-25c-8.9,0-16.1,3.1-21.4,9.1c-6.2,7.9-8.2,14.2-8.2,48c0,33.6,1.4,40.3,8.2,48.2c5,6,12.2,8.9,21.4,8.9
		c9.8,0,17.8-3.1,23.8-9.6c5-5.8,7.7-13.4,7.7-22.8v-6.5h-31.4v-27.8h64.6v25C2036.6,874.6,2032.1,889.3,2020.3,901.8z"/>
	<path class="st0" d="M2082.7,919.8V748.9h33.4v170.9H2082.7z"/>
	<path class="st0" d="M2232.9,919.8h-25l-56.4-170.9h34.6l34.3,111.4l34.3-111.4h34.8L2232.9,919.8z"/>
	<path class="st0" d="M2325.1,919.8V748.9h112.6v29.8h-79.2v40.1h67.4v29.8h-67.4V890h79.2v29.8H2325.1z"/>
</g>
<g class="st1">
	<path class="st0" d="M1972.1,922.7c-18.6,0-34.4-6.5-47.1-19.2c-7.5-7.5-12.3-16.4-14.3-26.5c-1.9-9.7-2.9-24-2.9-42.8
		c0-18.7,1-33.1,2.9-42.8c2-10.1,6.7-18.8,14.3-26.5c12.7-12.7,28.6-19.2,47.1-19.2c18.5,0,34.4,5.7,46.1,16.6
		c10.5,9.8,17.3,23.4,19.8,39.4l0.3,1.7h-36.5l-0.3-1.1c-3.9-16-13.5-23.8-29.3-23.8c-8.4,0-15.2,2.9-20.2,8.6
		c-5.8,7.3-7.8,12.9-7.8,47c0,32.4,1.2,39.5,7.8,47.3c4.7,5.5,11.5,8.3,20.2,8.3c9.6,0,17-3,22.7-9.1c4.8-5.5,7.3-12.8,7.3-21.8v-5
		h-31.4v-30.8h67.6v26.5c0,25.4-4.7,40.3-16.7,53.1l0,0C2008.2,916.2,1992.1,922.7,1972.1,922.7z M1972.1,748.9
		c-17.7,0-32.9,6.2-45,18.3c-7.2,7.2-11.7,15.4-13.5,24.9c-1.9,9.5-2.8,23.7-2.8,42.2c0,18.5,1,32.7,2.8,42.2s6.4,17.8,13.5,24.9
		c12.1,12.1,27.3,18.3,45,18.3c19.2,0,34.6-6.2,47.2-19c11.4-12.2,15.9-26.5,15.9-51v-23.5h-61.6v24.8h31.4v8
		c0,9.7-2.7,17.7-8.1,23.8c-6.2,6.7-14.6,10.1-24.9,10.1c-9.7,0-17.3-3.2-22.5-9.4c-7.2-8.5-8.5-15.9-8.5-49.2
		c0-33.4,1.8-40.5,8.5-48.9c5.7-6.5,13.2-9.7,22.5-9.7c16.7,0,27.4,8.4,31.9,25h30.7c-2.6-14.6-8.9-27-18.6-35.9
		C2004.8,754.2,1990,748.9,1972.1,748.9z"/>
	<path class="st0" d="M2117.6,921.3h-36.4V747.4h36.4V921.3z M2084.2,918.3h30.4V750.4h-30.4V918.3z"/>
	<path class="st0" d="M2234,921.3h-27.1l-57.4-173.9h37.7l33.2,107.8l33.2-107.8h38L2234,921.3z M2209.1,918.3h22.8l55.6-167.9
		h-31.6l-35.4,115l-35.4-115h-31.4L2209.1,918.3z"/>
	<path class="st0" d="M2439.1,921.3h-115.6V747.4h115.6v32.8h-79.2v37.1h67.4V850h-67.4v38.5h79.2V921.3z M2326.6,918.3h109.6v-26.8
		H2357V847h67.4v-26.8H2357v-43.1h79.2v-26.8h-109.6V918.3z"/>
</g>
<g class="st1">
	<path class="st0" d="M2559.6,919.8H2488V748.9h68.6c33.4,0,52.8,18.7,52.8,48c0,19-12.5,31.2-21.1,35.3
		c10.3,4.8,23.5,15.6,23.5,38.4C2611.9,902.5,2590,919.8,2559.6,919.8z M2554,778.6h-32.6V818h32.6c14.2,0,22.1-7.9,22.1-19.7
		S2568.2,778.6,2554,778.6z M2556.2,848h-34.8v42h34.8c15.1,0,22.3-9.6,22.3-21.1S2571.3,848,2556.2,848z"/>
</g>
<g class="st1">
	<path class="st0" d="M2559.6,921.3h-73V747.4h70.1c33.5,0,54.3,19,54.3,49.5c0,16.6-9.6,29.4-19.4,35.2c9.1,5,21.8,16,21.8,38.4
		C2613.4,901.8,2592.8,921.3,2559.6,921.3z M2489.5,918.3h70c31.4,0,50.8-18.3,50.8-47.7c0-21.9-12.3-32.2-22.6-37l-2.9-1.3l2.9-1.4
		c7-3.3,20.3-14.7,20.3-33.9c0-29.1-19.2-46.5-51.3-46.5h-67.1L2489.5,918.3L2489.5,918.3z M2556.2,891.5h-36.3v-45h36.3
		c14.5,0,23.8,8.8,23.8,22.4C2580,882.6,2570.7,891.5,2556.2,891.5z M2522.9,888.5h33.3c15.4,0,20.8-10.1,20.8-19.6
		c0-14.3-10.8-19.4-20.8-19.4h-33.3V888.5z M2554,819.5h-34.1v-42.4h34.1c14.5,0,23.6,8.1,23.6,21.2S2568.6,819.5,2554,819.5z
		 M2522.9,816.5h31.1c12.9,0,20.6-6.8,20.6-18.2s-7.7-18.2-20.6-18.2h-31.1V816.5z"/>
</g>
<g class="st1">
	<path class="st0" d="M2744.4,919.8l-10.1-30.2h-60.7l-10.3,30.2h-34.8l62.2-170.9h26.2l62.4,170.9H2744.4z M2704.5,799.3
		l-21.6,62.2h42.5L2704.5,799.3z"/>
</g>
<g class="st1">
	<path class="st0" d="M2781.3,921.3h-38l-10.1-30.2h-58.6l-10.3,30.2h-38l63.2-173.9h28.3l0.4,1L2781.3,921.3z M2745.4,918.3h31.6
		l-61.3-167.9h-24.1l-61.1,167.9h31.6l10.3-30.2h62.9L2745.4,918.3z M2727.5,862.9h-46.7l23.7-68.3L2727.5,862.9z M2685,859.9h38.3
		l-18.8-56L2685,859.9z"/>
</g>
<g class="st1">
	<path class="st0" d="M2856.2,921.2c-18.2,0-33.6-6.2-46.1-18.7c-7.4-7.4-12-16.1-13.9-25.7s-2.9-23.8-2.9-42.5s1-32.9,2.9-42.5
		c1.9-9.8,6.5-18.2,13.9-25.7c12.5-12.5,27.8-18.7,46.1-18.7c32.9,0,57.1,19.2,62.9,54h-33.8c-3.6-14.6-12.7-24.2-28.8-24.2
		c-9.1,0-16.3,2.9-21.4,8.9c-7,7.4-8.4,15.1-8.4,48.2s1.4,40.8,8.4,48.2c5,6,12.2,8.9,21.4,8.9c16.1,0,25.2-9.6,28.8-24.2h33.8
		C2913.3,902,2888.8,921.2,2856.2,921.2z"/>
</g>
<g class="st1">
	<path class="st0" d="M2856.2,922.7c-18.6,0-34.4-6.5-47.1-19.2c-7.5-7.5-12.3-16.4-14.3-26.5c-1.9-9.7-2.9-24-2.9-42.8
		s1-33.1,2.9-42.8c2-10.1,6.7-18.8,14.3-26.5c12.7-12.7,28.6-19.2,47.1-19.2c34.6,0,58.6,20.7,64.4,55.3l0.3,1.8h-36.8l-0.3-1.1
		c-2.6-10.5-9.4-23.1-27.3-23.1c-8.8,0-15.6,2.8-20.2,8.3c-6.7,7.2-8.1,15.1-8.1,47.3c0,32.2,1.3,40.1,8,47.2
		c4.7,5.6,11.5,8.4,20.3,8.4c17.9,0,24.8-12.6,27.3-23.1l0.3-1.1h36.8l-0.3,1.8C2914.8,902,2890.8,922.7,2856.2,922.7z
		 M2856.2,748.9c-17.7,0-32.9,6.2-45,18.3c-7.2,7.2-11.6,15.4-13.5,24.9c-1.9,9.5-2.9,23.7-2.9,42.2s1,32.7,2.9,42.2
		c1.9,9.5,6.4,17.8,13.5,24.9c12.1,12.1,27.3,18.3,45,18.3c32.4,0,55.1-19,61.1-51h-30.9c-4.3,15.9-14.6,24.2-30,24.2
		c-9.7,0-17.3-3.2-22.5-9.4c-7.3-7.8-8.8-16.1-8.8-49.2s1.5-41.4,8.8-49.3c5.2-6.2,12.8-9.4,22.5-9.4c15.4,0,25.7,8.4,30,24.2h30.9
		C2911.3,768,2888.6,748.9,2856.2,748.9z"/>
</g>
<g class="st1">
	<path class="st0" d="M3048.4,919.8l-43.9-77.8l-22.1,26.4v51.4h-33.4V748.9h33.4v74.4l60.2-74.4h40.6l-56.6,67.9l60.7,103H3048.4z"
		/>
	<path class="st0" d="M3214.8,919.8v-71.5h-57.8v71.5h-33.4V748.9h33.4v69.8h57.8v-69.8h33.4v170.9H3214.8z"/>
</g>
<g class="st1">
	<path class="st0" d="M3089.9,921.3h-42.4l-0.4-0.8l-42.9-75.9l-20.3,24.3v52.3h-36.4V747.4h36.4V819l58-71.7h44.5l-58,69.6
		L3089.9,921.3z M3049.3,918.3h35.4l-59.9-101.6l55.3-66.3h-36.6l-62.5,77.1v-77.1h-30.4v167.9h30.4v-50.4l23.8-28.5L3049.3,918.3z"
		/>
	<path class="st0" d="M3249.6,921.3h-36.4v-71.5h-54.8v71.5h-36.4V747.4h36.4v69.8h54.8v-69.8h36.4V921.3z M3216.3,918.3h30.4V750.4
		h-30.4v69.8h-60.8v-69.8h-30.4v167.9h30.4v-71.5h60.8V918.3z"/>
</g>
<g class="st1">
	<path class="st0" d="M3401.5,919.8l-10.1-30.2h-60.7l-10.3,30.2h-34.8l62.2-170.9h26.2l62.4,170.9H3401.5z M3361.6,799.3
		l-21.6,62.2h42.5L3361.6,799.3z"/>
</g>
<g class="st1">
	<path class="st0" d="M3438.4,921.3h-38l-10.1-30.2h-58.6l-10.3,30.2h-38l63.2-173.9h28.3l0.4,1L3438.4,921.3z M3402.6,918.3h31.6
		l-61.3-167.9h-24.1l-61.1,167.9h31.6l10.3-30.2h62.9L3402.6,918.3z M3384.6,862.9h-46.7l23.7-68.3L3384.6,862.9z M3342.1,859.9
		h38.3l-18.8-56L3342.1,859.9z"/>
</g>
<g class="st1">
	<path class="st0" d="M3518.1,921.2c-18.2,0-33.6-6.2-46.1-18.7c-7.4-7.4-12-16.1-13.9-25.7s-2.9-23.8-2.9-42.5s1-32.9,2.9-42.5
		c1.9-9.8,6.5-18.2,13.9-25.7c12.5-12.5,27.8-18.7,46.1-18.7c32.9,0,57.1,19.2,62.9,54h-33.8c-3.6-14.6-12.7-24.2-28.8-24.2
		c-9.1,0-16.3,2.9-21.4,8.9c-7,7.4-8.4,15.1-8.4,48.2s1.4,40.8,8.4,48.2c5,6,12.2,8.9,21.4,8.9c16.1,0,25.2-9.6,28.8-24.2h33.8
		C3575.2,902,3550.8,921.2,3518.1,921.2z"/>
	<path class="st0" d="M3724,919.8l-43.9-77.8l-22.1,26.4v51.4h-33.4V748.9h33.4v74.4l60.2-74.4h40.6l-56.6,67.9l60.7,103H3724z"/>
</g>
<g class="st1">
	<path class="st0" d="M3518.1,922.7c-18.6,0-34.4-6.5-47.1-19.2c-7.5-7.5-12.3-16.4-14.3-26.5c-1.9-9.7-2.9-24-2.9-42.8
		s1-33.1,2.9-42.8c2-10.1,6.7-18.8,14.3-26.5c12.7-12.7,28.6-19.2,47.1-19.2c34.6,0,58.6,20.7,64.4,55.3l0.3,1.8H3546l-0.3-1.1
		c-2.6-10.5-9.4-23.1-27.3-23.1c-8.8,0-15.6,2.8-20.2,8.3c-6.7,7.2-8.1,15.1-8.1,47.3c0,32.2,1.3,40.1,8,47.2
		c4.7,5.6,11.5,8.4,20.3,8.4c17.9,0,24.8-12.6,27.3-23.1l0.3-1.1h36.8l-0.3,1.8C3576.8,902,3552.7,922.7,3518.1,922.7z
		 M3518.1,748.9c-17.7,0-32.9,6.2-45,18.3c-7.2,7.2-11.6,15.4-13.5,24.9c-1.9,9.5-2.9,23.7-2.9,42.2s1,32.7,2.9,42.2
		c1.9,9.5,6.4,17.8,13.5,24.9c12.1,12.1,27.3,18.3,45,18.3c32.4,0,55.1-19,61.1-51h-30.9c-4.3,15.9-14.6,24.2-30,24.2
		c-9.7,0-17.3-3.2-22.5-9.4c-7.3-7.8-8.8-16.1-8.8-49.2s1.5-41.4,8.8-49.3c5.2-6.2,12.8-9.4,22.5-9.4c15.4,0,25.7,8.4,30,24.2h30.9
		C3573.2,768,3550.5,748.9,3518.1,748.9z"/>
	<path class="st0" d="M3765.5,921.3h-42.4l-0.4-0.8l-42.9-75.9l-20.3,24.3v52.3h-36.4V747.4h36.4V819l58-71.7h44.5l-58,69.6
		L3765.5,921.3z M3724.9,918.3h35.4l-59.9-101.6l55.3-66.3H3719l-62.5,77.1v-77.1h-30.4v167.9h30.4v-50.4l23.8-28.5L3724.9,918.3z"
		/>
</g>
<g class="st1">
	<path class="st0" d="M1972.1,1192.2c-18.2,0-33.6-6.2-46.1-18.7c-7.4-7.4-12-16.1-13.9-25.7c-1.9-9.6-2.9-23.8-2.9-42.5
		s1-32.9,2.9-42.5c1.9-9.8,6.5-18.2,13.9-25.7c12.5-12.5,27.8-18.7,46.1-18.7c32.9,0,57.1,19.2,62.9,54h-33.8
		c-3.6-14.6-12.7-24.2-28.8-24.2c-9.1,0-16.3,2.9-21.4,8.9c-7,7.4-8.4,15.1-8.4,48.2s1.4,40.8,8.4,48.2c5,6,12.2,8.9,21.4,8.9
		c16.1,0,25.2-9.6,28.8-24.2h33.8C2029.2,1173,2004.7,1192.2,1972.1,1192.2z"/>
</g>
<g class="st1">
	<path class="st0" d="M1972.1,1193.7c-18.6,0-34.4-6.4-47.1-19.2c-7.5-7.5-12.3-16.4-14.3-26.4c-1.9-9.7-2.9-24-2.9-42.8
		c0-18.7,1-33.1,2.9-42.8c2-10.1,6.7-18.8,14.3-26.4c12.7-12.7,28.6-19.2,47.1-19.2c34.6,0,58.6,20.7,64.4,55.3l0.3,1.8h-36.8
		l-0.3-1.1c-2.6-10.5-9.4-23.1-27.3-23.1c-8.8,0-15.6,2.8-20.2,8.3c-6.7,7.2-8.1,15.1-8.1,47.3s1.3,40.1,8,47.2
		c4.7,5.6,11.5,8.4,20.3,8.4c17.9,0,24.8-12.6,27.3-23.1l0.3-1.1h36.8l-0.3,1.8C2030.7,1173,2006.6,1193.7,1972.1,1193.7z
		 M1972.1,1019.9c-17.7,0-32.9,6.1-45,18.3c-7.2,7.2-11.7,15.4-13.5,24.9c-1.9,9.5-2.8,23.7-2.8,42.2c0,18.5,1,32.7,2.8,42.2
		s6.4,17.8,13.5,24.9c12.1,12.1,27.3,18.3,45,18.3c32.4,0,55.1-19,61.1-51h-30.9c-4.3,15.9-14.6,24.2-30,24.2
		c-9.7,0-17.3-3.2-22.5-9.4c-7.3-7.8-8.8-16.1-8.8-49.2c0-33.2,1.5-41.4,8.8-49.3c5.2-6.2,12.8-9.4,22.5-9.4
		c15.3,0,25.7,8.4,30,24.2h30.9C2027.2,1039,2004.4,1019.9,1972.1,1019.9z"/>
</g>
<g class="st1">
	<path class="st0" d="M2177.7,1173.5c-12,12-26.6,18.7-46.1,18.7s-34.3-6.7-46.3-18.7c-17.3-17.3-16.8-38.6-16.8-68.2
		s-0.5-50.9,16.8-68.2c12-12,26.9-18.7,46.3-18.7s34.1,6.7,46.1,18.7c17.3,17.3,17,38.6,17,68.2S2195,1156.2,2177.7,1173.5z
		 M2153,1057.3c-4.8-5.5-12.2-9.1-21.4-9.1s-16.8,3.6-21.6,9.1c-6.5,7.2-8.2,15.1-8.2,48s1.7,40.8,8.2,48c4.8,5.5,12.5,9.1,21.6,9.1
		s16.6-3.6,21.4-9.1c6.5-7.2,8.4-15.1,8.4-48S2159.5,1064.5,2153,1057.3z"/>
</g>
<g class="st1">
	<path class="st0" d="M2131.6,1193.7c-19,0-34.5-6.3-47.4-19.2c-17.3-17.3-17.2-38.1-17.2-66.9v-2.3v-2.3c0-28.8,0-49.6,17.2-66.9
		c12.9-12.9,28.4-19.2,47.4-19.2c18.8,0,34.2,6.3,47.1,19.2c17.5,17.5,17.5,38.7,17.5,68v2.4c0,29.3,0,50.5-17.5,68
		C2165.9,1187.4,2150.5,1193.7,2131.6,1193.7z M2131.6,1019.9c-18.1,0-33,6-45.3,18.3c-16.4,16.4-16.4,36.7-16.4,64.8v2.3v2.3
		c0,28.1,0,48.4,16.4,64.8c12.3,12.3,27.1,18.3,45.3,18.3c18,0,32.7-6,45-18.3c16.6-16.6,16.6-37.3,16.6-65.9v-2.4
		c0-28.6,0-49.3-16.6-65.9C2164.4,1025.9,2149.6,1019.9,2131.6,1019.9z M2131.6,1163.9c-9.1,0-17.4-3.5-22.7-9.6
		c-7-7.8-8.5-16.5-8.5-49c0-32.5,1.5-41.2,8.5-49c5.3-6.1,13.6-9.6,22.7-9.6c9.1,0,17.1,3.4,22.5,9.6c6.7,7.4,8.8,15.2,8.8,49
		c0,33.8-2.1,41.6-8.8,49C2148.7,1160.5,2140.8,1163.9,2131.6,1163.9z M2131.6,1049.7c-8.2,0-15.7,3.1-20.5,8.6
		c-6,6.7-7.8,13.7-7.8,47c0,33.3,1.8,40.3,7.8,47c4.8,5.5,12.2,8.6,20.5,8.6c8.2,0,15.4-3.1,20.2-8.6c6.1-6.8,8-14.2,8-47
		s-1.9-40.2-8-47l0,0C2147.1,1052.8,2139.9,1049.7,2131.6,1049.7z"/>
</g>
<g class="st1">
	<path class="st0" d="M2236.5,1190.8v-170.9h33.4V1161h77.5v29.8H2236.5z"/>
</g>
<g class="st1">
	<path class="st0" d="M2348.9,1192.3H2235v-173.9h36.4v141.1h77.5L2348.9,1192.3L2348.9,1192.3z M2238,1189.3h107.9v-26.8h-77.5
		v-141.1H2238L2238,1189.3L2238,1189.3z"/>
</g>
<g class="st1">
	<path class="st0" d="M2436,1192.2c-35,0-62.9-23.8-62.9-60v-112.3h33.4V1131c0,19.7,11.5,31.4,29.5,31.4s29.8-11.8,29.8-31.4
		v-111.1h33.1v112.3C2498.9,1168.4,2471,1192.2,2436,1192.2z"/>
	<path class="st0" d="M2672.4,1190.8v-99.6l-32.6,64.8h-22.6l-32.9-64.8v99.6h-33.4v-170.9h32.9l44.6,92.4l44.4-92.4h32.9v170.9
		H2672.4z"/>
</g>
<g class="st1">
	<path class="st0" d="M2436,1193.7c-37.3,0-64.4-25.9-64.4-61.5v-113.8h36.4V1131c0,18.5,10.7,29.9,28,29.9
		c17.4,0,28.3-11.5,28.3-29.9v-112.6h36.1v113.8C2500.4,1167.8,2473.3,1193.7,2436,1193.7z M2374.6,1021.4v110.8
		c0,33.9,25.8,58.5,61.4,58.5s61.4-24.6,61.4-58.5v-110.8h-30.1V1131c0,20.3-12,32.9-31.3,32.9c-19.1,0-31-12.6-31-32.9v-109.6
		H2374.6z"/>
	<path class="st0" d="M2707.2,1192.3h-36.4v-94.8l-30.2,60h-24.4l-30.5-60v94.8h-36.4v-173.9h35.3l43.7,90.4l43.5-90.5h35.3
		L2707.2,1192.3L2707.2,1192.3z M2673.9,1189.3h30.4v-167.9h-30.4l-45.3,94.4l-45.6-94.4h-30.4v167.9h30.4v-104.4l35.3,69.6h20.7
		l35.1-69.6L2673.9,1189.3L2673.9,1189.3z"/>
</g>
<g class="st1">
	<path class="st0" d="M2833.4,1190.8h-71.5v-170.9h68.6c33.4,0,52.8,18.7,52.8,48c0,19-12.5,31.2-21.1,35.3
		c10.3,4.8,23.5,15.6,23.5,38.4C2885.7,1173.5,2863.9,1190.8,2833.4,1190.8z M2827.9,1049.6h-32.6v39.4h32.6
		c14.2,0,22.1-7.9,22.1-19.7C2850,1057.6,2842,1049.6,2827.9,1049.6z M2830,1119h-34.8v42h34.8c15.1,0,22.3-9.6,22.3-21.1
		S2845.2,1119,2830,1119z"/>
</g>
<g class="st1">
	<path class="st0" d="M2833.4,1192.3h-73v-173.9h70.1c33.5,0,54.3,19,54.3,49.5c0,16.6-9.6,29.4-19.4,35.2c9.1,5,21.8,16,21.8,38.4
		C2887.2,1172.8,2866.6,1192.3,2833.4,1192.3z M2763.4,1189.3h70c31.4,0,50.8-18.3,50.8-47.7c0-21.9-12.3-32.2-22.6-37l-2.9-1.3
		l2.9-1.4c7-3.3,20.3-14.7,20.3-33.9c0-29.1-19.2-46.5-51.3-46.5h-67.1L2763.4,1189.3L2763.4,1189.3z M2830,1162.5h-36.3v-45h36.3
		c14.5,0,23.8,8.8,23.8,22.4C2853.9,1153.6,2844.5,1162.5,2830,1162.5z M2796.7,1159.5h33.3c15.4,0,20.8-10.1,20.8-19.6
		c0-14.3-10.8-19.4-20.8-19.4h-33.3V1159.5z M2827.9,1090.5h-34.1v-42.4h34.1c14.5,0,23.6,8.1,23.6,21.2
		S2842.4,1090.5,2827.9,1090.5z M2796.7,1087.5h31.1c12.9,0,20.6-6.8,20.6-18.2s-7.7-18.2-20.6-18.2h-31.1V1087.5z"/>
</g>
<g class="st1">
	<path class="st0" d="M2987,1192.2c-35,0-62.9-23.8-62.9-60v-112.3h33.4V1131c0,19.7,11.5,31.4,29.5,31.4s29.8-11.8,29.8-31.4
		v-111.1h33.1v112.3C3049.9,1168.4,3022,1192.2,2987,1192.2z"/>
</g>
<g class="st1">
	<path class="st0" d="M2987,1193.7c-37.3,0-64.4-25.9-64.4-61.5v-113.8h36.4V1131c0,18.5,10.7,29.9,28,29.9
		c17.4,0,28.3-11.5,28.3-29.9v-112.6h36.1v113.8C3051.4,1167.8,3024.3,1193.7,2987,1193.7z M2925.6,1021.4v110.8
		c0,33.9,25.8,58.5,61.4,58.5c35.6,0,61.4-24.6,61.4-58.5v-110.8h-30.1V1131c0,20.3-12,32.9-31.3,32.9c-19.1,0-31-12.6-31-32.9
		v-109.6H2925.6z"/>
</g>
<g class="st1">
	<path class="st0" d="M3140.1,1192.2c-25.9,0-45.6-5.5-62.4-22.6l21.6-21.6c10.8,10.8,25.4,14.4,41.3,14.4
		c19.7,0,30.2-7.4,30.2-21.1c0-6-1.7-11-5.3-14.4c-3.4-3.1-7.2-4.8-15.1-6l-20.6-2.9c-14.6-2.2-25.4-6.7-33.1-14.2
		c-8.2-8.2-12.2-19.2-12.2-33.6c0-30.5,22.6-51.8,59.5-51.8c23.5,0,40.6,5.8,55.2,19.9l-21.1,20.9c-10.8-10.3-23.8-11.8-35-11.8
		c-17.8,0-26.4,9.8-26.4,21.6c0,4.3,1.4,8.9,5,12.2c3.4,3.1,8.9,5.8,15.8,6.7l20.2,2.9c15.6,2.2,25.4,6.5,32.6,13.2
		c9.1,8.6,13.2,21.1,13.2,36.2C3203.5,1173.5,3175.9,1192.2,3140.1,1192.2z"/>
</g>
<g class="st1">
	<path class="st0" d="M3140.1,1193.7c-28.6,0-47.6-6.9-63.5-23l-1.1-1.1l23.7-23.7l1.1,1.1c9.4,9.4,22.6,14,40.2,14
		c13.1,0,28.7-3.4,28.7-19.6c0-5.8-1.7-10.4-4.8-13.3c-3.3-3-7-4.5-14.3-5.6l-20.6-2.9c-15-2.2-26.1-7-34-14.6
		c-8.6-8.6-12.7-19.9-12.7-34.7c0-15.6,5.7-28.9,16.4-38.5c10.9-9.7,26.3-14.9,44.6-14.9c24.4,0,41.7,6.3,56.2,20.3l1.1,1.1
		l-23.2,23l-1.1-1c-10.5-10-23.1-11.3-34-11.3c-18.4,0-24.9,10.4-24.9,20.1c0,4.4,1.6,8.4,4.6,11.1c3.4,3.2,8.9,5.5,15,6.3l20.2,2.9
		c15.3,2.1,25.7,6.3,33.4,13.6c9.1,8.6,13.7,21.2,13.7,37.3c0,16.3-6.5,30-18.9,39.5C3174.5,1188.9,3158.6,1193.7,3140.1,1193.7z
		 M3079.8,1169.6c15.1,14.8,33.2,21.1,60.3,21.1c17.5,0,33.2-4.7,44.2-13.2c11.6-9,17.7-21.8,17.7-37.2c0-15.3-4.3-27.2-12.7-35.2
		c-7.3-6.8-17.1-10.8-31.8-12.8l-20.2-2.9c-6.7-0.9-12.8-3.5-16.6-7.1c-3.6-3.3-5.5-8.1-5.5-13.3c0-14,10.9-23.1,27.9-23.1
		c11.2,0,24,1.4,35,11.2l19-18.8c-13.9-12.9-29.8-18.4-53-18.4c-35.2,0-58,19.8-58,50.3c0,14,3.9,24.6,11.8,32.5
		c7.4,7.1,17.9,11.6,32.3,13.7l20.6,2.9c7.9,1.2,12.2,2.9,15.9,6.4c3.8,3.5,5.8,8.9,5.8,15.5c0,14.6-11.3,22.6-31.7,22.6
		c-17.9,0-31.4-4.5-41.3-13.8L3079.8,1169.6z"/>
</g>
</svg>
