<?xml version="1.0" encoding="UTF-8"?>
<svg width="97px" height="40px" viewBox="0 0 97 40" version="1.1" xmlns="http://www.w3.org/2000/svg" xmlns:xlink="http://www.w3.org/1999/xlink">
    <!-- Generator: Sketch 64 (93537) - https://sketch.com -->
    <title>Artboard</title>
    <desc>Created with Sketch.</desc>
    <defs>
        <path d="M3.56562964,6.90034962 C5.47104029,6.90034962 7.01579379,5.35559135 7.01579379,3.45017481 C7.01579379,1.54475827 5.47104029,0 3.56562964,0 C1.66021899,0 0.115465493,1.54475827 0.115465493,3.45017481 C0.115465493,5.35559135 1.66021899,6.90034962 3.56562964,6.90034962 Z" id="path-1"></path>
        <rect id="path-3" x="0" y="0" width="23.0010943" height="22.0811188"></rect>
        <path d="M3.56562964,7.17084333 C5.47104029,7.17084333 7.01579379,5.62608506 7.01579379,3.72066852 C7.01579379,1.81525197 5.47104029,0.270493705 3.56562964,0.270493705 C1.66021899,0.270493705 0.115465493,1.81525197 0.115465493,3.72066852 C0.115465493,5.62608506 1.66021899,7.17084333 3.56562964,7.17084333 Z" id="path-5"></path>
        <rect id="path-7" x="0" y="0.379059206" width="23.0010943" height="22.0811188"></rect>
        <path d="M0.66335156,5.30452876 C1.58707551,6.97073319 3.68707542,7.5729037 5.35373471,6.64917689 C7.02039401,5.72545009 7.62256266,3.62544369 6.69883871,1.95877925 C5.77465474,0.292574824 3.67511485,-0.309595686 2.00845556,0.614131116 C0.341796262,1.53785792 -0.260372388,3.63786432 0.66335156,5.30452876 Z" id="path-9"></path>
        <polygon id="path-11" points="19.4009716 0.197350086 30.551907 20.3146382 11.2392597 31.0193853 0.0883242411 10.9020972"></polygon>
        <path d="M0.432420573,5.21160406 C1.35614452,6.8782685 3.45614443,7.48043901 5.12280373,6.55671221 C6.78946302,5.63298541 7.39163167,3.53297901 6.46790772,1.86631456 C5.54418377,0.200110139 3.44418386,-0.402060371 1.77752457,0.521666431 C0.110865275,1.44539323 -0.491303375,3.54539963 0.432420573,5.21160406 Z" id="path-13"></path>
        <polygon id="path-15" points="19.6300626 0.100285125 30.780998 20.2171132 11.4683507 30.9223204 0.317415241 10.8050322"></polygon>
        <path d="M0.628849919,1.92795768 C-0.323855408,3.57806129 0.24151149,5.6881882 1.89161,6.64089647 C3.5417085,7.59360475 5.6518289,7.0282361 6.60453422,5.37813249 C7.55723955,3.72802889 6.99187265,1.61790197 5.34177414,0.665193703 C3.69167564,-0.287514568 1.58155525,0.277854078 0.628849919,1.92795768 Z" id="path-17"></path>
        <polygon id="path-19" points="30.91392 11.2397456 19.4133768 31.1592079 0.290273709 20.1186523 11.7908168 0.199190023"></polygon>
        <path d="M0.52672506,1.79271083 C-0.425980267,3.44281444 0.139386632,5.55294135 1.78948514,6.50564962 C3.43958364,7.45835789 5.54970404,6.89298925 6.50240936,5.24288564 C7.45511469,3.59278204 6.88974779,1.48265512 5.23964929,0.529946851 C3.58955078,-0.42276142 1.47943039,0.142607225 0.52672506,1.79271083 Z" id="path-21"></path>
        <polygon id="path-23" points="30.8117952 11.1854628 19.311252 31.1049251 0.188148886 20.0643696 11.688692 0.144907291"></polygon>
    </defs>
    <g id="Artboard" stroke="none" stroke-width="1" fill="none" fill-rule="evenodd">
        <g id="Helm-·-logo-full-blk" transform="translate(-3.000000, 1.000000)">
            <rect id="Rectangle" fill-opacity="0" fill="#000000" x="0.00139283035" y="-2.50421009e-05" width="99.9896757" height="37.5156194"></rect>
            <g id="Group" transform="translate(8.744691, 7.805508)">
                <g transform="translate(6.441196, 0.007116)" id="Clipped">
                    <g>
                        <mask id="mask-2" fill="white">
                            <use xlink:href="#path-1"></use>
                        </mask>
                        <g id="Path"></g>
                        <g id="Group" mask="url(#mask-2)">
                            <g transform="translate(-7.820372, 0.000000)" id="Clipped">
                                <g>
                                    <mask id="mask-4" fill="white">
                                        <use xlink:href="#path-3"></use>
                                    </mask>
                                    <g id="Rectangle"></g>
                                    <rect id="Rectangle" fill="#949494" mask="url(#mask-4)" x="5.63572813" y="-2.30011654" width="11.5005472" height="11.5005827"></rect>
                                </g>
                            </g>
                        </g>
                    </g>
                </g>
                <g transform="translate(6.441196, 14.727862)" id="Clipped">
                    <g>
                        <mask id="mask-6" fill="white">
                            <use xlink:href="#path-5"></use>
                        </mask>
                        <g id="Path"></g>
                        <g id="Group" mask="url(#mask-6)">
                            <g transform="translate(-7.820372, -15.099943)" id="Clipped">
                                <g>
                                    <mask id="mask-8" fill="white">
                                        <use xlink:href="#path-7"></use>
                                    </mask>
                                    <g id="Rectangle"></g>
                                    <rect id="Rectangle" fill="#949494" mask="url(#mask-8)" x="5.63572813" y="13.0701822" width="11.5005472" height="11.5005827"></rect>
                                </g>
                            </g>
                        </g>
                    </g>
                </g>
                <g transform="translate(12.881502, 3.687302)" id="Clipped">
                    <g>
                        <mask id="mask-10" fill="white">
                            <use xlink:href="#path-9"></use>
                        </mask>
                        <g id="Path"></g>
                        <g id="Group" mask="url(#mask-10)">
                            <g transform="translate(-2.330371, 7.327859) scale(-1, 1) rotate(119.000011) translate(2.330371, -7.327859) translate(-17.830371, -8.672141)" id="Clipped">
                                <g transform="translate(-0.000000, 0.000000)">
                                    <mask id="mask-12" fill="white">
                                        <use xlink:href="#path-11"></use>
                                    </mask>
                                    <g id="Path"></g>
                                    <rect id="Rectangle" fill="#949494" mask="url(#mask-12)" x="9.43137287" y="17.2996441" width="11.5005522" height="11.5005878"></rect>
                                </g>
                            </g>
                        </g>
                    </g>
                </g>
                <g transform="translate(0.000889, 11.047675)" id="Clipped">
                    <g>
                        <mask id="mask-14" fill="white">
                            <use xlink:href="#path-13"></use>
                        </mask>
                        <g id="Path"></g>
                        <g id="Group" mask="url(#mask-14)">
                            <g transform="translate(10.086780, -0.037551) scale(-1, 1) rotate(119.000011) translate(-10.086780, 0.037551) translate(-5.413220, -15.537551)" id="Clipped">
                                <g transform="translate(0.000000, 0.000000)">
                                    <mask id="mask-16" fill="white">
                                        <use xlink:href="#path-15"></use>
                                    </mask>
                                    <g id="Path"></g>
                                    <rect id="Rectangle" fill="#949494" mask="url(#mask-16)" x="9.66046387" y="2.21133302" width="11.5005522" height="11.5005878"></rect>
                                </g>
                            </g>
                        </g>
                    </g>
                </g>
                <g transform="translate(12.881502, 11.047675)" id="Clipped">
                    <g>
                        <mask id="mask-18" fill="white">
                            <use xlink:href="#path-17"></use>
                        </mask>
                        <g id="Path"></g>
                        <g id="Group" mask="url(#mask-18)">
                            <g transform="translate(-2.603569, -0.607523) scale(-1, 1) rotate(59.999988) translate(2.603569, 0.607523) translate(-18.603569, -17.107523)" id="Clipped">
                                <g transform="translate(1.002359, 0.988796)">
                                    <mask id="mask-20" fill="white">
                                        <use xlink:href="#path-19"></use>
                                    </mask>
                                    <g id="Path"></g>
                                    <rect id="Rectangle" fill="#949494" mask="url(#mask-20)" x="9.8269841" y="17.2780094" width="11.5005431" height="11.5005787"></rect>
                                </g>
                            </g>
                        </g>
                    </g>
                </g>
                <g transform="translate(0.000889, 3.687302)" id="Clipped">
                    <g>
                        <mask id="mask-22" fill="white">
                            <use xlink:href="#path-21"></use>
                        </mask>
                        <g id="Path"></g>
                        <g id="Group" mask="url(#mask-22)">
                            <g transform="translate(10.012121, 7.294999) scale(-1, 1) rotate(59.999988) translate(-10.012121, -7.294999) translate(-5.487879, -9.205001)" id="Clipped">
                                <g transform="translate(0.002471, 1.001537)">
                                    <mask id="mask-24" fill="white">
                                        <use xlink:href="#path-23"></use>
                                    </mask>
                                    <g id="Path"></g>
                                    <rect id="Rectangle" fill="#949494" mask="url(#mask-24)" x="9.72485928" y="2.23249233" width="11.5005431" height="11.5005787"></rect>
                                </g>
                            </g>
                        </g>
                    </g>
                </g>
            </g>
            <g id="Group" transform="translate(36.735411, 9.861571)" fill="#949494">
                <g transform="translate(15.884713, 0.069328)">
                    <path d="M6.19455194,5.13947128 C7.78570155,5.13947128 9.04536166,5.60798522 9.97353227,6.5455196 C10.9017029,7.48254748 11.3657882,8.78071096 11.3657882,10.4395036 C11.3657882,11.0695915 11.2913928,11.7417191 11.142096,12.4548732 L4.08106596,12.4548732 C4.11421491,13.2014565 4.36700729,13.8026739 4.83939248,14.2590318 C5.3119295,14.7153897 6.03715768,14.9433154 7.01492519,14.9433154 C7.6116063,14.9433154 8.23713458,14.8891197 8.89201614,14.7817414 C9.54689769,14.6738566 10.1142255,14.5117761 10.5950118,14.2965129 L11.0924991,16.8594108 C10.462416,17.1744547 9.75388884,17.415043 8.96641149,17.580669 C8.17944023,17.7468015 7.3631157,17.8298678 6.51743789,17.8298678 C5.45667148,17.8298678 4.5203022,17.6763978 3.70812762,17.3694578 C2.89595303,17.0625179 2.21637424,16.6350306 1.66939126,16.0880089 C1.12240827,15.5404807 0.708021091,14.8850677 0.426280318,14.1222764 C0.144488936,13.3589785 0.003593245,12.5131209 0.003593245,11.5841971 C0.003593245,10.5889215 0.148638881,9.69292026 0.438679544,8.89669982 C0.728770816,8.10047937 1.143158,7.4242998 1.68184109,6.86866759 C2.22052419,6.31303539 2.87110397,5.88605457 3.63352983,5.58721866 C4.39600629,5.28888924 5.24968033,5.13947128 6.19455194,5.13947128 Z M6.07005359,7.67755058 C5.44047658,7.67755058 4.95564155,7.8806577 4.61564972,8.28687195 C4.27586033,8.6935927 4.10596563,9.25327691 4.10596563,9.9664311 L7.63640475,9.9664311 C7.66980675,9.8337277 7.68600165,9.69292026 7.68600165,9.54350231 C7.68600165,9.01268868 7.5453084,8.56899331 7.2634158,8.21241622 C6.9815232,7.85583912 6.58373579,7.67755058 6.07005359,7.67755058 Z" id="Shape"></path>
                    <path d="M16.6863212,13.848259 C16.6863212,14.163303 16.7526191,14.4084497 16.8852149,14.5821798 C17.0178107,14.7564163 17.2749049,14.8435346 17.6559913,14.8435346 C17.888287,14.8435346 18.1701796,14.818716 18.5016691,14.7690789 L18.6256613,17.5062133 C18.2941718,17.6054876 17.9171342,17.6845018 17.4945483,17.7427495 C17.0719625,17.8004907 16.6367243,17.8298678 16.18934,17.8298678 C15.526361,17.8298678 14.9711794,17.7300869 14.523289,17.5310318 C14.0759047,17.3319767 13.7196167,17.0665699 13.4544251,16.7348114 C13.1892335,16.4030529 12.9984372,16.0257092 12.8825424,15.6027804 C12.7666476,15.1793451 12.7084472,14.7442603 12.7084472,14.2965129 L12.7084472,0.013675542 L16.6863212,0.013675542 L16.6863212,13.848259 Z" id="Path"></path>
                    <path d="M32.946514,8.27471591 C32.5158307,8.27471591 32.1342382,8.37399021 31.8027487,8.57304533 C31.4712592,8.77210044 31.1898726,9.00458465 30.957577,9.26999147 C31.0238749,9.55211283 31.069423,9.87526082 31.0942215,10.2404484 C31.1190199,10.6051296 31.1316722,10.9536026 31.1316722,11.2853612 L31.1316722,17.580669 L27.1537982,17.580669 L27.1537982,11.2109054 C27.1537982,10.1989153 27.0252511,9.45638404 26.7681569,8.98381809 C26.5115689,8.51125214 26.0596298,8.27471591 25.4133518,8.27471591 C24.9988634,8.27471591 24.6385267,8.36588619 24.3318356,8.54822675 C24.0251446,8.73107381 23.7807027,8.9549475 23.59851,9.22035431 L23.59851,17.580669 L19.6201299,17.580669 L19.6201299,5.38816355 L23.4492132,5.38816355 L23.4492132,6.98060444 C23.8302996,6.3170874 24.3318356,5.84452145 24.9533152,5.56240008 C25.5747947,5.28027871 26.2089266,5.13947128 26.8552046,5.13947128 C27.6507794,5.13947128 28.3097097,5.30104528 28.8319954,5.62469977 C29.3537751,5.94784776 29.8472136,6.47460938 30.3112989,7.20447812 C31.1731717,5.8278069 32.5239281,5.13947128 34.3640744,5.13947128 C35.1596492,5.13947128 35.8307257,5.3096558 36.3778099,5.64951835 C36.9248941,5.98938089 37.3682297,6.44168678 37.7078166,7.00542301 C38.0479097,7.56966574 38.2923516,8.22052024 38.4411423,8.95899951 C38.5904391,9.69697228 38.6653405,10.4724262 38.6653405,11.2853612 L38.6653405,17.580669 L34.6869604,17.580669 L34.6869604,11.2109054 C34.6869604,10.1989153 34.5584133,9.45638404 34.3018253,8.98381809 C34.0447311,8.51125214 33.5932981,8.27471591 32.946514,8.27471591 Z" id="Path"></path>
                </g>
                <g transform="translate(0.049656, 1.046116)" id="Shape">
                    <path d="M4.12975942,16.6069886 L0.0496564259,16.6069886 L0.0496564259,0.0331311493 L4.12975942,0.0331311493 L4.12975942,6.5268364 L9.15333451,6.5268364 L9.15333451,9.8565169 L4.12975942,9.8565169 L4.12975942,16.6069886 Z M14.2679464,16.6069886 L10.1961195,16.6069886 L10.1961195,12.3496359 C10.1961195,12.3247875 10.1961195,12.3082219 10.1961195,12.2833736 L10.1961195,5.0939142 C10.1961195,5.07734862 10.1961195,5.05250026 10.1961195,5.0276519 L10.1961195,0.0331311493 L14.2679464,0.0331311493 L14.2679464,16.6069886 Z"></path>
                </g>
            </g>
        </g>
    </g>
</svg>