<?xml version="1.0" encoding="utf-8"?>
<!-- Generator: Adobe Illustrator 22.0.0, SVG Export Plug-In . SVG Version: 6.00 Build 0)  -->
<svg version="1.1" id="Layer_1" xmlns:serif="http://www.serif.com/"
	 xmlns="http://www.w3.org/2000/svg" xmlns:xlink="http://www.w3.org/1999/xlink" x="0px" y="0px" viewBox="0 0 1944 2880"
	 style="enable-background:new 0 0 1944 2880;" xml:space="preserve">
<style type="text/css">
	.st0{fill:#FFFFFF;}
	.st1{fill:#949494;}
	.st2{fill:none;}
</style>
<rect x="0" y="479.5" class="st0" width="1944" height="1944"/>
<circle class="st1" cx="971.8" cy="1063.2" r="178.8"/>
<rect x="381.8" y="884.4" class="st2" width="1191.9" height="1144.2"/>
<circle class="st1" cx="971.8" cy="1840" r="178.8"/>
<rect x="381.8" y="884.4" class="st2" width="1191.9" height="1144.2"/>
<path class="st1" d="M1155.2,1349.9c47.9,86.3,156.7,117.5,243,69.7s117.6-156.7,69.7-243c-47.9-86.3-156.7-117.5-243-69.7
	C1138.5,1154.8,1107.3,1263.6,1155.2,1349.9z"/>
<rect x="381.8" y="884.4" class="st2" width="1191.9" height="1144.2"/>
<path class="st1" d="M475.8,1726.5c47.9,86.4,156.7,117.6,243,69.7c86.4-47.9,117.6-156.7,69.7-243c-47.9-86.3-156.7-117.5-243-69.7
	C459.1,1531.4,427.9,1640.2,475.8,1726.5z"/>
<polygon class="st2" points="381.8,2028.6 1573.7,2028.6 1573.7,884.4 381.8,884.4 "/>
<path class="st1" d="M1153.4,1556.4c-49.4,85.5-20.1,194.8,65.4,244.2s194.8,20.1,244.2-65.4c49.4-85.5,20.1-194.8-65.4-244.2
	C1312.1,1441.6,1202.8,1470.9,1153.4,1556.4z"/>
<rect x="381.8" y="884.4" class="st2" width="1191.9" height="1144.2"/>
<ellipse transform="matrix(0.7071 -0.7071 0.7071 0.7071 -702.9623 817.6111)" class="st1" cx="635.5" cy="1257.4" rx="178.8" ry="178.8"/>
<g transform="matrix(-0.5,0.866025,0.866025,0.5,-15.0585,-9.74409)">
	<defs>
		<rect id="SVGID_1_" x="381.8" y="884.4" width="1191.9" height="1144.2"/>
	</defs>
	<clipPath id="SVGID_2_">
		<use xlink:href="#SVGID_1_"  style="overflow:visible;"/>
	</clipPath>
</g>
</svg>
