<?xml version="1.0" encoding="utf-8"?>
<!-- Generator: Adobe Illustrator 22.0.0, SVG Export Plug-In . SVG Version: 6.00 Build 0)  -->
<svg version="1.1" id="Layer_1" xmlns="http://www.w3.org/2000/svg" xmlns:xlink="http://www.w3.org/1999/xlink" x="0px" y="0px"
	 viewBox="0 0 720 360" style="enable-background:new 0 0 720 360;" xml:space="preserve">
<style type="text/css">
	.st0{fill:#949494;}
	.st1{opacity:0.43;fill:#949494;enable-background:new    ;}
	.st2{opacity:0.35;fill:#949494;enable-background:new    ;}
</style>
<path class="st0" d="M691.3,166h-37.7c2.5-5.7,3.9-12.1,3.9-18.7c0-25.9-21.1-46.9-47-46.9h-84.9v-0.1h-34.9V166h-40.5v-65.7h-34.9
	v0.3L360.6,156l-54.7-55.5v-0.3H271V166h-41v-65.7H195V166H93.3v-65.7H58.4V166H18.1v28.6h40.2v65.7h34.9v-65.7H195v65.7H230v-65.7
	h41v65.7h34.9V148l54.7,55.5l54.7-55.5v112.2h34.9v-65.7h40.5v65.7h34.9v0h84.9c25.9,0,47-21.1,47-46.9c0-6.7-1.4-13-3.9-18.7h37.7
	L691.3,166L691.3,166z M525.7,128.6h84.9c10.3,0,18.7,8.4,18.7,18.7c0,10.2-8.3,18.6-18.5,18.7h-85.1L525.7,128.6L525.7,128.6z
	 M610.6,232h-84.9v-37.4h84.9c10.3,0,18.7,8.4,18.7,18.7C629.3,223.6,620.9,232,610.6,232z"/>
<polygon class="st1" points="415.3,148 450.2,109.3 450.2,156.7 415.3,187.2 "/>
<polygon class="st1" points="305.9,148 271,109.3 271,157 305.9,187.2 "/>
<rect x="490.8" y="194.6" class="st2" width="34.9" height="24.8"/>
<rect x="58.4" y="194.6" class="st2" width="34.9" height="24.8"/>
<rect x="195" y="194.6" class="st2" width="34.9" height="24.8"/>
<path class="st2" d="M653.8,194.7h13.1c0,0-7.8-24.3-32.5-28.8h-22.3C612.1,165.9,643.7,170.1,653.8,194.7z"/>
</svg>
