<?xml version="1.0" encoding="utf-8"?>
<!-- Generator: Adobe Illustrator 22.0.0, SVG Export Plug-In . SVG Version: 6.00 Build 0)  -->
<svg version="1.1" id="Layer_1" xmlns="http://www.w3.org/2000/svg" xmlns:xlink="http://www.w3.org/1999/xlink" x="0px" y="0px"
	 viewBox="0 0 86.1 80.5" style="enable-background:new 0 0 86.1 80.5;" xml:space="preserve">
<style type="text/css">
	.st0{fill:#949494;}
</style>
<g>
	<path class="st0" d="M63.4,18h-2.2v0.3c0.7,0,0.9,0.2,0.9,0.6c0,0.3,0.1,0.7,0.1,1.6v2.2l0,0l-4-4.7h-1.5v0.3
		c0.4,0,0.6,0.1,0.8,0.3c0.2,0.2,0.2,0.3,0.2,1v2.1c0,0.9,0,1.3-0.1,1.6c0,0.5-0.3,0.6-0.8,0.6v0.3h2.3v-0.3c-0.7,0-0.9-0.2-0.9-0.6
		c0-0.3-0.1-0.7-0.1-1.6v-2.3l0,0l4,4.9h0.3v-3.8c0-0.9,0-1.3,0.1-1.6c0-0.4,0.3-0.5,0.8-0.6V18H63.4z M52.6,21.6h-1.7
		c0.3-0.8,0.6-1.6,0.9-2.3l0,0L52.6,21.6z M55.1,24.2v-0.3c-0.6-0.1-0.7-0.2-1-1c-0.6-1.6-1.2-3.4-1.8-5L51.9,18l-2,4.9
		c-0.3,0.8-0.5,0.9-1.1,1v0.3H51v-0.3c-0.7-0.1-0.8-0.2-0.6-0.7c0.1-0.4,0.3-0.8,0.4-1.2h2c0.2,0.5,0.4,1,0.5,1.4s0.1,0.5-0.5,0.5
		v0.3C52.8,24.2,55.1,24.2,55.1,24.2z M47.2,24.2v-0.3c-0.8-0.1-0.8-0.1-0.9-1.1l-0.1-3.4c0-0.9,0-1,0.8-1V18h-1.6l-2.1,4.6l-2-4.6
		h-1.6v0.3c0.8,0.1,0.9,0.1,0.8,1.3l-0.1,1.9c-0.1,1-0.1,1.4-0.2,1.7c-0.1,0.4-0.2,0.5-0.8,0.6v0.3h2.2v-0.3
		c-0.6-0.1-0.8-0.1-0.9-0.6c0-0.4,0-0.8,0-1.6l0.1-2.7l0,0l2.1,5h0.2l2.3-5.1l0,0v3.8c0,1,0,1-0.8,1.1V24h2.6V24.2z M37.7,18h-2.3
		v0.3c0.7,0,0.9,0.2,0.9,0.5s0.1,0.7,0.1,1.5v0.8c0,1.6-0.4,2.7-1.7,2.7c-1.1,0-1.7-0.9-1.7-2.4v-2.1c0-0.9,0.1-0.9,0.8-1V18h-2.5
		v0.3c0.7,0.1,0.8,0.1,0.8,1v2.3c0,1.1,0.3,1.8,0.8,2.2c0.4,0.3,1,0.5,1.5,0.5c0.6,0,1.3-0.2,1.7-0.7c0.5-0.6,0.7-1.4,0.7-2.5v-0.8
		c0-0.8,0-1.2,0.1-1.5c0-0.4,0.3-0.5,0.8-0.6C37.7,18.2,37.7,18,37.7,18z M29.2,18h-2.5v0.3c0.7,0.1,0.8,0.1,0.8,0.9v1.5h-3.1v-1.5
		c0-0.8,0.1-0.8,0.8-0.9V18h-2.5v0.3c0.8,0.1,0.8,0.1,0.8,0.9V23c0,0.8-0.1,0.8-0.8,0.9v0.3h2.5v-0.3c-0.8-0.1-0.8-0.1-0.8-0.9v-1.9
		h3.1V23c0,0.8-0.1,0.8-0.9,0.9v0.3h2.6v-0.3c-0.8-0.1-0.8-0.1-0.8-0.9v-3.8c0-0.8,0.1-0.8,0.8-0.9V18z"/>
	<path class="st0" d="M62.4,35.3c-0.1,0.4-0.3,0.7-0.5,0.9s-0.5,0.3-1.2,0.3c-0.4,0-0.8,0-0.9-0.1c-0.2-0.1-0.2-0.3-0.2-0.8v-1.7
		h0.8c0.8,0,0.9,0.1,1,0.7h0.3v-1.8h-0.3c-0.1,0.6-0.2,0.7-1,0.7h-0.8v-2.1c0-0.3,0-0.3,0.3-0.3h0.7c0.6,0,0.9,0.1,1,0.3
		c0.1,0.2,0.2,0.4,0.3,0.8h0.3c0-0.5-0.1-1.1-0.1-1.4h-4.2V31c0.7,0.1,0.8,0.1,0.8,0.9v3.7c0,0.8-0.1,0.8-0.9,0.9v0.3h4.6
		c0.1-0.3,0.3-1.2,0.3-1.5H62.4z M56.4,35.2c-0.5,0.9-1,1.4-1.9,1.4c-1.4,0-2.4-1.2-2.4-2.9c0-1.4,0.8-2.7,2.4-2.7
		c1,0,1.5,0.4,1.8,1.4l0.3-0.1c-0.1-0.5-0.1-0.9-0.2-1.4c-0.3-0.1-0.9-0.3-1.7-0.3c-2.1,0-3.6,1.3-3.6,3.3c0,1.5,1,3.1,3.4,3.1
		c0.7,0,1.5-0.2,1.7-0.2c0.2-0.3,0.4-1,0.5-1.5L56.4,35.2z M49.7,36.9v-0.3c-0.8-0.1-0.8-0.1-0.8-0.9V32c0-0.8,0.1-0.9,0.8-0.9v-0.3
		h-2.5V31c0.8,0.1,0.8,0.1,0.8,0.9v3.7c0,0.8-0.1,0.9-0.8,0.9v0.3h2.5V36.9z M46.1,30.8H44V31c0.8,0.1,0.8,0.2,0.6,0.7
		c-0.3,0.9-0.9,2.6-1.4,3.8l0,0c-0.6-1.5-1.3-3.3-1.5-4c-0.1-0.4-0.1-0.5,0.5-0.6v-0.3h-2.4V31c0.6,0.1,0.7,0.1,1,0.8
		c0.5,1.3,1.3,3.4,1.9,5.1H43c0.7-1.9,1.7-4.3,1.9-4.9c0.4-0.9,0.5-0.9,1.1-1v-0.2H46.1z M35.8,33.9v-2.3c0-0.2,0-0.3,0.1-0.4
		s0.2-0.1,0.5-0.1c0.7,0,1.3,0.4,1.3,1.4c0,0.5-0.2,0.9-0.5,1.2c-0.2,0.2-0.5,0.3-1,0.3h-0.4V33.9z M39.7,36.7
		c-0.2-0.1-0.4-0.2-0.7-0.4c-0.2-0.2-0.4-0.5-0.7-1c-0.3-0.4-0.7-1.1-0.8-1.3c0.7-0.3,1.2-0.8,1.2-1.6c0-0.6-0.3-1-0.6-1.2
		c-0.4-0.2-0.8-0.3-1.5-0.3h-2.4V31c0.7,0.1,0.8,0.1,0.8,0.9v3.7c0,0.8-0.1,0.9-0.8,0.9v0.3h2.5v-0.3c-0.7-0.1-0.8-0.1-0.8-0.9v-1.5
		h0.3c0.5,0,0.6,0.1,0.8,0.4c0.3,0.5,0.6,1,0.9,1.5c0.4,0.6,0.8,0.8,1.6,0.9c0.1,0,0.2,0,0.3,0L39.7,36.7z M32.7,35.3
		c-0.1,0.4-0.3,0.7-0.5,0.9s-0.5,0.3-1.2,0.3c-0.4,0-0.8,0-0.9-0.1c-0.2-0.1-0.2-0.3-0.2-0.8v-1.7h0.8c0.8,0,0.9,0.1,1,0.7H32v-1.8
		h-0.3c-0.1,0.6-0.2,0.7-1,0.7h-0.8v-2.1c0-0.3,0-0.3,0.3-0.3h0.7c0.6,0,0.9,0.1,1,0.3c0.1,0.2,0.2,0.4,0.3,0.8h0.3
		c0-0.5-0.1-1.1-0.1-1.4h-4.2V31c0.7,0.1,0.8,0.1,0.8,0.9v3.7c0,0.8-0.1,0.8-0.9,0.9v0.3h4.6c0.1-0.3,0.3-1.2,0.3-1.5H32.7z
		 M26.5,32.1c-0.1-0.6-0.1-1-0.2-1.3c-0.3-0.1-0.7-0.2-1.2-0.2c-1.2,0-2,0.8-2,1.7c0,1,0.9,1.5,1.6,1.9s1.2,0.7,1.2,1.4
		s-0.4,1.1-1.1,1.1c-1,0-1.4-1-1.6-1.5H23c0.1,0.5,0.2,1.3,0.3,1.5c0.1,0,0.2,0.1,0.5,0.2C24,37,24.3,37,24.7,37
		c1.3,0,2.1-0.8,2.1-1.8s-0.9-1.5-1.6-1.9C24.4,32.9,24,32.6,24,32c0-0.5,0.3-1,1-1c0.8,0,1.1,0.7,1.2,1.2L26.5,32.1z"/>
	<path class="st0" d="M59.4,46.8v-2.2c0-0.2,0-0.3,0.1-0.4c0.1-0.1,0.2-0.1,0.5-0.1c0.6,0,1.3,0.4,1.3,1.3c0,0.5-0.1,0.8-0.5,1.1
		c-0.2,0.2-0.5,0.2-0.9,0.2h-0.5V46.8z M63.1,49.4c-0.2-0.1-0.4-0.2-0.6-0.4c-0.2-0.2-0.4-0.5-0.7-0.9s-0.6-1-0.8-1.3
		c0.6-0.3,1.1-0.7,1.1-1.5c0-0.5-0.2-0.9-0.6-1.2c-0.3-0.2-0.8-0.3-1.4-0.3h-2.2v0.3c0.7,0.1,0.8,0.1,0.8,0.8v3.5
		c0,0.8-0.1,0.8-0.8,0.9v0.3h2.4v-0.3c-0.7-0.1-0.8-0.1-0.8-0.9V47h0.3c0.4,0,0.6,0.1,0.7,0.4c0.3,0.4,0.6,1,0.9,1.4
		c0.4,0.6,0.8,0.8,1.5,0.8c0.1,0,0.2,0,0.3,0L63.1,49.4z M57.2,48.1c-0.1,0.4-0.3,0.7-0.5,0.8c-0.2,0.2-0.5,0.3-1.1,0.3
		c-0.4,0-0.7,0-0.9-0.1s-0.2-0.3-0.2-0.7v-1.6h0.8c0.8,0,0.8,0.1,1,0.7h0.3v-1.7h-0.3c-0.1,0.6-0.2,0.7-1,0.7h-0.8v-2
		c0-0.3,0-0.3,0.3-0.3h0.6c0.6,0,0.9,0.1,1,0.2c0.1,0.2,0.2,0.4,0.3,0.8H57c0-0.5-0.1-1.1-0.1-1.3h-4v0.3c0.7,0.1,0.8,0.1,0.8,0.9
		v3.5c0,0.7-0.1,0.8-0.9,0.9v0.3h4.3c0.1-0.3,0.3-1.1,0.3-1.4L57.2,48.1z M49.7,46.7h0.4c1.1,0,1.7,0.4,1.7,1.3
		c0,0.9-0.6,1.3-1.3,1.3c-0.5,0-0.7-0.2-0.7-0.8v-1.8H49.7z M49.7,46.4v-1.7c0-0.3,0-0.4,0.1-0.4c0.1-0.1,0.3-0.1,0.5-0.1
		c0.8,0,1.1,0.5,1.1,1.1c0,0.7-0.4,1.1-1.4,1.1C50,46.4,49.7,46.4,49.7,46.4z M51.1,46.5c0.5-0.1,1.2-0.5,1.2-1.3
		c0-0.4-0.2-0.8-0.5-1s-0.7-0.3-1.4-0.3h-2.3v0.3c0.7,0.1,0.7,0.1,0.7,0.8v3.6c0,0.7-0.1,0.8-0.8,0.9v0.3h2c0.7,0,1.3-0.1,1.8-0.4
		c0.5-0.3,0.8-0.7,0.8-1.3C52.7,47,52,46.6,51.1,46.5L51.1,46.5z M47.7,49.6v-0.3c-0.8-0.1-0.8-0.1-0.8-1l-0.1-3.2
		c0-0.9,0-0.9,0.8-1v-0.3H46l-2,4.3l-2-4.3h-1.5v0.3c0.8,0.1,0.9,0.1,0.8,1.3l-0.1,1.8c-0.1,0.9-0.1,1.3-0.2,1.6
		c-0.1,0.4-0.2,0.5-0.7,0.5v0.3h2.1v-0.3c-0.6-0.1-0.8-0.1-0.8-0.5c0-0.3,0-0.7,0-1.5l0.1-2.5l0,0l2,4.7h0.2l2.1-4.8l0,0v3.6
		c0,0.9,0,1-0.7,1v0.3C45.3,49.6,47.7,49.6,47.7,49.6z M37.9,47.1h-1.6c0.3-0.7,0.5-1.5,0.8-2.2l0,0L37.9,47.1z M40.2,49.6v-0.3
		c-0.6-0.1-0.7-0.1-1-0.9c-0.6-1.5-1.2-3.2-1.7-4.7l-0.3,0.1l-1.8,4.6c-0.3,0.8-0.4,0.8-1,0.9v0.3h1.9v-0.3
		c-0.7-0.1-0.7-0.2-0.6-0.7c0.1-0.4,0.2-0.7,0.4-1.1H38c0.2,0.5,0.4,1,0.5,1.3c0.1,0.4,0.1,0.4-0.5,0.5v0.3
		C38,49.6,40.2,49.6,40.2,49.6z M34.3,43.8h-2.4v0.3c0.7,0.1,0.8,0.1,0.8,0.9v1.4h-2.9V45c0-0.7,0.1-0.8,0.7-0.9v-0.3h-2.4v0.3
		c0.7,0.1,0.8,0.1,0.8,0.9v3.5c0,0.7-0.1,0.8-0.8,0.9v0.3h2.4v-0.3c-0.7-0.1-0.8-0.1-0.8-0.9v-1.7h2.9v1.7c0,0.7-0.1,0.8-0.8,0.9
		v0.3h2.4v-0.3c-0.7-0.1-0.8-0.1-0.8-0.9V45c0-0.7,0.1-0.8,0.8-0.9L34.3,43.8L34.3,43.8z M27.8,48c-0.5,0.9-0.9,1.4-1.8,1.4
		c-1.3,0-2.3-1.1-2.3-2.8c0-1.3,0.8-2.6,2.2-2.6c0.9,0,1.5,0.4,1.7,1.3l0.3-0.1c-0.1-0.5-0.1-0.9-0.2-1.4c-0.2-0.1-0.9-0.2-1.6-0.2
		c-2,0-3.4,1.2-3.4,3.1c0,1.4,1,2.9,3.2,2.9c0.6,0,1.4-0.2,1.6-0.2c0.2-0.3,0.4-1,0.5-1.4H27.8z"/>
</g>
<rect x="22.8" y="27" class="st0" width="39.6" height="0.8"/>
<rect x="22.8" y="39.9" class="st0" width="39.6" height="0.8"/>
<g>
	<polygon class="st0" points="34,57.3 34.6,57.3 34.3,56.1 	"/>
	<path class="st0" d="M51.3,56.1c-0.4,0-0.6,0.3-0.6,0.9s0.2,0.9,0.6,0.9c0.4,0,0.6-0.3,0.6-0.9C51.9,56.3,51.7,56,51.3,56.1z"/>
	<path class="st0" d="M19.5,13.8v47.6h46.1V13.8H19.5z M24,58.4c-0.7,0-1.1-0.5-1.1-1.4s0.4-1.4,1.1-1.4s1.1,0.5,1.1,1.4
		C25.1,57.8,24.7,58.3,24,58.4z M27.3,56.1h-1.2v0.6H27v0.4h-0.9v1.2v0.1h-0.5v-2.7h1.7V56.1z M30.5,56.1h-1.2v0.6h0.9v0.4h-0.9v1.2
		v0.1h-0.5v-2.7h1.7V56.1z M32.2,58.3l-0.5-1.1h-0.4v1.1h-0.6v-2.7h1.1c0.7,0,0.9,0.4,0.9,0.8c0,0.3-0.2,0.6-0.5,0.7l0.6,1.2H32.2z
		 M34.8,58.3l-0.1-0.6h-0.8l-0.2,0.6h-0.5l0.7-2.7h0.6l0.8,2.7H34.8z M37.8,58.3h-0.5l-1.1-1.9v1.9h-0.5v-2.7h0.5l1.1,1.8v-1.8h0.5
		V58.3z M40,58.3L39.3,57l-0.4,0.5v0.8h-0.4v-2.7H39v1.2l0.9-1.2h0.6l-0.8,1l0.9,1.7H40z M42.6,58.3v0.1h-1.7v-2.7h0.5v2.2h1.2V58.3
		z M43.5,58.3H43v-2.7h0.5V58.3z M46.3,58.3h-0.5l-1.1-1.9v1.9h-0.5v-2.7h0.5l1.1,1.8v-1.8h0.5V58.3z M48.9,58.4
		c-0.7,0-1.1-0.5-1.1-1.4s0.4-1.4,1.1-1.4c0.5,0,0.8,0.2,0.9,0.7l-0.5,0.3c-0.1-0.2-0.2-0.4-0.5-0.4s-0.5,0.3-0.5,0.9
		c0,0.6,0.2,0.9,0.6,0.9c0.2,0,0.3-0.1,0.5-0.4l0.5,0.1C49.7,58.2,49.4,58.4,48.9,58.4z M51.3,58.4c-0.7,0-1.1-0.5-1.1-1.4
		s0.4-1.4,1.1-1.4c0.7,0,1.1,0.5,1.1,1.4C52.4,57.8,52,58.4,51.3,58.4z M54.9,57.3c0,0.7-0.5,1-1,1s-1-0.2-1-1v-1.7h0.5v1.7
		c0,0.4,0.2,0.6,0.5,0.6c0.3,0,0.5-0.2,0.5-0.6v-1.7h0.5V57.3z M57.6,58.3h-0.5L56,56.4v1.9h-0.5v-2.7H56l1.1,1.8v-1.8h0.5V58.3z
		 M59.9,56h-0.7v2.2h-0.5V56H58v-0.4h1.9V56z M61.4,57.2v1.1h-0.5v-1.1l-0.7-1.6h0.5l0.4,1.1l0.5-1.1h0.5L61.4,57.2z M20.4,53.1
		V14.6h44.3v38.5H20.4z"/>
	<path class="st0" d="M24,56.1c-0.4,0-0.6,0.3-0.6,0.9s0.2,0.9,0.6,0.9s0.6-0.3,0.6-0.9C24.6,56.3,24.4,56,24,56.1z"/>
	<path class="st0" d="M31.8,56h-0.5v0.8h0.4c0.4,0,0.5-0.1,0.5-0.4C32.2,56.1,32.1,56,31.8,56z"/>
</g>
</svg>
