<?xml version="1.0" encoding="utf-8"?>
<!-- Generator: Adobe Illustrator 22.0.0, SVG Export Plug-In . SVG Version: 6.00 Build 0)  -->
<svg version="1.1" id="Layer_1" xmlns="http://www.w3.org/2000/svg" xmlns:xlink="http://www.w3.org/1999/xlink" x="0px" y="0px"
	 viewBox="0 0 313.8 95.7" style="enable-background:new 0 0 313.8 95.7;" xml:space="preserve">
<style type="text/css">
	.st0{fill:#949494;}
	.st1{enable-background:new    ;}
</style>
<g>
	<path class="st0" d="M263.3,3.3c0.5-2.3,2.8-3.6,5.1-3.1c2.3,0.5,3.6,2.8,3.1,5.1s-12.8,36-12.8,36S262.8,5.5,263.3,3.3z"/>
	<path class="st0" d="M241.5,11c-0.7-2.2,0.5-4.6,2.7-5.3s4.6,0.5,5.3,2.7s6,33.5,6,33.5S242.1,13.2,241.5,11z"/>
	<path class="st0" d="M226.2,29.6c-1.9-1.4-2.3-4-0.9-5.9s4-2.3,5.9-0.9s21.3,20.9,21.3,20.9S228.1,31.1,226.2,29.6z"/>
	<path class="st0" d="M227,51.7c-2.3,0-4.2-1.9-4.2-4.2s1.9-4.2,4.2-4.2s25.2,4.2,25.2,4.2S229.3,51.7,227,51.7z"/>
	<path class="st0" d="M241.2,68.4c-1.7,1.6-4.4,1.5-5.9-0.2c-1.6-1.7-1.5-4.4,0.2-6s18.2-11.4,18.2-11.4S242.9,66.8,241.2,68.4z"/>
	<path class="st0" d="M261.3,68.3c0.1,2.2-1.7,4.1-3.9,4.1c-2.2,0.1-4.1-1.7-4.1-3.9c-0.1-2.2,3.7-16.3,3.7-16.3
		S261.3,66.1,261.3,68.3z"/>
	<path class="st0" d="M307.8,21.7c2.2-1,4.7,0,5.6,2.2c1,2.2-0.1,4.7-2.2,5.6c-2.2,1-47.8,16.5-47.8,16.5S305.6,22.6,307.8,21.7z"/>
	<path class="st0" d="M286.7,7.6c1.6-1.9,4.3-2.2,6.1-0.6c1.7,1.5,1.9,4.2,0.3,6.1s-31.4,30-31.4,30S285.1,9.4,286.7,7.6z"/>
</g>
<g class="st1">
	<path class="st0" d="M95.4,95.7v-10h1.3v10H95.4z"/>
	<path class="st0" d="M101.6,94.6l0.2,1.1c-0.3,0.1-0.7,0.1-0.9,0.1c-0.4,0-0.8-0.1-1-0.2c-0.2-0.1-0.4-0.3-0.5-0.6
		c-0.1-0.2-0.2-0.7-0.2-1.5v-4.2h-0.9v-1h0.9v-1.8l1.2-0.7v2.5h1.2v1h-1.2v4.2c0,0.4,0,0.6,0.1,0.7c0,0.1,0.1,0.2,0.2,0.2
		c0.1,0.1,0.2,0.1,0.4,0.1C101.2,94.7,101.4,94.7,101.6,94.6z"/>
	<path class="st0" d="M102.7,87v-1.4h1.3v1.1c0,0.6-0.1,1.1-0.2,1.3c-0.2,0.4-0.5,0.6-0.9,0.8l-0.3-0.5c0.2-0.1,0.4-0.3,0.5-0.5
		c0.1-0.2,0.2-0.5,0.2-0.9H102.7z"/>
	<path class="st0" d="M105.2,93.6l1.2-0.2c0.1,0.5,0.3,0.9,0.6,1.1c0.3,0.3,0.7,0.4,1.3,0.4c0.6,0,1-0.1,1.3-0.3s0.4-0.5,0.4-0.8
		c0-0.3-0.1-0.5-0.4-0.7c-0.2-0.1-0.6-0.2-1.3-0.4c-0.9-0.2-1.5-0.4-1.9-0.6c-0.3-0.2-0.6-0.4-0.8-0.7s-0.3-0.6-0.3-1
		c0-0.3,0.1-0.6,0.2-0.9c0.1-0.3,0.3-0.5,0.6-0.7c0.2-0.1,0.5-0.3,0.8-0.4c0.3-0.1,0.7-0.1,1.1-0.1c0.6,0,1.1,0.1,1.5,0.2
		c0.4,0.2,0.7,0.4,1,0.7c0.2,0.3,0.3,0.7,0.4,1.1l-1.2,0.2c-0.1-0.4-0.2-0.7-0.5-0.9c-0.3-0.2-0.6-0.3-1.1-0.3c-0.6,0-1,0.1-1.2,0.3
		c-0.2,0.2-0.4,0.4-0.4,0.7c0,0.2,0,0.3,0.1,0.4c0.1,0.1,0.3,0.2,0.5,0.3c0.1,0,0.5,0.2,1.1,0.3c0.9,0.2,1.5,0.4,1.8,0.6
		c0.3,0.1,0.6,0.4,0.8,0.6c0.2,0.3,0.3,0.6,0.3,1.1c0,0.4-0.1,0.8-0.4,1.2c-0.2,0.4-0.6,0.6-1,0.8c-0.5,0.2-1,0.3-1.5,0.3
		c-0.9,0-1.7-0.2-2.2-0.6S105.3,94.3,105.2,93.6z"/>
	<path class="st0" d="M117.9,95.7l-2.2-7.3h1.3l1.2,4.2l0.4,1.6c0-0.1,0.1-0.6,0.4-1.5l1.2-4.3h1.3l1.1,4.2l0.4,1.4l0.4-1.4l1.2-4.2
		h1.2l-2.3,7.3H122l-1.2-4.4l-0.3-1.2l-1.5,5.6H117.9z"/>
	<path class="st0" d="M126.6,95.7v-10h1.2v3.6c0.6-0.7,1.3-1,2.2-1c0.5,0,1,0.1,1.4,0.3c0.4,0.2,0.7,0.5,0.8,0.9
		c0.2,0.4,0.3,0.9,0.3,1.6v4.6h-1.2v-4.6c0-0.6-0.1-1.1-0.4-1.3s-0.6-0.4-1.1-0.4c-0.4,0-0.7,0.1-1,0.3s-0.5,0.4-0.7,0.8
		c-0.1,0.3-0.2,0.8-0.2,1.3v4H126.6z"/>
	<path class="st0" d="M139.1,94.8c-0.5,0.4-0.9,0.7-1.3,0.8c-0.4,0.2-0.9,0.2-1.4,0.2c-0.8,0-1.4-0.2-1.8-0.6
		c-0.4-0.4-0.6-0.9-0.6-1.5c0-0.4,0.1-0.7,0.2-1c0.2-0.3,0.4-0.5,0.6-0.7s0.6-0.3,0.9-0.4c0.2-0.1,0.6-0.1,1.1-0.2
		c1-0.1,1.7-0.3,2.2-0.4c0-0.2,0-0.3,0-0.3c0-0.5-0.1-0.9-0.3-1.1c-0.3-0.3-0.8-0.4-1.4-0.4c-0.6,0-1,0.1-1.3,0.3
		c-0.3,0.2-0.5,0.6-0.6,1.1l-1.2-0.2c0.1-0.5,0.3-0.9,0.5-1.2c0.2-0.3,0.6-0.6,1.1-0.7c0.5-0.2,1-0.3,1.6-0.3c0.6,0,1.1,0.1,1.5,0.2
		s0.7,0.3,0.9,0.6c0.2,0.2,0.3,0.5,0.4,0.8c0,0.2,0.1,0.6,0.1,1.1v1.6c0,1.1,0,1.9,0.1,2.2c0.1,0.3,0.2,0.6,0.3,0.9h-1.3
		C139.2,95.5,139.2,95.2,139.1,94.8z M139,92.1c-0.4,0.2-1.1,0.3-2,0.5c-0.5,0.1-0.9,0.2-1.1,0.2c-0.2,0.1-0.4,0.2-0.5,0.4
		s-0.2,0.4-0.2,0.6c0,0.3,0.1,0.6,0.4,0.8c0.2,0.2,0.6,0.3,1.1,0.3c0.5,0,0.9-0.1,1.3-0.3c0.4-0.2,0.6-0.5,0.8-0.9
		c0.1-0.3,0.2-0.7,0.2-1.2V92.1z"/>
	<path class="st0" d="M144.8,94.6l0.2,1.1c-0.3,0.1-0.7,0.1-0.9,0.1c-0.4,0-0.8-0.1-1-0.2c-0.2-0.1-0.4-0.3-0.5-0.6
		c-0.1-0.2-0.2-0.7-0.2-1.5v-4.2h-0.9v-1h0.9v-1.8l1.2-0.7v2.5h1.2v1h-1.2v4.2c0,0.4,0,0.6,0.1,0.7c0,0.1,0.1,0.2,0.2,0.2
		c0.1,0.1,0.2,0.1,0.4,0.1C144.4,94.7,144.6,94.7,144.8,94.6z"/>
	<path class="st0" d="M151.3,95.7l-2.2-7.3h1.3l1.2,4.2l0.4,1.6c0-0.1,0.1-0.6,0.4-1.5l1.2-4.3h1.3l1.1,4.2l0.4,1.4l0.4-1.4l1.2-4.2
		h1.2l-2.3,7.3h-1.3l-1.2-4.4l-0.3-1.2l-1.5,5.6H151.3z"/>
	<path class="st0" d="M165,93.4l1.3,0.2c-0.2,0.7-0.6,1.3-1.1,1.7c-0.5,0.4-1.2,0.6-2.1,0.6c-1.1,0-1.9-0.3-2.5-1s-0.9-1.6-0.9-2.8
		c0-1.2,0.3-2.2,0.9-2.8c0.6-0.7,1.4-1,2.4-1c1,0,1.8,0.3,2.4,1c0.6,0.7,0.9,1.6,0.9,2.8c0,0.1,0,0.2,0,0.3h-5.4
		c0,0.8,0.3,1.4,0.7,1.8c0.4,0.4,0.9,0.6,1.5,0.6c0.4,0,0.8-0.1,1.2-0.4S164.8,93.9,165,93.4z M160.9,91.4h4
		c-0.1-0.6-0.2-1.1-0.5-1.4c-0.4-0.5-0.9-0.7-1.5-0.7c-0.6,0-1,0.2-1.4,0.6C161.2,90.3,161,90.8,160.9,91.4z"/>
	<path class="st0" d="M176.4,95.7v-0.9c-0.5,0.7-1.1,1.1-2,1.1c-0.6,0-1.1-0.2-1.6-0.5s-0.9-0.8-1.1-1.3c-0.3-0.6-0.4-1.2-0.4-2
		c0-0.7,0.1-1.4,0.4-2c0.2-0.6,0.6-1,1.1-1.4c0.5-0.3,1-0.5,1.6-0.5c0.4,0,0.8,0.1,1.2,0.3c0.3,0.2,0.6,0.4,0.8,0.7v-3.6h1.2v10
		H176.4z M172.5,92.1c0,0.9,0.2,1.6,0.6,2.1c0.4,0.5,0.9,0.7,1.4,0.7c0.5,0,1-0.2,1.4-0.7c0.4-0.4,0.6-1.1,0.6-2
		c0-1-0.2-1.7-0.6-2.2s-0.9-0.7-1.4-0.7c-0.5,0-1,0.2-1.4,0.7C172.7,90.4,172.5,91.1,172.5,92.1z"/>
	<path class="st0" d="M179,92.1c0-1.3,0.4-2.3,1.1-3c0.6-0.5,1.4-0.8,2.3-0.8c1,0,1.8,0.3,2.4,1c0.6,0.7,0.9,1.6,0.9,2.7
		c0,0.9-0.1,1.7-0.4,2.2c-0.3,0.5-0.7,1-1.2,1.2c-0.5,0.3-1.1,0.4-1.8,0.4c-1,0-1.8-0.3-2.5-1S179,93.3,179,92.1z M180.3,92.1
		c0,0.9,0.2,1.6,0.6,2.1s0.9,0.7,1.5,0.7c0.6,0,1.1-0.2,1.5-0.7c0.4-0.5,0.6-1.2,0.6-2.1c0-0.9-0.2-1.6-0.6-2
		c-0.4-0.5-0.9-0.7-1.5-0.7c-0.6,0-1.1,0.2-1.5,0.7S180.3,91.2,180.3,92.1z"/>
	<path class="st0" d="M187.6,95.7v-1.4h1.4v1.4H187.6z"/>
	<path class="st0" d="M193.5,91.3v-4.8h-1.8v-0.8h4.5v0.8h-1.8v4.8H193.5z M196.9,91.3v-5.6h1.4l1.4,4.5l1.4-4.5h1.3v5.6h-0.8v-4.7
		l-1.4,4.7h-0.8l-1.5-4.8v4.8H196.9z"/>
</g>
<g>
	<polygon class="st0" points="6.4,81.3 2.2,81.3 2.2,59.3 0,58.4 0,55.7 6.4,55.7 	"/>
	<path class="st0" d="M51.1,81.4h-4.3V66c0-2.5-0.4-4.3-1.3-5.4c-0.8-1.1-2.3-1.7-4.3-1.7c-1.7,0-3.2,0.5-4.4,1.5
		c-1,0.8-1.7,1.9-2.2,3.1v17.9h-4.3V66c0-2.5-0.4-4.3-1.3-5.4c-0.8-1.1-2.3-1.7-4.3-1.7c-1.7,0-3.2,0.5-4.4,1.5
		c-1,0.8-1.7,1.9-2.2,3.1v17.9h-4.2L14,55.8h2.1l1.4,2.6c2-2.1,4.4-3.2,7.2-3.2c1.8,0,3.4,0.4,5,1.1s2.7,1.7,3.5,2.9
		c2.1-2.6,4.7-3.9,7.9-3.9c6.6,0,9.9,3.3,9.9,10L51.1,81.4z"/>
	<path class="st0" d="M81.9,68.4c0,3.9-1,7.1-2.8,9.4C77,80.4,74,81.7,70,81.7c-2.5,0-5-0.7-7.5-2.2v12.2h-4.2l0.1-36H61l1,2.7
		c0.7-0.8,1.6-1.5,2.9-2.1c1.6-0.8,3.2-1.1,5-1.1c3.9,0,6.9,1.1,9,3.3C80.9,60.9,81.9,64.2,81.9,68.4z M77.6,68.4
		c0-6.4-2.6-9.6-7.9-9.6c-1.7,0-3.3,0.5-4.7,1.6c-1.2,0.9-2,1.8-2.5,2.9v11.8c2.5,2.2,5,3.2,7.4,3.2C75,78.4,77.6,75,77.6,68.4z"/>
	<path class="st0" d="M103.4,56.2l-1.1,3.5c-1.2-0.5-2.4-0.8-3.6-0.8c-1.6,0-3,0.5-4.2,1.4c-1.1,0.8-1.8,1.8-2.2,2.9v18h-4.2
		l0.1-25.6h2.2l0.8,2.7c0.7-0.8,1.6-1.5,2.9-2.2c1.6-0.8,3-1.1,4.7-1.1C100.3,55.3,101.9,55.6,103.4,56.2z"/>
	<path class="st0" d="M129.2,68.6c0,4.2-1,7.4-2.8,9.7c-2,2.5-5,3.7-9,3.7c-3.9,0-6.9-1.3-9-3.8c-1.9-2.3-2.7-5.5-2.7-9.7
		c0-3.9,0.9-7.1,2.7-9.3c2-2.6,5-3.9,9.1-3.9c3.9,0,6.9,1.3,9,3.9C128.2,61.6,129.2,64.7,129.2,68.6z M124.8,68.6
		c0-6.5-2.5-9.7-7.5-9.7s-7.5,3.2-7.5,9.7c0,3.3,0.5,5.8,1.7,7.4c1.2,1.7,3.1,2.6,5.8,2.6c2.7,0,4.7-0.8,5.9-2.6
		C124.3,74.3,124.8,71.9,124.8,68.6z"/>
	<path class="st0" d="M156.3,55.9l-8.8,25.5h-6l-8.7-25.6h4.5l7.2,22.2l7.4-22.2L156.3,55.9z"/>
	<polygon class="st0" points="167.3,81.5 163,81.5 163.1,59.5 160.8,58.7 160.8,56 167.3,56 	"/>
	<path class="st0" d="M196.6,81.6h-4.3V66.1c0-4.8-2-7.2-5.9-7.2c-1.8,0-3.3,0.5-4.8,1.5c-1.3,1-2.1,2-2.5,3.1v17.9h-4.2l0.1-25.6
		h2.6l0.9,2.8c0.7-0.9,1.8-1.6,3.1-2.2c1.6-0.7,3.2-1.1,4.8-1.1c6.8,0,10.2,3.3,10.2,10L196.6,81.6z"/>
	<path class="st0" d="M226.7,56l-0.1,24.9c0,3.5-1,6.3-3.1,8.4c-2.1,2-5,3-8.7,3c-3,0-5.8-1-8.4-3l2.3-3.2c2.1,1.6,4.1,2.5,6,2.5
		c5.1,0,7.6-2.6,7.6-7.8v-2.1c-2.2,1.8-4.7,2.6-7.5,2.6c-3.4,0-6.2-1.3-8.4-3.7c-2.2-2.5-3.2-5.6-3.2-9.3c0-3.9,1-7.1,3.1-9.4
		c2-2.3,5-3.4,9-3.4c2.7,0,5.2,0.8,7.4,2.3l1-1.8H226.7z M222.5,74.4V62.3c-0.6-0.7-1.5-1.3-2.6-1.9c-1.6-0.8-3.1-1.3-4.6-1.3
		c-5.1,0-7.6,3-7.6,9.1c0,2.7,0.6,4.9,1.8,6.5c1.3,1.8,3.2,2.7,5.8,2.7C217.8,77.5,220.3,76.5,222.5,74.4z"/>
</g>
</svg>
