<?xml version="1.0" encoding="utf-8"?>
<!-- Generator: Adobe Illustrator 22.0.0, SVG Export Plug-In . SVG Version: 6.00 Build 0)  -->
<svg version="1.1" id="Layer_1" xmlns="http://www.w3.org/2000/svg" xmlns:xlink="http://www.w3.org/1999/xlink" x="0px" y="0px"
	 viewBox="0 0 1239 1239" style="enable-background:new 0 0 1239 1239;" xml:space="preserve">
<style type="text/css">
	.st0{fill:#949494;}
	.st1{fill:#FFFFFF;}
	.st2{enable-background:new    ;}
</style>
<g id="open_columbus_dark" transform="translate(-280.085 -47.085)">
	<g id="Ellipse_2" transform="translate(280.085 47.085)">
		<circle class="st0" cx="619.5" cy="619.5" r="619.5"/>
	</g>
	<g id="Group_26" transform="translate(594.436 270.145)">
		<g id="Group_25" transform="translate(0 0)">
			<g id="Innovation">
				<path id="Path_115" class="st1" d="M305.5,30.6c-117.9,0-213.9,95.9-213.9,213.9c-0.2,66.2,30.4,128.7,82.9,169.1l0.6,0.5
					c34.3,29.2,54.1,72,54.1,117v49.5c-16.9-0.1-30.7,13.4-30.8,30.3s13.4,30.7,30.3,30.8c0.2,0,0.3,0,0.5,0v38.2
					c0,0.5,0.1,0.9,0.3,1.4c-0.3,1.7,0.1,3.5,1,5l68.7,104.7c2.3,3.5,7,4.5,10.6,2.2c0.9-0.6,1.6-1.3,2.2-2.2l68.7-104.7
					c0.9-1.5,1.3-3.3,1-5c0.1-0.4,0.2-0.9,0.3-1.4v-38.2c16.9-0.1,30.4-13.9,30.3-30.8c-0.1-16.7-13.6-30.2-30.3-30.3V531
					c0-45,19.7-87.8,54.1-117c0.2-0.2,0.4-0.3,0.5-0.5c52.4-40.4,83.1-102.9,82.9-169C519.4,126.5,423.5,30.6,305.5,30.6L305.5,30.6
					z M305.5,772.8l-15.9-24.3h31.9L305.5,772.8z M331.5,733.2h-51.9l-28.6-43.6h109.2L331.5,733.2z M244.4,672.1v-30.6H275v30.6
					L244.4,672.1z M290.3,672.1v-30.6h30.6v30.6L290.3,672.1z M366.6,672.1h-30.6v-30.6h30.6L366.6,672.1z M397.2,611
					c0,8.4-6.8,15.3-15.3,15.3H229.2c-8.4-0.4-15-7.5-14.6-16c0.4-7.9,6.7-14.2,14.6-14.6h152.8C390.4,595.8,397.2,602.6,397.2,611
					L397.2,611z M241.6,304c7.6-1.7,13.8-4.7,20.8-8.4l5.1-2.6c1.9,0.9,3.9,1.9,5.8,2.9c8.7,4.5,18.5,9.5,31.9,9.6h0.2
					c13.3,0,23.1-5.1,31.8-9.5c2-1,4-2.1,6-3c1.8,0.8,3.7,1.7,5.6,2.6c6.6,3.3,13.5,6,20.6,8.1c-31.4,40.2-48.4,89.7-48.5,140.6
					v136.2h-30.6V444.9C290.2,393.8,273.1,344.3,241.6,304L241.6,304z M426.3,402.1c-0.4,0.3-0.8,0.7-1.1,1.1
					c-35.7,30.9-56.8,75.2-58.2,122.4c-0.1,0.5-0.2,1-0.3,1.5v53.5h-30.6V444.3c0-51.6,18.7-101.6,52.6-140.5
					c2.8-3.2,2.4-8-0.7-10.8c0,0,0,0,0,0c-0.3-0.2-0.6-0.4-0.9-0.5c-1.4-1.4-3.4-2.2-5.4-2.2c-8.5,0-17.6-4.3-26.3-8.5
					c-3.2-1.5-6.2-3-9.2-4.2c-1.9-0.8-4-0.8-5.9,0c-3.4,1.4-6.7,3.1-10.1,4.9c-7.8,4-15.1,7.8-24.7,7.8h-0.1c-9.7,0-17.1-3.8-25-7.9
					c-3.3-1.7-6.6-3.3-10-4.8c-2-0.8-4.3-0.8-6.3,0.2c-3.2,1.6-6,3-8.7,4.4c-9.7,5.1-15.5,8.1-26.5,8.1c-5,0.7-8.6,5.3-7.9,10.3
					c0.2,1.4,0.7,2.7,1.5,3.9c33.9,38.9,52.6,88.8,52.6,140.4v135.6h-30.5V527c0-0.5-0.1-1-0.3-1.5c-1.4-47.1-22.5-91.5-58.2-122.4
					c-0.3-0.4-0.7-0.8-1.1-1.1c-49.2-37.4-78.1-95.8-77.9-157.7C107,134.9,196,45.8,305.5,45.8s198.6,89.1,198.6,198.6
					C504.3,306.3,475.5,364.7,426.3,402.1L426.3,402.1z"/>
				<path id="Path_116" class="st1" d="M611.1,248.8c0-34-33.5-65.6-92.7-88.3c26-58.3,27.3-103.6,3.2-127.8
					c-26.5-26.5-80-22.2-146.5,11.9c-3.8,1.9-5.2,6.5-3.3,10.3c1.9,3.8,6.5,5.2,10.3,3.3c59.4-30.4,107.5-35.9,128.7-14.7
					c19.2,19.2,16.6,59.9-6.8,111.8c-2.7-0.9-5.3-1.8-8-2.7c-4-1.3-8.3,1-9.6,5c-1.3,4,1,8.3,5,9.6c2,0.6,4,1.3,6,2
					c-25.2,50.2-66.1,104.9-116.3,155.2c-10.3,10.3-20.9,20.2-31.8,29.9c-14.3,0.8-28.9,1.4-43.8,1.4c-14.8,0-29.4-0.6-43.7-1.4
					c-10.9-9.7-21.6-19.6-31.9-29.9c-50.7-50.7-91.3-105.4-116.2-155.2c2-0.7,3.9-1.3,5.9-2c4-1.3,6.3-5.5,5-9.6
					c-1.3-4-5.5-6.3-9.6-5l0,0c-2.8,0.9-5.4,1.8-8.1,2.7c-3.5-7.7-6.7-15.6-9.5-23.6C83.2,91,84.2,59.6,100.3,43.6
					c21-21,66.7-16.3,125.2,13c3.8,1.9,8.4,0.4,10.2-3.4c1.9-3.8,0.4-8.4-3.4-10.2l0,0C166.6,10,115.9,6.4,89.5,32.8
					c-20.7,20.7-23,56.7-6.5,104c2.7,7.8,5.9,15.7,9.5,23.8C33.4,183.3,0,214.8,0,248.8c0,35,35.2,66.1,92.4,88.2
					c-25.8,57.9-27.1,103.7-3,127.8c11.6,11.6,28,17.4,48.5,17.4c22.9,0,50.7-7.2,82.3-21.6c27.4-12.5,56.3-29.8,85.3-50.9
					c63.5,46.3,123.9,72.5,167.7,72.5c20.1,0,36.8-5.6,48.5-17.2c24.1-24.1,22.8-69.9-3-127.8C575.8,314.9,611.1,283.8,611.1,248.8
					L611.1,248.8z M305.5,371c8.4,0,16.7-0.2,25-0.5c-8.3,6.9-16.6,13.5-24.9,19.8c-8.5-6.4-16.8-13-25-19.8
					C288.9,370.8,297.1,371,305.5,371z M15.3,248.8c0-27.2,31-54.3,83.9-74.4c25.6,51.8,67.6,108.5,119.9,160.8
					c5.9,5.9,11.8,11.6,17.8,17.2c-46.1-4.3-88.2-12.8-123.1-24.3c1.6-3.2,2.9-6.2,4.7-9.4c2.1-3.7,0.9-8.3-2.8-10.4
					c-3.7-2.1-8.3-0.9-10.4,2.8c-0.1,0.1-0.2,0.3-0.2,0.4c-2.1,4-3.8,7.8-5.7,11.6C47.7,303.7,15.3,277.4,15.3,248.8z M213.9,446.6
					c-52.8,24.1-94.2,26.8-113.6,7.4c-19.3-19.3-16.6-60.2,6.6-111.8c41.2,13.9,92,23.4,148.5,27c12.1,10.6,24.5,20.8,37.2,30.6
					C265.8,419.2,239.2,435.1,213.9,446.6z M510.8,454c-30.3,30.3-108.6,5.6-192.3-54.3c12.7-9.7,25-19.9,37-30.5
					c56.6-3.6,107.5-13.1,148.7-27C527.3,393.8,530.1,434.7,510.8,454L510.8,454z M511.8,323.1c-1.9-3.9-3.6-7.7-5.7-11.7
					c-2.1-3.7-6.8-4.9-10.4-2.8c-3.5,2-4.8,6.4-3,10c1.7,3.2,3.1,6.3,4.7,9.4c-34.9,11.5-77,20-123.2,24.3c6-5.6,12-11.4,17.9-17.2
					c51.9-51.9,94.2-108.7,120-160.8c52.9,20.1,83.8,47.2,83.8,74.4C595.8,277.4,563.4,303.7,511.8,323.1L511.8,323.1z"/>
				<circle id="Ellipse_29" class="st1" cx="107.1" cy="31.5" r="22.9"/>
				<path id="Path_117" class="st1" d="M107.1,62c-16.9,0-30.6-13.7-30.5-30.6c0-16.9,13.7-30.6,30.6-30.5
					c16.9,0,30.5,13.7,30.5,30.5C137.7,48.3,124,62,107.1,62z M107.1,16.2c-8.4,0.4-15,7.5-14.6,16c0.4,7.9,6.7,14.2,14.6,14.6
					c8.4-0.4,15-7.5,14.6-16C121.4,22.9,115,16.5,107.1,16.2z"/>
				<circle id="Ellipse_30" class="st1" cx="580.7" cy="291.1" r="22.9"/>
				<path id="Path_118" class="st1" d="M580.7,321.7c-16.9,0-30.6-13.7-30.5-30.6c0-16.9,13.7-30.6,30.6-30.5
					c16.9,0,30.5,13.7,30.5,30.5C611.2,308,597.6,321.7,580.7,321.7z M580.7,275.9c-8.4,0.4-15,7.5-14.6,16
					c0.4,7.9,6.7,14.2,14.6,14.6c8.4-0.4,15-7.5,14.6-16C594.9,282.5,588.6,276.2,580.7,275.9z"/>
				<circle id="Ellipse_31" class="st1" cx="107.1" cy="459.2" r="22.9"/>
				<path id="Path_119" class="st1" d="M107.1,489.7c-16.9,0-30.6-13.7-30.5-30.6c0-16.9,13.7-30.6,30.6-30.5
					c16.9,0,30.5,13.7,30.5,30.5C137.7,476,124,489.7,107.1,489.7z M107.1,443.9c-8.4,0.4-15,7.5-14.6,16
					c0.4,7.9,6.7,14.2,14.6,14.6c8.4-0.4,15-7.5,14.6-16C121.4,450.6,115,444.3,107.1,443.9z"/>
				<circle id="Ellipse_32" class="st1" cx="305.5" cy="7.6" r="7.6"/>
				<circle id="Ellipse_33" class="st1" cx="542.3" cy="244.4" r="7.6"/>
				<circle id="Ellipse_34" class="st1" cx="68.8" cy="244.4" r="7.6"/>
				<circle id="Ellipse_35" class="st1" cx="473" cy="77" r="7.6"/>
				<circle id="Ellipse_36" class="st1" cx="138.1" cy="411.8" r="7.6"/>
				<circle id="Ellipse_37" class="st1" cx="473" cy="411.8" r="7.6"/>
				<circle id="Ellipse_38" class="st1" cx="138.1" cy="77" r="7.6"/>
				<circle id="Ellipse_39" class="st1" cx="214.9" cy="25.7" r="7.6"/>
				<circle id="Ellipse_40" class="st1" cx="396.1" cy="25.7" r="7.6"/>
				<circle id="Ellipse_41" class="st1" cx="259.4" cy="12.2" r="7.6"/>
				<circle id="Ellipse_42" class="st1" cx="537.8" cy="198.2" r="7.6"/>
				<circle id="Ellipse_43" class="st1" cx="73.3" cy="290.6" r="7.6"/>
				<circle id="Ellipse_44" class="st1" cx="437.1" cy="47.6" r="7.6"/>
				<circle id="Ellipse_45" class="st1" cx="174" cy="441.3" r="7.6"/>
				<circle id="Ellipse_46" class="st1" cx="502.4" cy="375.9" r="7.6"/>
				<circle id="Ellipse_47" class="st1" cx="108.7" cy="112.9" r="7.6"/>
				<circle id="Ellipse_48" class="st1" cx="174" cy="47.5" r="7.6"/>
				<circle id="Ellipse_49" class="st1" cx="437.1" cy="441.3" r="7.6"/>
				<circle id="Ellipse_50" class="st1" cx="502.4" cy="112.9" r="7.6"/>
				<circle id="Ellipse_51" class="st1" cx="108.7" cy="376" r="7.6"/>
				<circle id="Ellipse_52" class="st1" cx="351.7" cy="12.2" r="7.6"/>
				<circle id="Ellipse_53" class="st1" cx="537.8" cy="290.6" r="7.6"/>
				<circle id="Ellipse_54" class="st1" cx="73.3" cy="198.2" r="7.6"/>
			</g>
			<rect id="Rectangle_9" x="248.6" y="270.9" class="st1" width="113" height="36"/>
		</g>
		<g id="skyline" transform="translate(163.986 27.049)">
			<path id="Path_120" class="st1" d="M199.7,261.5h-14c-1.9,0.2-3.3,1.8-3.1,3.7c0.1,1.7,1.5,3,3.1,3.1h14c1.9-0.2,3.3-1.8,3.1-3.7
				C202.7,262.9,201.4,261.6,199.7,261.5z M98.3,261.5h-14c-1.9,0.2-3.3,1.8-3.1,3.7c0.1,1.7,1.5,3,3.1,3.1h14
				c1.9-0.2,3.3-1.8,3.1-3.7C101.3,262.9,100,261.6,98.3,261.5L98.3,261.5z M175.8,261.5h-67.6c-1.9,0-3.4,1.5-3.4,3.4
				s1.5,3.4,3.4,3.4c0,0,0,0,0,0h27v3.4h-13.4c-1.9,0-3.4,1.5-3.4,3.4c0,1.9,1.5,3.4,3.4,3.4c0,0,0,0,0,0H164c1.9,0,3.4-1.5,3.4-3.4
				c0-1.9-1.5-3.4-3.4-3.4h-15.1v-3.4h26.9c1.9,0,3.4-1.5,3.4-3.4C179.2,263,177.7,261.5,175.8,261.5
				C175.8,261.5,175.8,261.5,175.8,261.5L175.8,261.5z"/>
			<path id="Path_121" class="st1" d="M200.5,138.1h2.7c1.9,0,3.4-1.5,3.4-3.4c0-1.9-1.5-3.4-3.4-3.4l0,0h-2.6
				c-1.5,0-2.8-1.3-2.8-2.8c0-1.6,1.3-2.8,2.9-2.8c0,0,0.1,0,0.1,0c1.9,0.2,3.5-1.2,3.7-3.1c0-0.2,0-0.5,0-0.7
				c-0.2-1.5,0.8-2.9,2.3-3.2c0.1,0,0.3,0,0.4,0c0.4,0,0.9,0.1,1.3,0.3c1.6,0.8,3.6,0.2,4.5-1.4c1.6-3,5.3-4.1,8.3-2.5
				c1.9,1,3.1,3,3.2,5.1c0.1,1.8,1.5,3.2,3.3,3.2c2.1,0.1,3.8,1.8,3.8,3.9c0,2.1-1.7,3.9-3.8,3.9c-0.1,0-0.1,0-0.2,0h-3.9
				c-1.9,0-3.4,1.5-3.4,3.4c0,1.9,1.5,3.4,3.4,3.4h4.1c0.1,0,0.3,0,0.4,0c5.7-0.3,10.1-5,10.1-10.7c0-4.7-3.1-8.8-7.5-10.2
				c-1.8-6.9-8.9-10.9-15.8-9.1c-2.5,0.7-4.7,2-6.4,4c-0.5-0.1-1-0.1-1.5-0.1c-4.4,0-8.3,3.1-9.3,7.4c-5.1,1.5-8,6.8-6.5,11.9
				C192.6,135.2,196.3,138,200.5,138.1L200.5,138.1z"/>
			<path id="Path_122" class="st1" d="M55.8,126.2h-5.1c-1.9,0-3.4,1.5-3.4,3.4s1.5,3.4,3.4,3.4h5.1c1.9,0,3.4-1.5,3.4-3.4
				S57.7,126.2,55.8,126.2L55.8,126.2z"/>
			<path id="Path_123" class="st1" d="M74.4,126.2h-5.1c-1.9,0-3.4,1.5-3.4,3.4s1.5,3.4,3.4,3.4h5.1c1.9,0,3.4-1.5,3.4-3.4
				S76.3,126.2,74.4,126.2L74.4,126.2z M55.8,139.8h-5.1c-1.9,0-3.4,1.5-3.4,3.4c0,1.9,1.5,3.4,3.4,3.4h5.1c1.9,0,3.4-1.5,3.4-3.4
				C59.2,141.3,57.7,139.8,55.8,139.8L55.8,139.8z"/>
			<path id="Path_124" class="st1" d="M77.8,143.1c0-1.9-1.5-3.4-3.4-3.4h-5.1c-1.9,0-3.4,1.5-3.4,3.4s1.5,3.4,3.4,3.4h5.1
				C76.3,146.5,77.8,145,77.8,143.1z M55.8,153.3h-5.1c-1.9,0-3.4,1.5-3.4,3.4s1.5,3.4,3.4,3.4h5.1c1.9,0,3.4-1.5,3.4-3.4
				S57.7,153.3,55.8,153.3L55.8,153.3z"/>
			<path id="Path_125" class="st1" d="M55.8,166.8h-5.1c-1.9,0-3.4,1.5-3.4,3.4c0,1.9,1.5,3.4,3.4,3.4h5.1c1.9,0,3.4-1.5,3.4-3.4
				C59.2,168.3,57.7,166.8,55.8,166.8L55.8,166.8z"/>
			<path id="Path_126" class="st1" d="M55.8,180.3h-5.1c-1.9,0-3.4,1.5-3.4,3.4c0,1.9,1.5,3.4,3.4,3.4h5.1c1.9,0,3.4-1.5,3.4-3.4
				C59.2,181.8,57.7,180.3,55.8,180.3L55.8,180.3z"/>
			<path id="Path_127" class="st1" d="M55.8,193.8h-5.1c-1.9,0-3.4,1.5-3.4,3.4c0,1.9,1.5,3.4,3.4,3.4h5.1c1.9,0,3.4-1.5,3.4-3.4
				C59.2,195.4,57.7,193.8,55.8,193.8L55.8,193.8z"/>
			<path id="Path_128" class="st1" d="M55.8,207.4h-5.1c-1.9,0-3.4,1.5-3.4,3.4c0,1.9,1.5,3.4,3.4,3.4c0,0,0,0,0,0h5.1
				c1.9,0,3.4-1.5,3.4-3.4C59.2,208.9,57.7,207.4,55.8,207.4L55.8,207.4z"/>
			<path id="Path_129" class="st1" d="M55.8,220.9h-5.1c-1.9,0-3.4,1.5-3.4,3.4c0,1.9,1.5,3.4,3.4,3.4h5.1c1.9,0,3.4-1.5,3.4-3.4
				C59.2,222.4,57.7,220.9,55.8,220.9L55.8,220.9z"/>
			<path id="Path_130" class="st1" d="M55.8,234.4h-5.1c-1.9,0-3.4,1.5-3.4,3.4c0,1.9,1.5,3.4,3.4,3.4c0,0,0,0,0,0h5.1
				c1.9,0,3.4-1.5,3.4-3.4C59.2,235.9,57.7,234.4,55.8,234.4C55.8,234.4,55.8,234.4,55.8,234.4L55.8,234.4z M148.8,92.4h13.5
				c1.9,0,3.4-1.5,3.4-3.4c0-1.9-1.5-3.4-3.4-3.4h-13.5c-1.9,0-3.4,1.5-3.4,3.4C145.4,90.9,146.9,92.4,148.8,92.4z"/>
			<path id="Path_131" class="st1" d="M148.8,105.9h13.5c1.9,0,3.4-1.5,3.4-3.4c0-1.9-1.5-3.4-3.4-3.4h-13.5c-1.9,0-3.4,1.5-3.4,3.4
				C145.4,104.4,146.9,105.9,148.8,105.9z"/>
			<path id="Path_132" class="st1" d="M148.8,119.5h13.5c1.9,0,3.4-1.5,3.4-3.4c0-1.9-1.5-3.4-3.4-3.4h-13.5c-1.9,0-3.4,1.5-3.4,3.4
				C145.4,117.9,146.9,119.5,148.8,119.5z"/>
			<path id="Path_133" class="st1" d="M148.8,133h13.5c1.9,0,3.4-1.5,3.4-3.4s-1.5-3.4-3.4-3.4h-13.5c-1.9,0-3.4,1.5-3.4,3.4
				S146.9,133,148.8,133z"/>
			<path id="Path_134" class="st1" d="M148.8,146.5h13.5c1.9,0,3.4-1.5,3.4-3.4s-1.5-3.4-3.4-3.4h-13.5c-1.9,0-3.4,1.5-3.4,3.4
				S146.9,146.5,148.8,146.5z M162.3,166.8h-10.1v6.8h10.1c1.9,0,3.4-1.5,3.4-3.4C165.7,168.3,164.2,166.8,162.3,166.8z"/>
			<path id="Path_135" class="st1" d="M162.3,153.3h-10.7c0.4,1.1,0.6,2.2,0.6,3.4v3.4h10.1c1.9,0,3.4-1.5,3.4-3.4
				C165.7,154.8,164.2,153.3,162.3,153.3L162.3,153.3z"/>
			<path id="Path_136" class="st1" d="M98.1,173.6h27c1.9,0,3.4-1.5,3.4-3.4c0-1.9-1.5-3.4-3.4-3.4l0,0h-27c-1.9,0-3.4,1.5-3.4,3.4
				C94.7,172,96.2,173.6,98.1,173.6z"/>
			<path id="Path_137" class="st1" d="M98.1,187.1h27c1.9,0,3.4-1.5,3.4-3.4c0-1.9-1.5-3.4-3.4-3.4c0,0,0,0,0,0h-27
				c-1.9,0-3.4,1.5-3.4,3.4C94.7,185.6,96.2,187.1,98.1,187.1C98,187.1,98.1,187.1,98.1,187.1z M98.1,241.2h27
				c1.9,0,3.4-1.5,3.4-3.4c0-1.9-1.5-3.4-3.4-3.4h-27c-1.9,0-3.4,1.5-3.4,3.4C94.7,239.7,96.2,241.2,98.1,241.2z M78,53.9
				c1.9,0,3.4-1.5,3.4-3.4l0,0v-8.8c0-1.9-1.5-3.4-3.4-3.4c-1.9,0-3.4,1.5-3.4,3.4v8.8C74.6,52.4,76.1,53.9,78,53.9
				C78,53.9,78,53.9,78,53.9z M51.1,62.8c1.3,1.3,3.5,1.3,4.8-0.1c1.3-1.3,1.3-3.5-0.1-4.8c0,0,0,0,0,0l-6.4-6.2
				c-1.3-1.3-3.5-1.3-4.8,0.1c-1.3,1.3-1.3,3.5,0.1,4.8c0,0,0,0,0,0L51.1,62.8z M102.5,63.8c0.9,0,1.7-0.3,2.4-1l6.4-6.2
				c1.3-1.3,1.4-3.4,0.1-4.8s-3.4-1.4-4.8-0.1l0,0l-6.4,6.2c-1.3,1.3-1.4,3.4-0.1,4.8C100.8,63.4,101.6,63.8,102.5,63.8L102.5,63.8z
				"/>
			<path id="Path_138" class="st1" d="M61.6,54.4c0.7,1.7,2.7,2.6,4.4,1.9c1.7-0.7,2.6-2.7,1.9-4.4c0,0,0-0.1,0-0.1l-3.5-8.1
				c-0.7-1.7-2.7-2.6-4.4-1.9c-1.7,0.7-2.6,2.7-1.9,4.4c0,0,0,0.1,0,0.1L61.6,54.4z M90,56.2c1.7,0.7,3.7-0.1,4.4-1.8c0,0,0,0,0,0
				l3.5-8.1c0.7-1.7-0.1-3.7-1.8-4.4c-1.7-0.7-3.7,0.1-4.4,1.8l-3.5,8.1C87.5,53.5,88.3,55.5,90,56.2z M106.9,72.4
				c0.7,1.7,2.7,2.6,4.4,1.8c0,0,0,0,0,0l8.3-3.4c1.7-0.7,2.6-2.7,1.8-4.4c-0.7-1.7-2.7-2.6-4.4-1.8l-8.3,3.4
				C107,68.7,106.2,70.7,106.9,72.4z M36,72l8.4,3.2c1.7,0.7,3.7-0.2,4.4-2c0.7-1.7-0.2-3.7-2-4.4l0,0l-8.4-3.2
				c-1.7-0.7-3.7,0.2-4.4,2C33.4,69.4,34.2,71.3,36,72z"/>
			<path id="Path_139" class="st1" d="M77.8,59.5c-14.4,0.1-26,11.8-25.9,26.1c0,1.9,1.5,3.4,3.4,3.4s3.4-1.5,3.4-3.4l0,0
				c-0.1-10.6,8.4-19.2,19-19.3c10.6-0.1,19.2,8.4,19.3,19c0,0.1,0,0.2,0,0.3c0,1.9,1.5,3.4,3.4,3.4c1.9,0,3.4-1.5,3.4-3.4l0,0
				C103.7,71.3,92.1,59.6,77.8,59.5z"/>
			<path id="Path_140" class="st1" d="M125.1,193.8h-27c-0.9,0-1.8,0.4-2.4,1c1.3,1.8,2.4,3.7,3.2,5.8h26.2c1.9,0,3.4-1.5,3.4-3.4
				C128.5,195.4,127,193.8,125.1,193.8z"/>
			<path id="Path_141" class="st1" d="M162.3,180.3h-10.1v6.8h10.1c1.9,0,3.4-1.5,3.4-3.4C165.7,181.8,164.2,180.3,162.3,180.3
				L162.3,180.3z"/>
			<path id="Path_142" class="st1" d="M162.3,193.8h-10.1v6.8h10.1c1.9,0,3.4-1.5,3.4-3.4C165.7,195.4,164.2,193.8,162.3,193.8
				L162.3,193.8z"/>
			<path id="Path_143" class="st1" d="M162.3,207.4h-10.1v6.8h10.1c1.9,0,3.4-1.5,3.4-3.4C165.7,208.9,164.2,207.4,162.3,207.4
				L162.3,207.4z"/>
			<path id="Path_144" class="st1" d="M162.3,220.9h-10.1v6.8h10.1c1.9,0,3.4-1.5,3.4-3.4C165.7,222.4,164.2,220.9,162.3,220.9
				C162.3,220.9,162.3,220.9,162.3,220.9L162.3,220.9z"/>
			<path id="Path_145" class="st1" d="M162.3,234.4h-10.1v6.8h10.1c1.9,0,3.4-1.5,3.4-3.4C165.7,235.9,164.2,234.4,162.3,234.4
				C162.3,234.4,162.3,234.4,162.3,234.4z M71,156.7c0-1.2,0.2-2.3,0.6-3.4h-2.3c-1.9,0-3.4,1.5-3.4,3.4s1.5,3.4,3.4,3.4H71
				L71,156.7z"/>
			<path id="Path_146" class="st1" d="M71,166.8h-1.7c-1.9,0-3.4,1.5-3.4,3.4c0,1.9,1.5,3.4,3.4,3.4H71L71,166.8z"/>
			<path id="Path_147" class="st1" d="M65.9,183.7c0,1.9,1.5,3.4,3.4,3.4H71v-6.8h-1.7C67.4,180.3,65.9,181.8,65.9,183.7
				C65.9,183.7,65.9,183.7,65.9,183.7z"/>
			<path id="Path_148" class="st1" d="M125.1,220.9h-24.3c-0.4,2.3-1.1,4.6-2,6.8h26.2c1.9,0,3.4-1.5,3.4-3.4
				C128.5,222.4,127,220.9,125.1,220.9z"/>
			<path id="Path_149" class="st1" d="M125.1,207.4h-24.3c0.4,2.2,0.6,4.5,0.6,6.8h23.7c1.9,0,3.4-1.5,3.4-3.4
				C128.5,208.9,127,207.4,125.1,207.4z"/>
			<circle id="Ellipse_55" class="st1" cx="3.4" cy="251.3" r="3.4"/>
			<path id="Path_150" class="st1" d="M18.6,247.9h-5.1c-1.9,0-3.4,1.5-3.4,3.4c0,1.9,1.5,3.4,3.4,3.4c0,0,0,0,0,0h5.1
				c1.9,0,3.4-1.5,3.4-3.4C22,249.5,20.5,247.9,18.6,247.9C18.6,247.9,18.6,247.9,18.6,247.9z M270.5,247.9h-5.1
				c-1.9,0-3.4,1.5-3.4,3.4c0,1.9,1.5,3.4,3.4,3.4c0,0,0,0,0,0h5.1c1.9,0,3.4-1.5,3.4-3.4C273.9,249.5,272.4,247.9,270.5,247.9
				C270.5,247.9,270.5,247.9,270.5,247.9z"/>
			<circle id="Ellipse_56" class="st1" cx="280.6" cy="251.3" r="3.4"/>
			<path id="Path_151" class="st1" d="M254.8,247.9h-16.4v-20.3h8.5c1.9,0,3.4-1.5,3.4-3.4v-13.5c0-1.9-1.5-3.4-3.4-3.4h-8.5v-37.2
				c0-1.9-1.5-3.4-3.4-3.4h-13.5c-1.9,0-3.4,1.5-3.4,3.4v16c-15.7,10.1-30.7,5.3-38.9,1V78.9c0-3.7-3-6.8-6.8-6.8h-33.8
				c-3.7,0-6.8,3-6.8,6.8v67.6h6.8V78.9h33.8v169.1h-27v-91.3c0-1.9-1.5-3.4-3.4-3.4h-16.9v-10.1c0-3.7-3-6.8-6.8-6.8H115v-10.1
				c0-1.9-1.5-3.4-3.4-3.4c-1.9,0-3.4,1.5-3.4,3.4v10.1h-3.4c-3.7,0-6.8,3-6.8,6.8v10.1H81.1c-1.9,0-3.4,1.5-3.4,3.4v30.8
				c2.2-0.5,4.5-0.5,6.8,0V160h54.1v87.9H84.5v-14.2c5.9-2.2,10.1-10,10.1-19.6c0-11.4-5.9-20.3-13.5-20.3s-13.5,8.9-13.5,20.3
				c0,9.6,4.3,17.4,10.1,19.6v14.2H40.6V119.5h44v27h6.8v-27c0-3.7-3-6.8-6.8-6.8h-44c-3.7,0-6.8,3-6.8,6.8v128.5h-4.6
				c-1.9-0.2-3.6,1.1-3.8,2.9c-0.2,1.9,1.1,3.6,2.9,3.8c0.3,0,0.6,0,0.9,0h225.6c1.9,0.2,3.6-1.1,3.8-2.9c0.2-1.9-1.1-3.6-2.9-3.8
				C255.4,247.9,255.1,247.9,254.8,247.9z M118.3,153.3h-13.5v-10.1h13.5V153.3z M74.4,214.1c0-7.7,3.6-13.5,6.8-13.5
				s6.8,5.8,6.8,13.5s-3.6,13.5-6.8,13.5S74.4,221.9,74.4,214.1z M224.8,173.6h6.8v33.8h-6.8V173.6z M179.2,194.5
				c6.1,2.8,12.8,4.2,19.5,4.3c6.8,0,13.4-1.7,19.4-4.9v13.4h-38.9V194.5z M179.2,214.1h64.2v6.8h-64.2V214.1z M179.2,247.9v-20.3
				h38.9v20.3L179.2,247.9z M224.8,247.9v-20.3h6.8v20.3L224.8,247.9z M211.8,65.4c2.8,0,5.1-2.3,5.1-5.1s-2.3-5.1-5.1-5.1
				c-2.8,0-5.1,2.3-5.1,5.1C206.8,63.1,209,65.4,211.8,65.4L211.8,65.4z M211.8,57.8c1.4,0,2.5,1.1,2.5,2.5c0,1.4-1.1,2.5-2.5,2.5
				c-1.4,0-2.5-1.1-2.5-2.5C209.3,58.9,210.4,57.8,211.8,57.8C211.8,57.8,211.8,57.8,211.8,57.8L211.8,57.8z M274.4,43.4
				c-1.9,0-3.4,1.5-3.4,3.4s1.5,3.4,3.4,3.4c1.9,0,3.4-1.5,3.4-3.4C277.8,44.9,276.3,43.4,274.4,43.4L274.4,43.4z M274.4,48.5
				c-0.9,0-1.7-0.8-1.7-1.7c0-0.9,0.8-1.7,1.7-1.7c0.9,0,1.7,0.8,1.7,1.7C276.1,47.7,275.3,48.5,274.4,48.5
				C274.4,48.5,274.4,48.5,274.4,48.5L274.4,48.5z M174.6,6.2c-1.9,0-3.4,1.5-3.4,3.4c0,1.9,1.5,3.4,3.4,3.4c1.9,0,3.4-1.5,3.4-3.4
				c0,0,0,0,0,0C178,7.7,176.5,6.2,174.6,6.2z M174.6,11.3c-0.9,0-1.7-0.8-1.7-1.7s0.8-1.7,1.7-1.7s1.7,0.8,1.7,1.7c0,0,0,0,0,0
				C176.3,10.5,175.6,11.3,174.6,11.3z M259.2,92.4c-1.9,0-3.4,1.5-3.4,3.4c0,1.9,1.5,3.4,3.4,3.4s3.4-1.5,3.4-3.4
				C262.6,93.9,261,92.4,259.2,92.4C259.2,92.4,259.2,92.4,259.2,92.4L259.2,92.4z M259.2,97.5c-0.9,0-1.7-0.8-1.7-1.7
				c0-0.9,0.8-1.7,1.7-1.7c0.9,0,1.7,0.8,1.7,1.7C260.9,96.7,260.1,97.5,259.2,97.5L259.2,97.5z M9,40c0-1.9-1.5-3.4-3.4-3.4
				S2.2,38.1,2.2,40c0,1.9,1.5,3.4,3.4,3.4S9,41.9,9,40L9,40z M3.9,40c0-0.9,0.8-1.7,1.7-1.7s1.7,0.8,1.7,1.7s-0.8,1.7-1.7,1.7
				c0,0,0,0,0,0C4.7,41.7,3.9,40.9,3.9,40z"/>
			<path id="Path_152" class="st1" d="M18.4,109.3l2.5-3.3l-1.6-0.9l-1.6,3.7h-0.1l-1.6-3.7l-1.6,0.9l2.5,3.2v0.1l-3.9-0.5v1.8
				l3.9-0.5v0.1l-2.5,3.2l1.5,1l1.7-3.7h0.1l1.6,3.7l1.7-1l-2.5-3.2v-0.1l4,0.5v-1.8L18.4,109.3L18.4,109.3z"/>
			<path id="Path_153" class="st1" d="M55.9,2.9l-1.4,1.9l0.9,0.5l1-2.1h0l0.9,2.1l1-0.5l-1.5-1.8v0l2.3,0.3v-1l-2.3,0.3v0l1.4-1.9
				L57.3,0l-0.9,2.1h0L55.4,0l-0.9,0.5l1.4,1.9v0l-2.2-0.3v1L55.9,2.9L55.9,2.9z"/>
			<path id="Path_154" class="st1" d="M247.3,15.9v-1.8l-3.9,0.5v-0.1l2.5-3.2l-1.6-0.9l-1.6,3.6h-0.1l-1.6-3.6l-1.6,0.9l2.4,3.2
				v0.1l-3.8-0.5v1.8l3.8-0.5v0.1l-2.5,3.2l1.5,0.9l1.7-3.7h0.1l1.6,3.6l1.6-0.9l-2.5-3.1v-0.1L247.3,15.9z"/>
			<path id="Path_155" class="st1" d="M129.7,41l2.1-2.8l-1.3-0.8l-1.4,3.1h0l-1.4-3.1l-1.4,0.8l2.1,2.7v0l-3.3-0.4v1.5l3.3-0.4v0
				l-2.1,2.7l1.3,0.8l1.5-3.2h0l1.3,3.1l1.4-0.8l-2.1-2.7v0l3.4,0.4v-1.5L129.7,41L129.7,41z"/>
		</g>
	</g>
	<g id="Group_28" transform="translate(784.316 1102.109)">
		<g class="st2">
			<path class="st1" d="M30.3,101.9l4.9,1.2c-1,4-2.9,7.1-5.6,9.3c-2.7,2.1-6,3.2-9.8,3.2c-4,0-7.3-0.8-9.8-2.5s-4.4-4-5.7-7.1
				c-1.3-3.1-2-6.4-2-10c0-3.9,0.7-7.3,2.2-10.1c1.5-2.9,3.6-5.1,6.3-6.6c2.7-1.5,5.7-2.2,9-2.2c3.7,0,6.9,0.9,9.4,2.8
				s4.3,4.6,5.3,8l-4.8,1.1c-0.9-2.7-2.1-4.7-3.8-5.9c-1.6-1.2-3.7-1.9-6.2-1.9c-2.9,0-5.3,0.7-7.2,2.1c-1.9,1.4-3.3,3.2-4,5.5
				c-0.8,2.3-1.2,4.7-1.2,7.1c0,3.2,0.5,5.9,1.4,8.3c0.9,2.4,2.4,4.1,4.3,5.3c1.9,1.2,4.1,1.8,6.3,1.8c2.8,0,5.1-0.8,7-2.4
				C28.4,107.4,29.7,105.1,30.3,101.9z"/>
			<path class="st1" d="M39,101.5c0-5,1.4-8.7,4.2-11.1c2.3-2,5.1-3,8.5-3c3.7,0,6.7,1.2,9.1,3.6c2.4,2.4,3.5,5.8,3.5,10.1
				c0,3.5-0.5,6.2-1.6,8.2s-2.6,3.5-4.5,4.6c-2,1.1-4.2,1.7-6.5,1.7c-3.8,0-6.8-1.2-9.2-3.6C40.2,109.5,39,106,39,101.5z
				 M43.7,101.5c0,3.5,0.8,6,2.3,7.8c1.5,1.7,3.4,2.6,5.7,2.6c2.3,0,4.2-0.9,5.7-2.6c1.5-1.7,2.3-4.4,2.3-7.9c0-3.3-0.8-5.9-2.3-7.6
				c-1.5-1.7-3.4-2.6-5.6-2.6c-2.3,0-4.2,0.9-5.7,2.6C44.5,95.5,43.7,98,43.7,101.5z"/>
			<path class="st1" d="M69.6,115V77.8h4.6V115H69.6z"/>
			<path class="st1" d="M98.9,115v-4c-2.1,3-5,4.6-8.6,4.6c-1.6,0-3.1-0.3-4.5-0.9c-1.4-0.6-2.4-1.4-3.1-2.3
				c-0.7-0.9-1.1-2.1-1.4-3.4c-0.2-0.9-0.3-2.3-0.3-4.3V88h4.6v15c0,2.4,0.1,4,0.3,4.8c0.3,1.2,0.9,2.1,1.8,2.8c0.9,0.7,2.1,1,3.5,1
				s2.7-0.4,3.9-1.1c1.2-0.7,2.1-1.7,2.6-2.9c0.5-1.2,0.7-3,0.7-5.3V88h4.6v27H98.9z"/>
			<path class="st1" d="M110.1,115V88h4.1v3.8c0.8-1.3,2-2.4,3.4-3.2c1.4-0.8,3-1.2,4.8-1.2c2,0,3.6,0.4,4.9,1.2s2.2,2,2.7,3.5
				c2.1-3.1,4.9-4.7,8.3-4.7c2.7,0,4.7,0.7,6.2,2.2c1.4,1.5,2.2,3.8,2.2,6.8V115h-4.5V98c0-1.8-0.1-3.1-0.4-3.9s-0.8-1.5-1.6-1.9
				c-0.8-0.5-1.7-0.7-2.7-0.7c-1.9,0-3.5,0.6-4.7,1.9c-1.3,1.3-1.9,3.3-1.9,6.1V115h-4.6V97.5c0-2-0.4-3.6-1.1-4.6
				c-0.7-1-2-1.5-3.7-1.5c-1.3,0-2.5,0.3-3.6,1s-1.9,1.7-2.4,3c-0.5,1.3-0.7,3.2-0.7,5.6v14H110.1z"/>
			<path class="st1" d="M157.7,115h-4.2V77.8h4.6V91c1.9-2.4,4.4-3.6,7.4-3.6c1.7,0,3.2,0.3,4.7,1s2.7,1.6,3.7,2.8s1.7,2.7,2.2,4.4
				c0.5,1.7,0.8,3.5,0.8,5.5c0,4.6-1.1,8.2-3.4,10.7s-5,3.8-8.2,3.8c-3.2,0-5.7-1.3-7.5-4V115z M157.6,101.3c0,3.2,0.4,5.6,1.3,7
				c1.4,2.4,3.4,3.5,5.8,3.5c2,0,3.7-0.9,5.2-2.6c1.5-1.7,2.2-4.3,2.2-7.8c0-3.5-0.7-6.1-2.1-7.8s-3.1-2.5-5.1-2.5
				c-2,0-3.7,0.9-5.2,2.6C158.4,95.5,157.6,98,157.6,101.3z"/>
			<path class="st1" d="M200.1,115v-4c-2.1,3-5,4.6-8.6,4.6c-1.6,0-3.1-0.3-4.5-0.9s-2.4-1.4-3.1-2.3s-1.1-2.1-1.4-3.4
				c-0.2-0.9-0.3-2.3-0.3-4.3V88h4.6v15c0,2.4,0.1,4,0.3,4.8c0.3,1.2,0.9,2.1,1.8,2.8c0.9,0.7,2.1,1,3.5,1s2.7-0.4,3.9-1.1
				c1.2-0.7,2.1-1.7,2.6-2.9s0.7-3,0.7-5.3V88h4.6v27H200.1z"/>
			<path class="st1" d="M209.5,106.9l4.5-0.7c0.3,1.8,1,3.2,2.1,4.2s2.8,1.4,4.9,1.4c2.1,0,3.7-0.4,4.7-1.3s1.5-1.9,1.5-3
				c0-1-0.4-1.8-1.3-2.4c-0.6-0.4-2.2-0.9-4.7-1.5c-3.4-0.8-5.7-1.6-7-2.2s-2.3-1.5-2.9-2.6s-1-2.3-1-3.6c0-1.2,0.3-2.3,0.8-3.3
				s1.3-1.9,2.2-2.6c0.7-0.5,1.7-1,2.9-1.3s2.5-0.5,3.9-0.5c2.1,0,4,0.3,5.6,0.9s2.8,1.4,3.5,2.5s1.3,2.4,1.6,4.2l-4.5,0.6
				c-0.2-1.4-0.8-2.5-1.8-3.2s-2.3-1.2-4.1-1.2c-2.1,0-3.6,0.3-4.5,1c-0.9,0.7-1.3,1.5-1.3,2.4c0,0.6,0.2,1.1,0.6,1.6
				c0.4,0.5,1,0.9,1.8,1.2c0.5,0.2,1.8,0.6,4,1.2c3.2,0.9,5.5,1.6,6.8,2.1s2.3,1.3,3,2.4c0.7,1,1.1,2.4,1.1,3.9c0,1.5-0.4,3-1.3,4.3
				s-2.2,2.4-3.8,3.1s-3.6,1.1-5.7,1.1c-3.5,0-6.2-0.7-8-2.2S210,109.8,209.5,106.9z"/>
		</g>
		<g class="st2">
			<path class="st1" d="M59.3,34.8c0-6.2,1.7-11,5-14.5c3.3-3.5,7.6-5.2,12.8-5.2c3.4,0,6.5,0.8,9.3,2.5c2.8,1.6,4.9,3.9,6.3,6.9
				s2.2,6.3,2.2,10c0,3.8-0.8,7.2-2.3,10.1s-3.7,5.2-6.5,6.8s-5.8,2.3-9,2.3c-3.5,0-6.6-0.8-9.4-2.5c-2.8-1.7-4.8-4-6.3-6.9
				S59.3,38.1,59.3,34.8z M64.4,34.9c0,4.5,1.2,8,3.6,10.6s5.4,3.9,9.1,3.9c3.7,0,6.8-1.3,9.2-3.9c2.4-2.6,3.6-6.3,3.6-11.1
				c0-3-0.5-5.7-1.5-7.9c-1-2.3-2.5-4-4.5-5.3c-2-1.2-4.2-1.9-6.6-1.9c-3.5,0-6.5,1.2-9,3.6S64.4,29.3,64.4,34.9z"/>
			<path class="st1" d="M100.6,63.3V26h4.2v3.5c1-1.4,2.1-2.4,3.3-3.1c1.2-0.7,2.7-1,4.5-1c2.3,0,4.3,0.6,6.1,1.8
				c1.8,1.2,3.1,2.9,4,5c0.9,2.2,1.3,4.5,1.3,7.1c0,2.8-0.5,5.2-1.5,7.5s-2.4,3.9-4.3,5.1s-3.9,1.8-6,1.8c-1.5,0-2.9-0.3-4.1-1
				c-1.2-0.6-2.2-1.5-3-2.4v13.1H100.6z M104.8,39.6c0,3.5,0.7,6,2.1,7.7c1.4,1.7,3.1,2.5,5.1,2.5c2,0,3.8-0.9,5.2-2.6
				s2.2-4.4,2.2-8c0-3.4-0.7-6-2.1-7.7s-3.1-2.6-5.1-2.6c-1.9,0-3.7,0.9-5.2,2.7S104.8,36.2,104.8,39.6z"/>
			<path class="st1" d="M148,44.3l4.7,0.6c-0.7,2.8-2.1,4.9-4.1,6.4c-2,1.5-4.6,2.3-7.7,2.3c-3.9,0-7.1-1.2-9.4-3.6
				s-3.5-5.8-3.5-10.2c0-4.5,1.2-8.1,3.5-10.6s5.4-3.8,9.1-3.8c3.6,0,6.6,1.2,8.8,3.7s3.4,5.9,3.4,10.4c0,0.3,0,0.7,0,1.2h-20.1
				c0.2,3,1,5.2,2.5,6.8c1.5,1.6,3.4,2.4,5.6,2.4c1.7,0,3.1-0.4,4.3-1.3C146.4,47.6,147.3,46.2,148,44.3z M133,36.9h15.1
				c-0.2-2.3-0.8-4-1.7-5.1c-1.5-1.8-3.3-2.6-5.7-2.6c-2.1,0-3.9,0.7-5.3,2.1S133.2,34.6,133,36.9z"/>
			<path class="st1" d="M158.5,53V26h4.1v3.8c2-3,4.8-4.4,8.6-4.4c1.6,0,3.1,0.3,4.5,0.9s2.4,1.3,3.1,2.3c0.7,0.9,1.2,2.1,1.4,3.4
				c0.2,0.8,0.3,2.3,0.3,4.4V53h-4.6V36.6c0-1.9-0.2-3.3-0.5-4.2s-1-1.7-1.9-2.2s-2-0.8-3.2-0.8c-1.9,0-3.6,0.6-5,1.9
				s-2.1,3.6-2.1,7V53H158.5z"/>
		</g>
	</g>
</g>
</svg>
