<?xml version="1.0" encoding="utf-8"?>
<!-- Generator: Adobe Illustrator 22.0.0, SVG Export Plug-In . SVG Version: 6.00 Build 0)  -->
<svg version="1.1"
	 id="svg2" xmlns:cc="http://creativecommons.org/ns#" xmlns:dc="http://purl.org/dc/elements/1.1/" xmlns:rdf="http://www.w3.org/1999/02/22-rdf-syntax-ns#" xmlns:svg="http://www.w3.org/2000/svg"
	 xmlns="http://www.w3.org/2000/svg" xmlns:xlink="http://www.w3.org/1999/xlink" x="0px" y="0px" viewBox="0 0 853.3 853.3"
	 style="enable-background:new 0 0 853.3 853.3;" xml:space="preserve">
<style type="text/css">
	.st0{fill:#949494;}
	.st1{enable-background:new    ;}
</style>
<g id="g10" transform="matrix(1.3333333,0,0,-1.3333333,0,853.33333)">
	<g id="g12">
		<g>
			<g>
				<g id="g14">
					<g id="g20" transform="translate(83.3682,398.3213)">
						<path id="path22" class="st0" d="M0,0h24.6v-17.8c5,12.2,13.1,18.3,27.7,17.6v-21.1c-16.4,0-27.7-13.3-27.7-34.3v-32.6H0V0z"
							/>
					</g>
					<g id="g24" transform="translate(46.9961,431.6465)">
						<path id="path26" class="st0" d="M0,0v-152.7h46.5v17.5h-29v117.7h29V0H0z"/>
					</g>
					<g id="g28" transform="translate(245.0635,431.6465)">
						<path id="path30" class="st0" d="M0,0v-152.7h-46.5v17.5h29v117.7h-29V0H0z"/>
					</g>
					<g id="g32" transform="translate(137.6787,353.1123)">
						<path id="path34" class="st0" d="M0,0v0.3c0,24.6,16.2,44.9,39.5,44.9c26.7,0,38.9-22.4,38.9-46.8c0-1.9-0.2-4.2-0.3-6.4H22.5
							c2.2-11.1,9.4-16.9,19.5-16.9c7.6,0,13.3,2.9,19.6,9.2l13-12.4c-7.5-10-18.4-16.4-32.9-16.4C17.7-44.6,0-26.4,0,0 M56.3,8.8
							C54.9,19.7,49,27.1,39.4,27.1c-9.4,0-15.5-7.2-17.3-18.3L56.3,8.8z"/>
					</g>
				</g>
			</g>
		</g>
	</g>
	<g class="st1">
		<path class="st0" d="M608.2,324.6c1.2,0,2.3-0.3,3.4-0.9c1.1-0.6,2-1.4,2.6-2.4c0.6-1.1,0.9-2.2,0.9-3.3c0-1.1-0.3-2.2-0.9-3.3
			c-0.6-1.1-1.5-1.9-2.6-2.4c-1.1-0.6-2.3-0.9-3.5-0.9c-1.2,0-2.4,0.3-3.5,0.9c-1.1,0.6-2,1.4-2.6,2.4c-0.6,1.1-0.9,2.1-0.9,3.3
			c0,1.2,0.3,2.3,0.9,3.3c0.6,1.1,1.5,1.9,2.6,2.4S607,324.6,608.2,324.6z M608.2,323.5c-1,0-1.9-0.2-2.9-0.7s-1.6-1.2-2.2-2
			c-0.5-0.9-0.8-1.8-0.8-2.8c0-1,0.3-1.9,0.8-2.7s1.2-1.6,2.2-2c0.9-0.5,1.9-0.7,2.9-0.7c1,0,2,0.2,2.9,0.7c0.9,0.5,1.6,1.2,2.1,2
			s0.8,1.8,0.8,2.7c0,1-0.3,1.9-0.8,2.8c-0.5,0.9-1.2,1.6-2.2,2C610.1,323.3,609.2,323.5,608.2,323.5z M610.4,316.9l1.1-0.3
			c-0.2-0.7-0.6-1.3-1.2-1.7c-0.6-0.4-1.3-0.7-2.2-0.7c-1.1,0-2,0.3-2.6,1c-0.7,0.7-1,1.6-1,2.8c0,0.8,0.2,1.4,0.5,2
			c0.3,0.6,0.7,1,1.3,1.3c0.6,0.3,1.2,0.4,1.9,0.4c0.8,0,1.5-0.2,2-0.6c0.5-0.4,0.9-0.9,1.1-1.5l-1.1-0.3c-0.2,0.4-0.5,0.8-0.8,1
			c-0.4,0.2-0.8,0.3-1.3,0.3c-0.7,0-1.3-0.2-1.7-0.7c-0.5-0.5-0.7-1.2-0.7-2.1c0-0.9,0.2-1.6,0.6-2c0.4-0.5,1-0.7,1.7-0.7
			c0.6,0,1,0.2,1.5,0.5C610,316,610.3,316.4,610.4,316.9z"/>
	</g>
	<g id="g40">
		<g>
			<g>
				<g id="g42">
					<g id="g48" transform="translate(546.4863,335.8398)">
						<path id="path50" class="st0" d="M0,0v41.7h-10.5v21.4H0v22.5h25V63.1h20.7V41.7H25V4.1c0-5.7,2.5-8.5,8-8.5
							c4.6,0,8.7,1.2,12.3,3.1v-20C40-24.4,34-26.4,25.6-26.4C10.3-26.4,0-20.4,0,0"/>
					</g>
					<g id="g52" transform="translate(474.9121,398.8076)">
						<path id="path54" class="st0" d="M0,0h24.6v-17.7c5,12.1,13.1,18.2,27.7,17.6v-21c-16.3,0-27.7-13.3-27.7-34.2v-32.4H0V0z"/>
					</g>
					<g id="g56" transform="translate(456.71,389.0439)">
						<path id="path58" class="st0" d="M0,0c-6.2,6.2-15.9,9.7-29.3,9.7c-14.7,0-24.1-2.8-33.7-7l6.2-18.8c6,2.2,11.4,3.8,17.7,4.4
							c5.3,0.8,11.7,0.7,19.5-0.7l2.2,9.5l14.2-21.2l-22-12.4l2.5,10.7c-5.2,0.3-9.5,0.7-13.6,0.8c-20.1-0.3-34.1-9-34.1-27.7V-53
							c0-17.2,13.4-26.6,29.8-26.6c12,0,20.2,4.4,26.2,11V-78H9.4v50.4C9.4-16,6.5-6.5,0,0 M-14.7-47.5c0-8.7-7.6-14.9-18.9-14.9
							c-7.8,0-13.2,3.8-13.2,10.3v0.3c0,7.6,6.4,11.8,16.7,11.8c5.9,0,11.3-1.3,15.4-3.2L-14.7-47.5z"/>
					</g>
					<g id="g60" transform="translate(337.2793,335.8398)">
						<path id="path62" class="st0" d="M0,0v41.7h-10.5v21.4H0v22.5h25V63.1h20.7V41.7H25V4.1c0-5.7,2.5-8.5,8-8.5
							c4.6,0,8.7,1.2,12.3,3.1v-20C40-24.4,34-26.4,25.6-26.4C10.3-26.4,0-20.4,0,0"/>
					</g>
					<g id="g64" transform="translate(253.6211,322.3682)">
						<path id="path66" class="st0" d="M0,0l10.5,16.2C19.9,9.4,29.8,5.8,37.9,5.8c7.1,0,10.4,2.6,10.4,6.5v0.3c0,5.3-8.4,7.1-18,10
							C18.1,26.2,4.4,31.9,4.4,48.7V49c0,17.6,14.2,27.5,31.7,27.5c11,0,23-3.7,32.4-10l-9.4-17c-8.6,5-17.2,8.1-23.5,8.1
							c-6,0-9.1-2.6-9.1-6v-0.3c0-4.9,8.3-7.1,17.6-10.4c12.1-4,26.2-9.9,26.2-25.7v-0.3c0-19.3-14.4-28-33.2-28
							C25.1-13.1,11.5-9.1,0,0"/>
					</g>
				</g>
			</g>
		</g>
	</g>
</g>
</svg>
