<?xml version="1.0" encoding="UTF-8"?>
<svg width="80px" height="80px" viewBox="0 0 80 80" version="1.1" xmlns="http://www.w3.org/2000/svg" xmlns:xlink="http://www.w3.org/1999/xlink">
    <!-- Generator: Sketch 63.1 (92452) - https://sketch.com -->
    <title>slack</title>
    <desc>Created with Sketch.</desc>
    <defs>
        <path d="M76.8316804,29.0479436 C84.9189379,55.9029787 77.9529457,68.7108884 50.9720373,76.8315301 C24.1037208,84.9182843 11.2922503,77.9542282 3.16935078,50.980819 C-4.91965165,24.1199705 2.0463406,11.3120608 29.027249,3.19141907 C55.9721753,-4.91839288 68.7338914,1.97960187 76.8316804,29.0479436 Z M30.9511241,9.57995941 C7.48512538,16.642693 2.53756495,25.7394455 9.55966728,49.0574786 C16.6243645,72.5169551 25.7236461,77.4631404 49.0481622,70.4429898 C72.5141609,63.3802562 77.4617213,54.2835037 70.439619,30.9654706 C63.3960293,7.42100232 54.35714,2.53527925 30.9511241,9.57995941 Z M40.8155411,16.8085259 C42.5580648,16.2088624 44.4569179,17.134941 45.0567482,18.8769803 L45.0567482,18.8769803 L47.231,25.192 L53.5621892,23.013284 C55.2446258,22.4342985 57.0727964,23.2776457 57.7367706,24.9044672 L57.8033962,25.0817384 C58.4032265,26.8237777 57.4768904,28.722103 55.7343667,29.3217666 L55.7343667,29.3217666 L49.403,31.5 L52.651,40.932 L58.9678357,38.7586914 C60.6502724,38.1797059 62.478443,39.0230531 63.1424172,40.6498746 L63.2090428,40.8271458 C63.808873,42.5691852 62.882537,44.4675105 61.1400133,45.067174 L61.1400133,45.067174 L54.823,47.241 L57.0025597,53.570251 C57.5817062,55.25222 56.7381244,57.0798825 55.1108507,57.7436721 L54.9335302,57.8102792 C53.1910065,58.4099427 51.2921534,57.4838642 50.6923232,55.7418248 L50.6923232,55.7418248 L48.513,49.412 L39.078,52.659 L41.2527747,58.974395 C41.8319211,60.6563641 40.9883394,62.4840265 39.3610657,63.1478162 L39.1837452,63.2144233 C37.4412215,63.8140868 35.5423684,62.8880082 34.9425381,61.1459689 L34.9425381,61.1459689 L32.768,54.83 L26.4370971,57.0096652 C24.7546605,57.5886507 22.9264899,56.7453035 22.2625157,55.118482 L22.1958901,54.9412108 C21.5960598,53.1991715 22.5223959,51.3008462 24.2649196,50.7011826 L24.2649196,50.7011826 L30.596,48.522 L27.348,39.09 L21.0314506,41.2642578 C19.3490139,41.8432433 17.5208433,40.9998961 16.8568691,39.3730746 L16.7902435,39.1958034 C16.1904133,37.453764 17.1167493,35.5554387 18.859273,34.9557752 L18.859273,34.9557752 L25.175,32.781 L22.9967266,26.4526982 C22.4175801,24.7707292 23.2611618,22.9430667 24.8884356,22.2792771 L25.0657561,22.21267 C26.8082798,21.6130065 28.7071329,22.539085 29.3069631,24.2811244 L29.3069631,24.2811244 L31.485,30.61 L40.921,27.363 L38.7465116,21.0485542 C38.1673652,19.3665851 39.0109469,17.5389227 40.6382206,16.875133 Z M43.093,33.671 L33.658,36.919 L36.905,46.35 L46.341,43.103 L43.093,33.671 Z" id="path-1"></path>
    </defs>
    <g id="Page-1" stroke="none" stroke-width="1" fill="none" fill-rule="evenodd">
        <mask id="mask-2" fill="white">
            <use xlink:href="#path-1"></use>
        </mask>
        <use id="slack" fill="#949494" fill-rule="nonzero" xlink:href="#path-1"></use>
    </g>
</svg>