<?xml version="1.0" encoding="utf-8"?>
<!-- Generator: Adobe Illustrator 22.0.0, SVG Export Plug-In . SVG Version: 6.00 Build 0)  -->
<svg version="1.1" id="Layer_1" xmlns="http://www.w3.org/2000/svg" xmlns:xlink="http://www.w3.org/1999/xlink" x="0px" y="0px"
	 viewBox="0 0 135 175" style="enable-background:new 0 0 135 175;" xml:space="preserve">
<style type="text/css">
	.st0{fill:#949494;}
	.st1{fill:#FFFFFF;}
</style>
<g>
	<path class="st0" d="M0,180h135V0H0V180z"/>
	<path class="st1" d="M20.9,74.7l6.3-7.6c4.4,3.6,9,6,14.5,6c4.4,0,7-1.8,7-4.6v-0.1c0-2.7-1.7-4.1-9.8-6.2
		c-9.8-2.5-16.1-5.3-16.1-15v-0.1c0-8.9,7.1-14.8,17-14.8c7.1,0,13.1,2.2,18.1,6.2l-5.6,8.1c-4.3-3-8.5-4.8-12.7-4.8
		c-4.1,0-6.3,1.9-6.3,4.3V46c0,3.2,2.1,4.3,10.5,6.5c9.9,2.6,15.4,6.2,15.4,14.7v0.1c0,9.8-7.4,15.2-17.9,15.2
		C34.1,82.6,26.7,80,20.9,74.7 M64,32.8h11.5l12.8,20.8l12.8-20.8h11.5v49.1H102V49.8l-13.7,21H88L74.5,50v31.9H64L64,32.8z
		 M46.6,111.2c5.4,0,8.4-2.9,8.4-7.1V104c0-4.7-3.3-7.2-8.6-7.2H35.4v14.4L46.6,111.2L46.6,111.2z M24.4,86.8h22.9
		c6.4,0,11.3,1.8,14.6,5.1c2.8,2.8,4.3,6.7,4.3,11.5v0.1c0,8.1-4.4,13.2-10.7,15.6L67.7,137H54.8L44.1,121h-8.7V137h-11V86.8z
		 M82.8,97H67.1V86.8H110V97H93.8v40h-11V97z M28.3,155.2c-0.8,0-1.5-0.1-2.2-0.4c-0.7-0.3-1.2-0.7-1.7-1.2
		c-0.5-0.5-0.9-1.1-1.1-1.8c-0.3-0.7-0.4-1.4-0.4-2.2v0c0-0.8,0.1-1.5,0.4-2.2c0.3-0.7,0.7-1.3,1.1-1.8c0.5-0.5,1.1-0.9,1.8-1.2
		c0.7-0.3,1.5-0.4,2.3-0.4c0.5,0,1,0,1.4,0.1c0.4,0.1,0.8,0.2,1.1,0.3c0.3,0.1,0.6,0.3,0.9,0.5c0.3,0.2,0.6,0.4,0.8,0.7l-1.5,1.7
		c-0.4-0.4-0.8-0.7-1.3-0.9c-0.5-0.2-1-0.3-1.5-0.3c-0.9,0-1.7,0.4-2.2,1c-0.3,0.3-0.5,0.7-0.6,1.1c-0.2,0.4-0.2,0.9-0.2,1.3v0
		c0,0.5,0.1,0.9,0.2,1.3c0.2,0.4,0.4,0.8,0.6,1.1c0.3,0.3,0.6,0.6,1,0.7c0.4,0.2,0.8,0.3,1.3,0.3c0.6,0,1.1-0.1,1.6-0.3
		c0.5-0.3,0.9-0.6,1.3-0.9l1.5,1.5c-0.3,0.3-0.6,0.6-0.9,0.8c-0.6,0.5-1.3,0.8-2.1,1C29.2,155.1,28.8,155.2,28.3,155.2 M39.9,153
		c0.5,0,0.9-0.1,1.3-0.3c0.4-0.2,0.7-0.4,1-0.7c0.3-0.3,0.5-0.7,0.7-1.1c0.2-0.4,0.2-0.8,0.2-1.3v0c0-0.5-0.1-0.9-0.2-1.3
		c-0.3-0.8-0.9-1.5-1.7-1.8c-0.4-0.2-0.9-0.3-1.3-0.3c-0.5,0-0.9,0.1-1.3,0.3c-0.4,0.2-0.7,0.4-1,0.7c-0.3,0.3-0.5,0.7-0.7,1.1
		c-0.2,0.4-0.2,0.9-0.2,1.3v0c0,0.5,0.1,0.9,0.2,1.3c0.3,0.8,0.9,1.4,1.7,1.8C39,152.9,39.4,153,39.9,153 M39.9,155.2
		c-0.8,0-1.6-0.1-2.3-0.4c-0.7-0.3-1.3-0.7-1.8-1.2c-0.5-0.5-0.9-1.1-1.2-1.7c-0.3-0.7-0.4-1.4-0.4-2.2v0c0-0.8,0.1-1.5,0.4-2.2
		c0.6-1.3,1.6-2.4,3-3c0.7-0.3,1.5-0.4,2.3-0.4c0.8,0,1.6,0.1,2.3,0.4c0.7,0.3,1.3,0.7,1.8,1.2c0.5,0.5,0.9,1.1,1.2,1.7
		c0.3,0.7,0.4,1.4,0.4,2.2v0c0,0.8-0.1,1.5-0.4,2.2c-0.3,0.7-0.7,1.3-1.2,1.8c-0.5,0.5-1.1,0.9-1.8,1.2
		C41.5,155,40.7,155.2,39.9,155.2 M47.8,144.2h2.4v8.6h5.3v2.1h-7.7V144.2z M61.3,155.1c-1.4,0-2.6-0.4-3.4-1.2
		c-0.8-0.8-1.2-2-1.2-3.6v-6.1H59v6.1c0,0.9,0.2,1.5,0.6,2c0.4,0.4,1,0.7,1.7,0.7c0.7,0,1.3-0.2,1.7-0.6c0.4-0.4,0.6-1.1,0.6-1.9
		v-6.2H66v6.1c0,0.8-0.1,1.5-0.3,2.1c-0.2,0.6-0.5,1.1-0.9,1.5c-0.4,0.4-0.9,0.7-1.5,0.9C62.7,155,62,155.2,61.3,155.1 M68.9,144.2
		h2.5l2.8,4.5l2.8-4.5h2.5V155h-2.3v-7l-3,4.6h-0.1l-3-4.5v7h-2.3L68.9,144.2z M87.5,152.9c0.5,0,0.9-0.1,1.2-0.3
		c0.3-0.2,0.4-0.5,0.4-0.9v0c0-0.3-0.1-0.7-0.4-0.9c-0.3-0.2-0.7-0.3-1.3-0.3h-2.7v2.4L87.5,152.9L87.5,152.9z M86.9,148.6
		c0.5,0,0.9-0.1,1.2-0.3c0.3-0.2,0.5-0.5,0.5-0.9v0c0-0.4-0.1-0.6-0.4-0.8c-0.3-0.2-0.6-0.3-1.1-0.3h-2.3v2.3
		C84.7,148.6,86.9,148.6,86.9,148.6z M82.4,144.2h5c1.2,0,2.2,0.3,2.8,0.9c0.5,0.5,0.7,1.1,0.7,1.8v0c0,0.3,0,0.6-0.1,0.8
		c-0.1,0.4-0.4,0.8-0.7,1.1c-0.2,0.1-0.3,0.3-0.5,0.4c0.6,0.2,1.1,0.6,1.5,1c0.4,0.4,0.5,1,0.5,1.7v0c0,0.5-0.1,0.9-0.3,1.3
		c-0.2,0.4-0.5,0.7-0.8,0.9c-0.4,0.2-0.8,0.4-1.3,0.6c-0.5,0.1-1.1,0.2-1.6,0.2h-5.1V144.2L82.4,144.2z"/>
	<path class="st1" d="M98,155.1c-1.4,0-2.6-0.4-3.4-1.2c-0.8-0.8-1.2-2-1.2-3.6v-6.1h2.4v6.1c0,0.9,0.2,1.5,0.6,2
		c0.4,0.4,1,0.7,1.7,0.7c0.7,0,1.3-0.2,1.7-0.6c0.4-0.4,0.6-1.1,0.6-1.9v-6.2h2.4v6.1c0,0.8-0.1,1.5-0.3,2.1
		c-0.2,0.6-0.5,1.1-0.9,1.5c-0.4,0.4-0.9,0.7-1.5,0.9C99.4,155.1,98.7,155.2,98,155.1 M109.1,155.1c-0.8,0-1.6-0.1-2.4-0.4
		c-0.8-0.3-1.5-0.7-2.1-1.3l1.4-1.7c0.5,0.4,1,0.7,1.5,0.9c0.5,0.2,1.1,0.4,1.7,0.4c0.5,0,0.9-0.1,1.1-0.3c0.3-0.2,0.4-0.4,0.4-0.7
		v0c0-0.1,0-0.3-0.1-0.4c-0.1-0.1-0.2-0.3-0.3-0.3c-0.2-0.1-0.4-0.2-0.7-0.3c-0.4-0.1-0.7-0.2-1.1-0.3c-0.5-0.1-1-0.3-1.5-0.4
		c-0.4-0.1-0.8-0.3-1.1-0.6c-0.3-0.2-0.5-0.5-0.7-0.9c-0.2-0.4-0.3-0.8-0.3-1.3v0c0-0.5,0.1-0.9,0.3-1.3c0.2-0.4,0.4-0.7,0.8-1
		c0.3-0.3,0.7-0.5,1.2-0.7c0.5-0.2,1-0.2,1.5-0.2c0.7,0,1.5,0.1,2.2,0.4c0.7,0.2,1.3,0.6,1.8,1l-1.2,1.8c-0.4-0.3-0.9-0.6-1.4-0.8
		c-0.4-0.2-0.9-0.3-1.4-0.3c-0.5,0-0.8,0.1-1,0.3c-0.2,0.2-0.3,0.4-0.3,0.7v0c0,0.2,0,0.3,0.1,0.5c0.1,0.1,0.2,0.3,0.4,0.3
		c0.2,0.1,0.4,0.2,0.7,0.3c0.3,0.1,0.7,0.2,1.1,0.3c0.5,0.1,1,0.3,1.5,0.5c0.4,0.2,0.8,0.4,1.1,0.6c0.3,0.3,0.5,0.5,0.7,0.9
		c0.1,0.3,0.2,0.7,0.2,1.2v0c0,0.5-0.1,1-0.3,1.4c-0.2,0.4-0.5,0.8-0.8,1c-0.4,0.3-0.8,0.5-1.2,0.6
		C110.1,155.1,109.6,155.1,109.1,155.1"/>
	<path class="st1" d="M98.1,139.8l0.4,1.4h1.4l-1.1,0.8l0.4,1.4l-1.1-0.8l-1.1,0.8l0.4-1.4l-1.1-0.8h1.4L98.1,139.8z"/>
</g>
</svg>
