<?xml version="1.0" encoding="UTF-8"?>
<svg width="168px" height="49px" viewBox="0 0 168 49" version="1.1" xmlns="http://www.w3.org/2000/svg" xmlns:xlink="http://www.w3.org/1999/xlink">
    <!-- Generator: Sketch 63.1 (92452) - https://sketch.com -->
    <title>Group 56</title>
    <desc>Created with Sketch.</desc>
    <defs>
        <polygon id="path-1" points="0.335412 0.259119 16.02027 0.259119 16.02027 20.683719 0.335412 20.683719"></polygon>
        <polygon id="path-3" points="0 48.51 167.22027 48.51 167.22027 0.41139 0 0.41139"></polygon>
    </defs>
    <g id="Page-1" stroke="none" stroke-width="1" fill="none" fill-rule="evenodd">
        <g id="Resources" transform="translate(-186.000000, -369.000000)">
            <g id="Group-56" transform="translate(186.000000, 369.000000)">
                <polygon id="Fill-1" fill="#00529B" points="139.65021 7.092477 140.427 9.620037 142.95519 9.620037 140.91084 11.182437 141.69015 13.708107 139.65021 12.143187 137.60271 13.708107 138.38391 11.182437 136.34271 9.620037 138.86775 9.620037"></polygon>
                <g id="Group-55" transform="translate(0.000000, 0.218295)">
                    <path d="M10.182123,35.230671 C8.727453,35.230671 7.374213,34.966071 6.126813,34.436241 C4.877523,33.909561 3.798963,33.184431 2.893653,32.265261 C1.984563,31.349871 1.276443,30.266901 0.764883,29.019501 C0.253953,27.768951 6.3e-05,26.439021 6.3e-05,25.017741 L6.3e-05,24.966081 C6.3e-05,23.545431 0.253953,22.215501 0.764883,20.976291 C1.276443,19.739601 1.984563,18.651591 2.893653,17.714781 C3.798963,16.779231 4.886973,16.040871 6.155793,15.502851 C7.422093,14.964201 8.822583,14.693301 10.350333,14.693301 C11.280843,14.693301 12.125043,14.771421 12.891123,14.921361 C13.659723,15.074451 14.353353,15.281721 14.977683,15.543801 C15.602013,15.810291 16.177833,16.130961 16.706403,16.510221 C17.234973,16.888851 17.728893,17.304651 18.181233,17.758251 L15.403563,20.963061 C14.627403,20.261871 13.836753,19.717551 13.033503,19.316871 C12.228363,18.919341 11.326203,18.723411 10.325133,18.723411 C9.493533,18.723411 8.722413,18.883431 8.013663,19.203471 C7.303023,19.526661 6.693183,19.970181 6.182253,20.539071 C5.671323,21.106701 5.276313,21.763161 4.990293,22.510341 C4.708053,23.257521 4.565673,24.053211 4.565673,24.904971 L4.565673,24.966081 C4.565673,25.812171 4.708053,26.617311 4.990293,27.376461 C5.276313,28.128051 5.666283,28.792071 6.168393,29.357811 C6.669873,29.929221 7.274673,30.377781 7.984053,30.705381 C8.691543,31.038021 9.474003,31.203081 10.325133,31.203081 C11.459763,31.203081 12.417993,30.997701 13.202973,30.579381 C13.988583,30.163581 14.769153,29.594691 15.544683,28.877751 L18.324873,31.685661 C17.813313,32.235021 17.284113,32.725791 16.736013,33.161751 C16.189803,33.597081 15.586893,33.969411 14.934843,34.281891 C14.282163,34.593741 13.568373,34.828731 12.793473,34.988751 C12.017943,35.150661 11.147913,35.230671 10.182123,35.230671" id="Fill-2" fill="#00529B"></path>
                    <path d="M31.65561,35.230671 C30.12282,35.230671 28.71666,34.962291 27.43146,34.423641 C26.14311,33.886251 25.03305,33.156081 24.09624,32.239431 C23.15943,31.322781 22.43304,30.244221 21.91266,29.005641 C21.39228,27.767691 21.13146,26.439021 21.13146,25.017741 L21.13146,24.966081 C21.13146,23.545431 21.39543,22.215501 21.92778,20.976291 C22.45446,19.739601 23.18904,18.651591 24.12522,17.714781 C25.05951,16.779231 26.17587,16.040871 27.47052,15.502851 C28.76895,14.964201 30.1833,14.693301 31.71357,14.693301 C33.24447,14.693301 34.65315,14.964201 35.93961,15.502851 C37.22607,16.040871 38.33739,16.770411 39.27168,17.687061 C40.20975,18.606231 40.93992,19.681641 41.45715,20.921481 C41.97879,22.159431 42.23646,23.487471 42.23646,24.904971 L42.23646,24.966081 C42.23646,26.381061 41.97186,27.709101 41.44203,28.950201 C40.91472,30.187521 40.18077,31.274901 39.24711,32.211081 C38.30778,33.146631 37.19268,33.886251 35.8974,34.423641 C34.60275,34.962291 33.1884,35.230671 31.65561,35.230671 M31.71357,31.203081 C32.58297,31.203081 33.38874,31.043691 34.12521,30.720501 C34.86168,30.399201 35.49231,29.955051 36.01017,29.388681 C36.53055,28.822311 36.93627,28.163331 37.23111,27.415521 C37.52406,26.667711 37.67148,25.873281 37.67148,25.017741 L37.67148,24.966081 C37.67148,24.112431 37.52406,23.307921 37.23111,22.551291 C36.93627,21.795291 36.5211,21.131901 35.98119,20.566161 C35.4438,19.997901 34.80561,19.551231 34.06788,19.217331 C33.33015,18.890361 32.5269,18.723411 31.65561,18.723411 C30.76857,18.723411 29.95902,18.883431 29.23011,19.203471 C28.50309,19.526661 27.87876,19.970181 27.35775,20.539071 C26.83863,21.106701 26.43039,21.763161 26.13933,22.510341 C25.84638,23.257521 25.69833,24.053211 25.69833,24.904971 L25.69833,24.966081 C25.69833,25.812171 25.84638,26.617311 26.13933,27.376461 C26.43039,28.128051 26.84745,28.792071 27.3861,29.357811 C27.92601,29.929221 28.55853,30.377781 29.28744,30.705381 C30.01509,31.038021 30.82275,31.203081 31.71357,31.203081" id="Fill-4" fill="#00529B"></path>
                    <polygon id="Fill-6" fill="#00529B" points="46.321569 15.033753 50.690619 15.033753 50.690619 30.946293 60.589809 30.946293 60.589809 34.890723 46.321569 34.890723"></polygon>
                    <path d="M71.378874,35.203581 C68.710194,35.203581 66.612924,34.465221 65.079504,32.992281 C63.549864,31.515561 62.782524,29.311821 62.782524,26.381061 L62.782524,15.033501 L67.150314,15.033501 L67.150314,26.267031 C67.150314,27.895581 67.531464,29.118411 68.287464,29.941821 C69.041574,30.763971 70.090524,31.175991 71.436204,31.175991 C72.776214,31.175991 73.827684,30.776571 74.584314,29.984661 C75.339054,29.190231 75.717684,27.998901 75.717684,26.411301 L75.717684,15.033501 L80.086104,15.033501 L80.086104,26.240571 C80.086104,27.751311 79.882614,29.068641 79.476264,30.183111 C79.069914,31.298841 78.489054,32.229981 77.731794,32.977791 C76.974534,33.724971 76.059144,34.281261 74.980584,34.649181 C73.902024,35.017101 72.702504,35.203581 71.378874,35.203581" id="Fill-8" fill="#00529B"></path>
                    <polygon id="Fill-10" fill="#00529B" points="85.395744 15.033753 90.105624 15.033753 95.323284 23.431653 100.543464 15.033753 105.253974 15.033753 105.253974 34.890723 100.941624 34.890723 100.941624 21.926583 95.352894 30.408903 95.242014 30.408903 89.707464 22.012893 89.707464 34.890723 85.395744 34.890723"></polygon>
                    <path d="M110.545281,15.033753 L119.747691,15.033753 C122.032071,15.033753 123.761421,15.621543 124.931331,16.792713 C125.835381,17.700543 126.287091,18.826983 126.287091,20.168253 L126.287091,20.226213 C126.287091,20.795733 126.218421,21.293433 126.077931,21.728133 C125.936811,22.164723 125.747181,22.554693 125.514711,22.906863 C125.278461,23.257143 125.006931,23.564583 124.695711,23.828553 C124.383861,24.092523 124.051851,24.321213 123.697161,24.508323 C124.845021,24.944913 125.747181,25.534593 126.406791,26.281773 C127.066401,27.029583 127.394001,28.064673 127.394001,29.388303 L127.394001,29.443113 C127.394001,30.355353 127.223271,31.147263 126.870471,31.830183 C126.521451,32.508693 126.019971,33.076323 125.368551,33.528033 C124.717131,33.982893 123.935301,34.322463 123.020541,34.550523 C122.106411,34.779213 121.091481,34.890723 119.976381,34.890723 L110.545281,34.890723 L110.545281,15.033753 Z M118.827891,23.061213 C119.793681,23.061213 120.560391,22.895523 121.126761,22.565403 C121.693131,22.235283 121.979151,21.700413 121.979151,20.962683 L121.979151,20.906613 C121.979151,20.245113 121.730301,19.739853 121.238901,19.388313 C120.749391,19.039923 120.035601,18.866043 119.114541,18.866043 L114.802191,18.866043 L114.802191,23.061213 L118.827891,23.061213 Z M119.992131,31.063473 C120.957291,31.063473 121.712031,30.886443 122.261391,30.536793 C122.810751,30.187143 123.083541,29.644713 123.083541,28.906983 L123.083541,28.848393 C123.083541,28.187523 122.830281,27.664623 122.316201,27.274653 C121.808421,26.887833 120.985641,26.693793 119.849751,26.693793 L114.802191,26.693793 L114.802191,31.063473 L119.992131,31.063473 Z" id="Fill-12" fill="#00529B"></path>
                    <path d="M139.506822,35.203581 C136.841922,35.203581 134.742762,34.465221 133.213752,32.992281 C131.678442,31.515561 130.912992,29.311821 130.912992,26.381061 L130.912992,15.033501 L135.280782,15.033501 L135.280782,26.267031 C135.280782,27.895581 135.660042,29.118411 136.418562,29.941821 C137.171412,30.763971 138.222252,31.175991 139.564152,31.175991 C140.908572,31.175991 141.957522,30.776571 142.714152,29.984661 C143.468892,29.190231 143.848152,27.998901 143.848152,26.411301 L143.848152,15.033501 L148.213422,15.033501 L148.213422,26.240571 C148.213422,27.751311 148.011192,29.068641 147.604842,30.183111 C147.198492,31.298841 146.618892,32.229981 145.859742,32.977791 C145.103742,33.724971 144.188352,34.281261 143.110422,34.649181 C142.033752,35.017101 140.831082,35.203581 139.506822,35.203581" id="Fill-14" fill="#E21A23"></path>
                    <g id="Group-18" transform="translate(151.200000, 14.490000)">
                        <mask id="mask-2" fill="white">
                            <use xlink:href="#path-1"></use>
                        </mask>
                        <g id="Clip-17"></g>
                        <path d="M8.757252,20.683719 C7.243992,20.683719 5.761602,20.423529 4.306302,19.903149 C2.845962,19.384029 1.524222,18.585819 0.335412,17.507889 L2.916522,14.417109 C3.823092,15.154839 4.754232,15.740109 5.708682,16.174179 C6.663132,16.610139 7.708302,16.825599 8.841672,16.825599 C9.752652,16.825599 10.455102,16.661799 10.955952,16.331049 C11.455542,16.000929 11.706282,15.540399 11.706282,14.953239 L11.706282,14.898429 C11.706282,14.613669 11.654622,14.362299 11.552562,14.146209 C11.446722,13.930119 11.248902,13.725999 10.955322,13.538889 C10.659852,13.346109 10.254132,13.157739 9.732492,12.969999 C9.210222,12.782259 8.532972,12.581289 7.698222,12.374019 C6.691482,12.127059 5.784282,11.854899 4.967172,11.549979 C4.150692,11.246949 3.460212,10.875249 2.890692,10.429209 C2.322432,9.985059 1.881432,9.433179 1.567692,8.769159 C1.254582,8.110809 1.101492,7.288029 1.101492,6.305859 L1.101492,6.246009 C1.101492,5.340069 1.270332,4.521069 1.606752,3.791529 C1.945062,3.063249 2.418822,2.437029 3.031182,1.904679 C3.641022,1.376739 4.367412,0.969129 5.216022,0.684999 C6.065892,0.402759 6.999552,0.259119 8.020152,0.259119 C9.479862,0.259119 10.816092,0.478989 12.033252,0.913689 C13.253562,1.348389 14.372442,1.973979 15.394302,2.784159 L13.125042,6.075909 C12.238002,5.471109 11.367972,4.993569 10.518732,4.643919 C9.668862,4.294269 8.813322,4.117869 7.964082,4.117869 C7.112322,4.117869 6.476022,4.284189 6.048252,4.613679 C5.624262,4.946319 5.411952,5.357079 5.411952,5.850999 L5.411952,5.905809 C5.411952,6.227109 5.474322,6.506829 5.595282,6.741189 C5.720652,6.977439 5.943042,7.191639 6.266232,7.380639 C6.586902,7.569009 7.029162,7.749189 7.587972,7.918659 C8.146152,8.090649 8.851752,8.288469 9.704772,8.515269 C10.708992,8.779869 11.605482,9.079749 12.391722,9.408609 C13.180482,9.739359 13.838832,10.138149 14.382522,10.600569 C14.922432,11.062989 15.331302,11.609199 15.605352,12.232269 C15.881292,12.855339 16.020522,13.603149 16.020522,14.475069 L16.020522,14.529879 C16.020522,15.511419 15.840342,16.387119 15.481872,17.151939 C15.127182,17.918649 14.630112,18.562509 13.987512,19.083519 C13.350582,19.605789 12.586392,19.998909 11.701872,20.270439 C10.819242,20.547009 9.837072,20.683719 8.757252,20.683719" id="Fill-16" fill="#E21A23" mask="url(#mask-2)"></path>
                    </g>
                    <polygon id="Fill-19" fill="#00529B" points="4.339251 1.575189 1.123101 1.575189 1.123101 0.576009 8.650341 0.576009 8.650341 1.575189 5.434191 1.575189 5.434191 10.156419 4.339251 10.156419"></polygon>
                    <polygon id="Fill-21" fill="#00529B" points="10.675854 0.576009 11.756934 0.576009 11.756934 4.832289 17.286444 4.832289 17.286444 0.576009 18.367524 0.576009 18.367524 10.156419 17.286444 10.156419 17.286444 5.845329 11.756934 5.845329 11.756934 10.156419 10.675854 10.156419"></polygon>
                    <polygon id="Fill-23" fill="#00529B" points="21.07728 0.576009 28.00224 0.576009 28.00224 1.561329 22.15836 1.561329 22.15836 4.832289 27.38673 4.832289 27.38673 5.817609 22.15836 5.817609 22.15836 9.171099 28.07091 9.171099 28.07091 10.156419 21.07728 10.156419"></polygon>
                    <path d="M33.928587,5.393619 L33.928587,5.365899 C33.928587,2.656269 35.954037,0.411579 38.773287,0.411579 C40.511457,0.411579 41.551587,1.027719 42.509817,1.931139 L41.770827,2.724939 C40.963167,1.958229 40.059747,1.410759 38.760057,1.410759 C36.638217,1.410759 35.050617,3.135699 35.050617,5.338809 L35.050617,5.365899 C35.050617,7.583499 36.652077,9.321669 38.760057,9.321669 C40.073607,9.321669 40.936077,8.815149 41.852727,7.939449 L42.564627,8.637489 C41.565447,9.649899 40.470507,10.320849 38.732337,10.320849 C35.967897,10.320849 33.928587,8.144829 33.928587,5.393619" id="Fill-25" fill="#00529B"></path>
                    <mask id="mask-4" fill="white">
                        <use xlink:href="#path-3"></use>
                    </mask>
                    <g id="Clip-28"></g>
                    <polygon id="Fill-27" fill="#00529B" mask="url(#mask-4)" points="44.54919 10.15686 45.63027 10.15686 45.63027 0.57645 44.54919 0.57645"></polygon>
                    <polygon id="Fill-29" fill="#00529B" mask="url(#mask-4)" points="50.967504 1.575189 47.751354 1.575189 47.751354 0.576009 55.278594 0.576009 55.278594 1.575189 52.062444 1.575189 52.062444 10.156419 50.967504 10.156419"></polygon>
                    <polygon id="Fill-30" fill="#00529B" mask="url(#mask-4)" points="60.301584 6.365394 56.318724 0.576324 57.632904 0.576324 60.862914 5.366214 64.120014 0.576324 65.379384 0.576324 61.396524 6.351534 61.396524 10.156734 60.301584 10.156734"></polygon>
                    <path d="M70.784847,5.393619 L70.784847,5.365899 C70.784847,2.724939 72.769347,0.411579 75.684357,0.411579 C78.599367,0.411579 80.556777,2.697219 80.556777,5.338809 L80.556777,5.365899 C80.556777,8.007489 78.572277,10.320849 75.657267,10.320849 C72.741627,10.320849 70.784847,8.035209 70.784847,5.393619 M79.434117,5.393619 L79.434117,5.365899 C79.434117,3.190509 77.847147,1.410759 75.657267,1.410759 C73.467387,1.410759 71.906877,3.162789 71.906877,5.338809 L71.906877,5.365899 C71.906877,7.542549 73.494477,9.321669 75.684357,9.321669 C77.874237,9.321669 79.434117,7.569639 79.434117,5.393619" id="Fill-31" fill="#00529B" mask="url(#mask-4)"></path>
                    <polygon id="Fill-32" fill="#00529B" mask="url(#mask-4)" points="82.842543 0.576009 89.726553 0.576009 89.726553 1.575189 83.923623 1.575189 83.923623 4.996719 89.110413 4.996719 89.110413 5.982039 83.923623 5.982039 83.923623 10.156419 82.842543 10.156419"></polygon>
                    <polygon id="Fill-33" fill="#00529B" mask="url(#mask-4)" points="2.418759 41.427603 3.107979 41.427603 5.304789 44.718723 7.502229 41.427603 8.191449 41.427603 8.191449 47.458593 7.510419 47.458593 7.510419 42.573573 5.313609 45.804213 5.278959 45.804213 3.082149 42.582393 3.082149 47.458593 2.418759 47.458593"></polygon>
                    <polygon id="Fill-34" fill="#00529B" mask="url(#mask-4)" points="9.95652 47.45853 10.63692 47.45853 10.63692 41.42754 9.95652 41.42754"></polygon>
                    <path d="M12.135816,44.460423 L12.135816,44.443413 C12.135816,42.737373 13.410936,41.324283 15.185646,41.324283 C16.279956,41.324283 16.934526,41.712363 17.538066,42.280623 L17.072496,42.780213 C16.564086,42.297633 15.995826,41.953023 15.177456,41.953023 C13.841856,41.953023 12.842046,43.038513 12.842046,44.425773 L12.842046,44.443413 C12.842046,45.838863 13.850046,46.933173 15.177456,46.933173 C16.004016,46.933173 16.547076,46.614393 17.124156,46.063143 L17.572086,46.502253 C16.943346,47.139813 16.254126,47.561913 15.159816,47.561913 C13.419756,47.561913 12.135816,46.192293 12.135816,44.460423" id="Fill-35" fill="#00529B" mask="url(#mask-4)"></path>
                    <polygon id="Fill-36" fill="#00529B" mask="url(#mask-4)" points="18.760329 41.427603 19.440729 41.427603 19.440729 44.106993 22.921479 44.106993 22.921479 41.427603 23.602509 41.427603 23.602509 47.458593 22.921479 47.458593 22.921479 44.744553 19.440729 44.744553 19.440729 47.458593 18.760329 47.458593"></polygon>
                    <path d="M27.538812,41.384511 L28.176372,41.384511 L30.925062,47.458341 L30.192372,47.458341 L29.486142,45.864441 L26.203212,45.864441 L25.488162,47.458341 L24.790752,47.458341 L27.538812,41.384511 Z M29.219022,45.244521 L27.848772,42.177051 L26.470332,45.244521 L29.219022,45.244521 Z" id="Fill-37" fill="#00529B" mask="url(#mask-4)"></path>
                    <polygon id="Fill-38" fill="#00529B" mask="url(#mask-4)" points="32.112738 41.427603 36.472338 41.427603 36.472338 42.048153 32.793138 42.048153 32.793138 44.106993 36.084258 44.106993 36.084258 44.727543 32.793138 44.727543 32.793138 46.838043 36.515178 46.838043 36.515178 47.458593 32.112738 47.458593"></polygon>
                    <polygon id="Fill-39" fill="#00529B" mask="url(#mask-4)" points="37.884546 41.427603 38.564946 41.427603 38.564946 46.829853 41.960016 46.829853 41.960016 47.458593 37.884546 47.458593"></polygon>
                    <path d="M45.801126,41.427603 L48.368376,41.427603 C49.057596,41.427603 49.600656,41.626053 49.945266,41.961843 C50.195376,42.220143 50.332716,42.538923 50.332716,42.927003 L50.332716,42.944013 C50.332716,43.727733 49.850766,44.132823 49.376376,44.339463 C50.091426,44.554923 50.669136,44.968833 50.669136,45.796023 L50.669136,45.813033 C50.669136,46.846863 49.798476,47.458593 48.480516,47.458593 L45.801126,47.458593 L45.801126,41.427603 Z M49.643496,43.021503 C49.643496,42.426783 49.169736,42.039333 48.308526,42.039333 L46.473336,42.039333 L46.473336,44.115813 L48.256866,44.115813 C49.075236,44.115813 49.643496,43.745373 49.643496,43.038513 L49.643496,43.021503 Z M48.377196,44.718723 L46.473336,44.718723 L46.473336,46.846863 L48.497526,46.846863 C49.411026,46.846863 49.979916,46.441773 49.979916,45.770193 L49.979916,45.752553 C49.979916,45.097983 49.428036,44.718723 48.377196,44.718723 L48.377196,44.718723 Z" id="Fill-40" fill="#00529B" mask="url(#mask-4)"></path>
                    <polygon id="Fill-41" fill="#00529B" mask="url(#mask-4)" points="51.83073 47.45853 52.62327 47.45853 52.62327 46.55385 51.83073 46.55385"></polygon>
                    <path d="M56.448378,44.460423 L56.448378,44.443413 C56.448378,42.737373 57.723498,41.324283 59.498208,41.324283 C60.592518,41.324283 61.247088,41.712363 61.850628,42.280623 L61.385058,42.780213 C60.876648,42.297633 60.308388,41.953023 59.490018,41.953023 C58.154418,41.953023 57.154608,43.038513 57.154608,44.425773 L57.154608,44.443413 C57.154608,45.838863 58.162608,46.933173 59.490018,46.933173 C60.316578,46.933173 60.859638,46.614393 61.436718,46.063143 L61.884648,46.502253 C61.255908,47.139813 60.566688,47.561913 59.472378,47.561913 C57.732318,47.561913 56.448378,46.192293 56.448378,44.460423" id="Fill-42" fill="#00529B" mask="url(#mask-4)"></path>
                    <path d="M62.633592,44.460423 L62.633592,44.443413 C62.633592,42.780213 63.882882,41.324283 65.718072,41.324283 C67.553262,41.324283 68.784912,42.763203 68.784912,44.425773 L68.784912,44.443413 C68.784912,46.105983 67.535622,47.561913 65.701062,47.561913 C63.865872,47.561913 62.633592,46.122993 62.633592,44.460423 M68.078682,44.460423 L68.078682,44.443413 C68.078682,43.073163 67.079502,41.953023 65.701062,41.953023 C64.322622,41.953023 63.339822,43.056153 63.339822,44.425773 L63.339822,44.443413 C63.339822,45.813033 64.339632,46.933173 65.718072,46.933173 C67.096512,46.933173 68.078682,45.830043 68.078682,44.460423" id="Fill-43" fill="#00529B" mask="url(#mask-4)"></path>
                    <polygon id="Fill-44" fill="#00529B" mask="url(#mask-4)" points="70.222824 41.427603 70.903224 41.427603 70.903224 46.829853 74.298294 46.829853 74.298294 47.458593 70.222824 47.458593"></polygon>
                    <polygon id="Fill-45" fill="#00529B" mask="url(#mask-4)" points="75.555396 41.427603 79.914996 41.427603 79.914996 42.048153 76.235796 42.048153 76.235796 44.106993 79.526916 44.106993 79.526916 44.727543 76.235796 44.727543 76.235796 46.838043 79.957836 46.838043 79.957836 47.458593 75.555396 47.458593"></polygon>
                    <polygon id="Fill-46" fill="#00529B" mask="url(#mask-4)" points="81.326889 41.427603 82.016109 41.427603 84.212919 44.718723 86.409729 41.427603 87.099579 41.427603 87.099579 47.458593 86.418549 47.458593 86.418549 42.573573 84.221739 45.804213 84.187089 45.804213 81.990279 42.582393 81.990279 47.458593 81.326889 47.458593"></polygon>
                    <path d="M91.035882,41.384511 L91.673442,41.384511 L94.421502,47.458341 L93.689442,47.458341 L92.983212,45.864441 L89.700282,45.864441 L88.985232,47.458341 L88.287192,47.458341 L91.035882,41.384511 Z M92.716092,45.244521 L91.345842,42.177051 L89.967402,45.244521 L92.716092,45.244521 Z" id="Fill-47" fill="#00529B" mask="url(#mask-4)"></path>
                    <polygon id="Fill-48" fill="#00529B" mask="url(#mask-4)" points="95.609556 41.427603 96.247116 41.427603 100.046646 46.260963 100.046646 41.427603 100.710036 41.427603 100.710036 47.458593 100.167606 47.458593 96.272946 42.513093 96.272946 47.458593 95.609556 47.458593"></polygon>
                    <path d="M101.958444,48.208104 C102.389364,48.053124 102.570174,47.828844 102.535524,47.458404 L102.225564,47.458404 L102.225564,46.553724 L103.018104,46.553724 L103.018104,47.329254 C103.018104,48.027294 102.716964,48.363084 102.061764,48.509874 L101.958444,48.208104 Z" id="Fill-49" fill="#00529B" mask="url(#mask-4)"></path>
                    <polygon id="Fill-50" fill="#00529B" mask="url(#mask-4)" points="107.109828 41.427603 107.799048 41.427603 109.995858 44.718723 112.193298 41.427603 112.882518 41.427603 112.882518 47.458593 112.201488 47.458593 112.201488 42.573573 110.004678 45.804213 109.970028 45.804213 107.773218 42.582393 107.773218 47.458593 107.109828 47.458593"></polygon>
                    <path d="M116.818821,41.384511 L117.456381,41.384511 L120.204441,47.458341 L119.472381,47.458341 L118.766151,45.864441 L115.483221,45.864441 L114.768171,47.458341 L114.070131,47.458341 L116.818821,41.384511 Z M118.499031,45.244521 L117.128781,42.177051 L115.750341,45.244521 L118.499031,45.244521 Z" id="Fill-51" fill="#00529B" mask="url(#mask-4)"></path>
                    <polygon id="Fill-52" fill="#00529B" mask="url(#mask-4)" points="122.331951 45.072216 119.825181 41.427666 120.651741 41.427666 122.686011 44.443476 124.736031 41.427666 125.528571 41.427666 123.021171 45.063396 123.021171 47.458656 122.331951 47.458656"></polygon>
                    <path d="M125.828955,44.460423 L125.828955,44.443413 C125.828955,42.780213 127.078245,41.324283 128.913435,41.324283 C130.749255,41.324283 131.980905,42.763203 131.980905,44.425773 L131.980905,44.443413 C131.980905,46.105983 130.731615,47.561913 128.895795,47.561913 C127.061235,47.561913 125.828955,46.122993 125.828955,44.460423 M131.274675,44.460423 L131.274675,44.443413 C131.274675,43.073163 130.275495,41.953023 128.895795,41.953023 C127.517985,41.953023 126.535185,43.056153 126.535185,44.425773 L126.535185,44.443413 C126.535185,45.813033 127.534995,46.933173 128.913435,46.933173 C130.291875,46.933173 131.274675,45.830043 131.274675,44.460423" id="Fill-53" fill="#00529B" mask="url(#mask-4)"></path>
                    <path d="M133.418502,41.427603 L136.012212,41.427603 C136.753092,41.427603 137.347182,41.651253 137.726442,42.030513 C138.020022,42.323463 138.191382,42.745563 138.191382,43.219953 L138.191382,43.236963 C138.191382,44.236143 137.502162,44.822043 136.555272,44.994663 L138.406842,47.458593 L137.571462,47.458593 L135.821952,45.114993 L134.098902,45.114993 L134.098902,47.458593 L133.418502,47.458593 L133.418502,41.427603 Z M135.951732,44.503263 C136.856412,44.503263 137.502162,44.038323 137.502162,43.262793 L137.502162,43.245783 C137.502162,42.504903 136.933902,42.056343 135.959922,42.056343 L134.098902,42.056343 L134.098902,44.503263 L135.951732,44.503263 Z" id="Fill-54" fill="#00529B" mask="url(#mask-4)"></path>
                </g>
            </g>
        </g>
    </g>
</svg>