<?xml version="1.0" encoding="UTF-8"?>
<svg width="1078px" height="362px" viewBox="0 0 1078 362" version="1.1" xmlns="http://www.w3.org/2000/svg" xmlns:xlink="http://www.w3.org/1999/xlink">
    <!-- Generator: Sketch 64 (93537) - https://sketch.com -->
    <title>CurbsideConcert_logo_primary</title>
    <desc>Created with Sketch.</desc>
    <defs>
        <polygon id="path-1" points="0.06 0.688 236.313 0.688 236.313 237 0.06 237"></polygon>
    </defs>
    <g id="CurbsideConcert_logo_primary" stroke="none" stroke-width="1" fill="none" fill-rule="evenodd">
        <path d="M44.144,191.186 C44.144,189.013 44.554,186.875 45.372,184.77 C46.191,182.664 47.386,180.775 48.956,179.105 C50.527,177.435 52.432,176.081 54.671,175.044 C56.909,174.008 59.467,173.491 62.34,173.491 C65.783,173.491 68.765,174.202 71.288,175.621 C73.811,177.041 75.691,178.922 76.927,181.26 L69.458,186.574 C69.124,185.705 68.683,184.988 68.131,184.418 C67.578,183.85 66.969,183.4 66.3,183.065 C65.632,182.732 64.938,182.497 64.22,182.363 C63.501,182.231 62.808,182.163 62.14,182.163 C60.736,182.163 59.525,182.438 58.506,182.989 C57.487,183.541 56.651,184.261 56,185.145 C55.348,186.031 54.862,187.033 54.546,188.153 C54.228,189.272 54.069,190.383 54.069,191.486 C54.069,192.722 54.253,193.91 54.621,195.045 C54.989,196.183 55.523,197.184 56.225,198.053 C56.927,198.922 57.787,199.615 58.806,200.133 C59.826,200.652 60.97,200.91 62.24,200.91 C62.909,200.91 63.594,200.835 64.295,200.685 C64.998,200.534 65.674,200.283 66.325,199.932 C66.977,199.582 67.562,199.13 68.08,198.579 C68.598,198.027 69.007,197.352 69.308,196.549 L77.278,201.311 C76.743,202.614 75.933,203.785 74.848,204.82 C73.761,205.856 72.523,206.725 71.138,207.426 C69.751,208.128 68.263,208.664 66.677,209.03 C65.089,209.398 63.543,209.582 62.039,209.582 C59.4,209.582 56.985,209.056 54.796,208.003 C52.607,206.95 50.72,205.556 49.132,203.817 C47.544,202.08 46.317,200.108 45.448,197.902 C44.577,195.697 44.144,193.459 44.144,191.186" id="Fill-1" fill="#0A0B09"></path>
        <path d="M96.937,195.797 L93.779,184.77 L90.471,195.797 L96.937,195.797 Z M89.318,173.691 L98.24,173.691 L110.572,209.281 L100.646,209.281 L98.491,202.314 L89.016,202.314 L86.913,209.281 L76.936,209.281 L89.318,173.691 L89.318,173.691 Z" id="Fill-2" fill="#0A0B09"></path>
        <polyline id="Fill-3" fill="#0A0B09" points="122.531 191.787 122.531 209.281 112.758 209.281 112.758 173.691 120.375 173.691 134.662 191.787 134.662 173.691 144.437 173.691 144.437 209.281 136.668 209.281 122.531 191.787"></polyline>
        <path d="M157.671,174.383 C158.74,175.42 159.276,176.773 159.276,178.444 C159.276,179.213 159.176,179.981 158.975,180.749 C158.775,181.519 158.34,182.672 157.671,184.208 L154.463,191.526 L148.496,191.526 L150.853,183.356 C149.918,182.923 149.192,182.278 148.674,181.426 C148.154,180.574 147.897,179.579 147.897,178.444 C147.897,176.773 148.431,175.42 149.499,174.383 C150.57,173.348 151.938,172.829 153.611,172.829 C155.249,172.829 156.601,173.348 157.671,174.383" id="Fill-4" fill="#0A0B09"></path>
        <polyline id="Fill-5" fill="#0A0B09" points="191.818 182.212 181.592 182.212 181.592 209.281 171.816 209.281 171.816 182.212 161.541 182.212 161.541 173.691 191.818 173.691 191.818 182.212"></polyline>
        <path d="M67.654,235.447 C66.651,234.846 65.616,234.312 64.546,233.843 C63.643,233.442 62.633,233.067 61.513,232.715 C60.392,232.365 59.3,232.191 58.23,232.191 C57.362,232.191 56.668,232.324 56.15,232.589 C55.632,232.859 55.373,233.31 55.373,233.943 C55.373,234.413 55.523,234.796 55.825,235.096 C56.125,235.397 56.558,235.672 57.127,235.923 C57.695,236.174 58.388,236.417 59.208,236.65 C60.025,236.884 60.954,237.168 61.99,237.503 C63.627,238.005 65.104,238.555 66.427,239.157 C67.746,239.758 68.872,240.468 69.809,241.289 C70.745,242.107 71.464,243.1 71.965,244.271 C72.466,245.442 72.717,246.861 72.717,248.531 C72.717,250.669 72.323,252.465 71.539,253.92 C70.754,255.373 69.718,256.535 68.431,257.403 C67.143,258.273 65.69,258.898 64.071,259.283 C62.45,259.668 60.819,259.859 59.182,259.859 C57.879,259.859 56.541,259.759 55.173,259.558 C53.803,259.358 52.441,259.076 51.087,258.707 C49.734,258.34 48.431,257.905 47.177,257.403 C45.924,256.903 44.762,256.334 43.694,255.699 L47.904,247.127 C49.074,247.862 50.293,248.514 51.563,249.082 C52.633,249.584 53.844,250.036 55.197,250.436 C56.551,250.838 57.93,251.039 59.333,251.039 C60.403,251.039 61.146,250.894 61.563,250.611 C61.981,250.328 62.19,249.951 62.19,249.483 C62.19,248.981 61.981,248.556 61.563,248.205 C61.146,247.855 60.568,247.545 59.834,247.277 C59.099,247.01 58.256,246.745 57.303,246.476 C56.351,246.21 55.34,245.892 54.27,245.522 C52.7,244.989 51.346,244.413 50.21,243.793 C49.074,243.176 48.137,242.475 47.403,241.689 C46.668,240.903 46.124,240.009 45.774,239.006 C45.423,238.005 45.247,236.851 45.247,235.548 C45.247,233.578 45.605,231.839 46.325,230.335 C47.042,228.831 48.021,227.578 49.258,226.575 C50.493,225.574 51.906,224.814 53.493,224.294 C55.08,223.777 56.759,223.518 58.53,223.518 C59.834,223.518 61.104,223.643 62.341,223.893 C63.576,224.144 64.772,224.462 65.925,224.846 C67.078,225.23 68.155,225.647 69.158,226.099 C70.16,226.55 71.062,226.975 71.865,227.377 L67.654,235.447" id="Fill-6" fill="#0A0B09"></path>
        <polyline id="Fill-7" fill="#0A0B09" points="104.185 232.339 93.959 232.339 93.959 259.409 84.184 259.409 84.184 232.339 73.909 232.339 73.909 223.817 104.185 223.817 104.185 232.339"></polyline>
        <path d="M114.472,241.663 C114.472,242.866 114.639,244.028 114.973,245.147 C115.306,246.266 115.807,247.26 116.477,248.129 C117.144,248.999 117.988,249.7 119.009,250.237 C120.027,250.771 121.239,251.037 122.643,251.037 C124.045,251.037 125.266,250.761 126.302,250.21 C127.337,249.659 128.18,248.941 128.833,248.054 C129.485,247.169 129.968,246.16 130.287,245.022 C130.605,243.885 130.762,242.732 130.762,241.563 C130.762,240.36 130.596,239.2 130.261,238.08 C129.927,236.961 129.417,235.973 128.733,235.124 C128.048,234.269 127.195,233.584 126.177,233.066 C125.157,232.548 123.961,232.29 122.593,232.29 C121.189,232.29 119.976,232.556 118.958,233.091 C117.938,233.627 117.094,234.336 116.427,235.223 C115.758,236.108 115.264,237.111 114.947,238.229 C114.631,239.35 114.472,240.495 114.472,241.663 M122.543,259.709 C119.836,259.709 117.379,259.192 115.174,258.155 C112.968,257.119 111.079,255.758 109.509,254.071 C107.938,252.381 106.719,250.452 105.849,248.28 C104.98,246.109 104.547,243.87 104.547,241.563 C104.547,239.224 104.998,236.967 105.899,234.795 C106.803,232.625 108.063,230.71 109.683,229.056 C111.306,227.402 113.226,226.083 115.449,225.096 C117.672,224.111 120.103,223.617 122.743,223.617 C125.45,223.617 127.906,224.135 130.112,225.172 C132.318,226.209 134.204,227.578 135.776,229.282 C137.347,230.986 138.558,232.925 139.41,235.097 C140.261,237.268 140.688,239.492 140.688,241.763 C140.688,244.103 140.237,246.35 139.335,248.505 C138.433,250.661 137.179,252.566 135.576,254.22 C133.971,255.875 132.057,257.204 129.836,258.206 C127.614,259.208 125.182,259.709 122.543,259.709" id="Fill-8" fill="#0A0B09"></path>
        <path d="M154.427,239.96 L159.59,239.96 C160.192,239.96 160.752,239.683 161.269,239.132 C161.787,238.581 162.047,237.586 162.047,236.149 C162.047,234.679 161.747,233.676 161.145,233.142 C160.543,232.609 159.941,232.34 159.34,232.34 L154.427,232.34 L154.427,239.96 Z M144.653,259.408 L144.653,223.818 L159.991,223.818 C161.727,223.818 163.334,224.178 164.804,224.896 C166.275,225.615 167.535,226.55 168.587,227.703 C169.64,228.856 170.468,230.177 171.069,231.663 C171.671,233.15 171.971,234.646 171.971,236.149 C171.971,237.719 171.688,239.249 171.119,240.736 C170.553,242.223 169.759,243.543 168.738,244.697 C167.72,245.849 166.483,246.768 165.03,247.454 C163.575,248.139 161.978,248.481 160.242,248.481 L154.427,248.481 L154.427,259.408 L144.653,259.408 L144.653,259.408 Z" id="Fill-9" fill="#0A0B09"></path>
        <path d="M44.144,291.439 C44.144,289.268 44.554,287.129 45.372,285.023 C46.191,282.918 47.386,281.029 48.956,279.359 C50.527,277.688 52.432,276.336 54.671,275.3 C56.909,274.261 59.467,273.745 62.34,273.745 C65.783,273.745 68.765,274.456 71.288,275.876 C73.811,277.294 75.691,279.176 76.927,281.516 L69.458,286.829 C69.124,285.958 68.683,285.243 68.131,284.671 C67.578,284.104 66.969,283.654 66.3,283.318 C65.632,282.985 64.938,282.752 64.22,282.617 C63.501,282.483 62.808,282.416 62.14,282.416 C60.736,282.416 59.525,282.692 58.506,283.244 C57.487,283.795 56.651,284.512 56,285.398 C55.348,286.287 54.862,287.287 54.546,288.408 C54.228,289.526 54.069,290.637 54.069,291.741 C54.069,292.976 54.253,294.163 54.621,295.298 C54.989,296.436 55.523,297.437 56.225,298.307 C56.927,299.175 57.787,299.869 58.806,300.386 C59.826,300.907 60.97,301.164 62.24,301.164 C62.909,301.164 63.594,301.089 64.295,300.939 C64.998,300.788 65.674,300.537 66.325,300.185 C66.977,299.835 67.562,299.383 68.08,298.833 C68.598,298.281 69.007,297.604 69.308,296.802 L77.278,301.564 C76.743,302.868 75.933,304.04 74.848,305.074 C73.761,306.109 72.523,306.979 71.138,307.68 C69.751,308.381 68.263,308.918 66.677,309.284 C65.089,309.653 63.543,309.835 62.039,309.835 C59.4,309.835 56.985,309.31 54.796,308.257 C52.607,307.204 50.72,305.808 49.132,304.071 C47.544,302.335 46.317,300.364 45.448,298.157 C44.577,295.95 44.144,293.71 44.144,291.439" id="Fill-10" fill="#0A0B09"></path>
        <path d="M100.777,298.406 C100.777,297.537 100.543,296.81 100.075,296.227 C99.608,295.643 99.006,295.349 98.27,295.349 L90.2,295.349 L90.2,301.316 L97.919,301.316 C98.721,301.316 99.399,301.065 99.951,300.564 C100.501,300.062 100.777,299.341 100.777,298.406 L100.777,298.406 Z M90.2,282.267 L90.2,287.732 L96.867,287.732 C97.535,287.732 98.145,287.545 98.697,287.179 C99.248,286.81 99.524,286.077 99.524,284.972 C99.524,284.005 99.29,283.312 98.821,282.893 C98.355,282.474 97.802,282.267 97.168,282.267 L90.2,282.267 Z M110.701,300.414 C110.701,302.015 110.367,303.397 109.7,304.548 C109.031,305.7 108.112,306.643 106.943,307.381 C105.773,308.117 104.411,308.658 102.857,309.009 C101.303,309.361 99.658,309.534 97.919,309.534 L80.425,309.534 L80.425,273.946 L101.078,273.946 C102.313,273.946 103.434,274.212 104.435,274.748 C105.438,275.281 106.291,275.974 106.993,276.828 C107.695,277.68 108.238,278.647 108.621,279.734 C109.006,280.823 109.199,281.931 109.199,283.067 C109.199,284.741 108.772,286.336 107.919,287.855 C107.068,289.377 105.79,290.521 104.085,291.289 C106.122,291.89 107.736,292.935 108.923,294.42 C110.108,295.908 110.701,297.905 110.701,300.414 L110.701,300.414 Z" id="Fill-11" fill="#0A0B09"></path>
        <path d="M130.185,301.166 C131.32,301.166 132.291,300.915 133.094,300.412 C133.894,299.91 134.546,299.251 135.047,298.433 C135.548,297.612 135.918,296.668 136.15,295.601 C136.383,294.529 136.501,293.412 136.501,292.24 L136.501,273.944 L146.276,273.944 L146.276,292.24 C146.276,294.715 145.96,297.029 145.325,299.185 C144.687,301.339 143.701,303.204 142.366,304.772 C141.031,306.344 139.351,307.582 137.328,308.484 C135.306,309.385 132.927,309.837 130.185,309.837 C127.345,309.837 124.913,309.358 122.893,308.406 C120.868,307.456 119.208,306.175 117.904,304.571 C116.602,302.969 115.648,301.105 115.047,298.985 C114.445,296.862 114.146,294.615 114.146,292.24 L114.146,273.944 L123.919,273.944 L123.919,292.24 C123.919,293.412 124.037,294.539 124.271,295.624 C124.503,296.712 124.873,297.662 125.374,298.483 C125.875,299.301 126.518,299.953 127.304,300.439 C128.087,300.922 129.05,301.166 130.185,301.166" id="Fill-12" fill="#4300FF"></path>
        <path d="M173.021,285.575 C172.016,284.972 170.982,284.44 169.913,283.969 C169.01,283.569 167.999,283.194 166.879,282.843 C165.759,282.492 164.666,282.318 163.596,282.318 C162.728,282.318 162.034,282.452 161.515,282.716 C160.998,282.985 160.74,283.437 160.74,284.07 C160.74,284.54 160.89,284.922 161.191,285.222 C161.491,285.525 161.923,285.799 162.494,286.049 C163.06,286.3 163.753,286.543 164.574,286.778 C165.39,287.01 166.32,287.294 167.356,287.631 C168.993,288.132 170.47,288.682 171.792,289.283 C173.111,289.884 174.239,290.595 175.176,291.416 C176.112,292.234 176.828,293.226 177.33,294.398 C177.831,295.569 178.082,296.988 178.082,298.658 C178.082,300.796 177.688,302.593 176.905,304.047 C176.12,305.5 175.084,306.662 173.796,307.531 C172.508,308.401 171.056,309.025 169.435,309.411 C167.816,309.794 166.184,309.985 164.548,309.985 C163.246,309.985 161.907,309.885 160.539,309.684 C159.169,309.484 157.807,309.203 156.452,308.833 C155.099,308.467 153.797,308.031 152.543,307.531 C151.29,307.031 150.127,306.461 149.06,305.826 L153.269,297.253 C154.44,297.989 155.658,298.64 156.93,299.21 C157.998,299.711 159.21,300.163 160.563,300.564 C161.916,300.965 163.296,301.166 164.699,301.166 C165.769,301.166 166.512,301.021 166.929,300.737 C167.346,300.456 167.556,300.078 167.556,299.61 C167.556,299.109 167.346,298.681 166.929,298.331 C166.512,297.982 165.934,297.673 165.2,297.404 C164.465,297.138 163.622,296.872 162.668,296.602 C161.716,296.336 160.706,296.019 159.636,295.649 C158.066,295.115 156.713,294.541 155.576,293.919 C154.44,293.304 153.502,292.602 152.768,291.816 C152.034,291.029 151.491,290.135 151.14,289.132 C150.788,288.132 150.614,286.978 150.614,285.675 C150.614,283.705 150.971,281.966 151.691,280.461 C152.408,278.958 153.387,277.704 154.624,276.702 C155.858,275.701 157.272,274.941 158.859,274.42 C160.447,273.905 162.124,273.645 163.895,273.645 C165.2,273.645 166.47,273.769 167.707,274.02 C168.942,274.27 170.138,274.59 171.291,274.972 C172.444,275.356 173.522,275.774 174.525,276.226 C175.527,276.677 176.427,277.102 177.23,277.503 L173.021,285.575" id="Fill-13" fill="#4300FF"></path>
        <path d="M181.951,308.383 C180.846,307.314 180.294,305.96 180.294,304.323 C180.294,302.652 180.837,301.298 181.926,300.262 C183.012,299.227 184.371,298.709 186.009,298.709 C187.682,298.709 189.05,299.227 190.121,300.262 C191.189,301.298 191.723,302.652 191.723,304.323 C191.723,305.96 191.18,307.314 190.096,308.383 C189.008,309.452 187.646,309.987 186.009,309.987 C184.407,309.987 183.054,309.452 181.951,308.383" id="Fill-14" fill="#4300FF"></path>
        <g id="Group-18" transform="translate(0.000000, 125.000000)">
            <mask id="mask-2" fill="white">
                <use xlink:href="#path-1"></use>
            </mask>
            <g id="Clip-16"></g>
            <polyline id="Fill-15" fill="#0A0B09" mask="url(#mask-2)" points="130.211 137.009 131.474 141.115 135.58 141.115 132.261 143.65 133.525 147.751 130.211 145.214 126.888 147.751 128.155 143.65 124.842 141.115 128.942 141.115 130.211 137.009"></polyline>
            <path d="M0.001,237.001 L236.313,237.001 L236.313,0.688 L0.001,0.688 L0.001,237.001 Z M14.323,222.679 L221.991,222.679 L221.991,15.01 L14.323,15.01 L14.323,222.679 Z" id="Fill-17" fill="#4300FF" mask="url(#mask-2)"></path>
        </g>
        <path d="M252.237,179.59 C252.237,173.008 253.476,166.525 255.959,160.144 C258.44,153.764 262.059,148.043 266.822,142.977 C271.581,137.914 277.354,133.812 284.14,130.671 C290.925,127.533 298.673,125.962 307.385,125.962 C317.815,125.962 326.855,128.115 334.503,132.418 C342.149,136.724 347.846,142.421 351.595,149.51 L328.958,165.613 C327.944,162.981 326.603,160.804 324.932,159.081 C323.261,157.36 321.411,155.992 319.387,154.979 C317.36,153.968 315.259,153.258 313.082,152.852 C310.903,152.448 308.802,152.244 306.777,152.244 C302.523,152.244 298.851,153.08 295.763,154.751 C292.672,156.422 290.141,158.602 288.166,161.284 C286.192,163.968 284.722,167.007 283.761,170.399 C282.797,173.793 282.317,177.16 282.317,180.502 C282.317,184.25 282.873,187.846 283.989,191.289 C285.102,194.733 286.723,197.772 288.85,200.404 C290.977,203.039 293.584,205.14 296.674,206.709 C299.762,208.28 303.231,209.064 307.081,209.064 C309.106,209.064 311.183,208.835 313.31,208.38 C315.437,207.924 317.488,207.165 319.463,206.101 C321.438,205.038 323.209,203.67 324.78,202 C326.349,200.328 327.591,198.277 328.502,195.847 L352.658,210.279 C351.037,214.229 348.58,217.775 345.29,220.914 C341.997,224.054 338.249,226.687 334.047,228.814 C329.844,230.941 325.336,232.562 320.526,233.675 C315.715,234.789 311.031,235.346 306.473,235.346 C298.471,235.346 291.153,233.752 284.52,230.561 C277.886,227.371 272.162,223.143 267.353,217.876 C262.541,212.61 258.819,206.633 256.187,199.948 C253.552,193.263 252.237,186.48 252.237,179.59" id="Fill-19" fill="#0A0B09"></path>
        <path d="M410.236,209.064 C413.678,209.064 416.617,208.304 419.048,206.785 C421.479,205.266 423.453,203.267 424.973,200.784 C426.492,198.303 427.605,195.443 428.315,192.2 C429.022,188.96 429.379,185.567 429.379,182.021 L429.379,126.569 L459.003,126.569 L459.003,182.021 C459.003,189.518 458.04,196.53 456.117,203.063 C454.192,209.595 451.203,215.243 447.154,220.002 C443.101,224.764 438.012,228.509 431.885,231.245 C425.756,233.979 418.54,235.346 410.236,235.346 C401.626,235.346 394.258,233.903 388.131,231.017 C382.002,228.13 376.965,224.256 373.015,219.395 C369.065,214.533 366.178,208.888 364.355,202.455 C362.532,196.024 361.621,189.214 361.621,182.021 L361.621,126.569 L391.245,126.569 L391.245,182.021 C391.245,185.567 391.599,188.986 392.309,192.276 C393.016,195.569 394.132,198.455 395.652,200.936 C397.171,203.418 399.12,205.394 401.501,206.861 C403.879,208.33 406.792,209.064 410.236,209.064" id="Fill-20" fill="#0A0B09"></path>
        <path d="M505.643,175.489 L524.33,175.489 C526.153,175.489 527.848,174.477 529.419,172.45 C530.989,170.425 531.774,167.589 531.774,163.942 C531.774,160.197 530.863,157.334 529.04,155.359 C527.217,153.384 525.393,152.396 523.571,152.396 L505.643,152.396 L505.643,175.489 Z M476.018,234.435 L476.018,126.569 L525.545,126.569 C530.81,126.569 535.672,127.659 540.13,129.835 C544.585,132.015 548.41,134.849 551.6,138.343 C554.79,141.837 557.297,145.84 559.12,150.345 C560.944,154.853 561.855,159.385 561.855,163.942 C561.855,170.224 560.488,176.072 557.753,181.489 C555.019,186.909 551.221,191.341 546.359,194.783 L569.148,234.435 L535.724,234.435 L516.734,201.316 L505.643,201.316 L505.643,234.435 L476.018,234.435 L476.018,234.435 Z" id="Fill-21" fill="#0A0B09"></path>
        <path d="M640.246,200.708 C640.246,198.075 639.536,195.873 638.119,194.099 C636.7,192.328 634.876,191.44 632.65,191.44 L608.191,191.44 L608.191,209.52 L631.586,209.52 C634.017,209.52 636.068,208.76 637.739,207.24 C639.41,205.721 640.246,203.544 640.246,200.708 Z M608.191,151.788 L608.191,168.348 L628.396,168.348 C630.421,168.348 632.27,167.793 633.942,166.677 C635.613,165.564 636.448,163.335 636.448,159.992 C636.448,157.056 635.738,154.955 634.321,153.688 C632.901,152.422 631.23,151.788 629.308,151.788 L608.191,151.788 Z M670.326,206.785 C670.326,211.647 669.313,215.824 667.288,219.319 C665.261,222.813 662.477,225.675 658.932,227.903 C655.386,230.131 651.261,231.777 646.551,232.839 C641.841,233.903 636.852,234.435 631.586,234.435 L578.565,234.435 L578.565,126.569 L641.158,126.569 C644.904,126.569 648.298,127.381 651.336,129 C654.375,130.622 656.957,132.722 659.084,135.305 C661.211,137.888 662.857,140.826 664.022,144.117 C665.185,147.409 665.769,150.777 665.769,154.22 C665.769,159.285 664.478,164.121 661.895,168.728 C659.313,173.338 655.439,176.806 650.273,179.134 C656.45,180.958 661.337,184.125 664.934,188.63 C668.528,193.138 670.326,199.189 670.326,206.785 L670.326,206.785 Z" id="Fill-22" fill="#0A0B09"></path>
        <path d="M748.717,161.815 C745.678,159.992 742.538,158.374 739.298,156.954 C736.564,155.739 733.498,154.599 730.106,153.536 C726.711,152.472 723.396,151.94 720.156,151.94 C717.521,151.94 715.419,152.347 713.851,153.156 C712.28,153.968 711.496,155.335 711.496,157.257 C711.496,158.677 711.951,159.841 712.863,160.752 C713.775,161.664 715.09,162.499 716.814,163.259 C718.534,164.018 720.635,164.754 723.118,165.461 C725.598,166.171 728.409,167.033 731.549,168.044 C736.511,169.564 740.992,171.234 744.994,173.058 C748.994,174.881 752.413,177.034 755.25,179.515 C758.084,181.998 760.263,185.01 761.783,188.554 C763.302,192.101 764.062,196.404 764.062,201.467 C764.062,207.951 762.87,213.394 760.491,217.799 C758.111,222.205 754.969,225.725 751.072,228.358 C747.172,230.993 742.766,232.892 737.855,234.055 C732.941,235.218 728.003,235.802 723.041,235.802 C719.092,235.802 715.04,235.499 710.888,234.891 C706.734,234.283 702.608,233.423 698.506,232.308 C694.405,231.195 690.454,229.877 686.657,228.358 C682.858,226.838 679.338,225.117 676.098,223.193 L688.86,197.213 C692.404,199.443 696.099,201.418 699.95,203.139 C703.19,204.658 706.863,206.025 710.964,207.24 C715.066,208.456 719.244,209.064 723.497,209.064 C726.739,209.064 728.991,208.634 730.258,207.772 C731.524,206.913 732.158,205.773 732.158,204.355 C732.158,202.835 731.524,201.543 730.258,200.48 C728.991,199.417 727.243,198.481 725.017,197.669 C722.788,196.86 720.232,196.051 717.345,195.239 C714.458,194.429 711.394,193.467 708.154,192.352 C703.392,190.733 699.289,188.986 695.848,187.111 C692.404,185.238 689.567,183.111 687.34,180.73 C685.112,178.351 683.466,175.641 682.403,172.602 C681.339,169.564 680.808,166.069 680.808,162.12 C680.808,156.144 681.895,150.877 684.074,146.319 C686.25,141.762 689.213,137.963 692.961,134.925 C696.707,131.887 700.987,129.584 705.798,128.012 C710.608,126.444 715.698,125.658 721.067,125.658 C725.017,125.658 728.866,126.038 732.614,126.797 C736.36,127.557 739.982,128.521 743.476,129.684 C746.97,130.849 750.237,132.114 753.275,133.481 C756.313,134.849 759.047,136.14 761.479,137.356 L748.717,161.815" id="Fill-23" fill="#0A0B09"></path>
        <polygon id="Fill-24" fill="#0A0B09" points="777.125 234.435 806.75 234.435 806.75 126.569 777.125 126.569"></polygon>
        <path d="M891.066,180.35 C891.066,176.198 890.508,172.4 889.395,168.956 C888.28,165.514 886.684,162.575 884.61,160.144 C882.533,157.713 879.976,155.814 876.937,154.447 C873.899,153.08 870.504,152.396 866.758,152.396 L854.909,152.396 L854.909,208.608 L866.758,208.608 C870.606,208.608 874.05,207.9 877.089,206.481 C880.127,205.064 882.684,203.088 884.761,200.556 C886.836,198.025 888.407,195.037 889.471,191.592 C890.534,188.15 891.066,184.402 891.066,180.35 Z M825.284,234.435 L825.284,126.569 L866.758,126.569 C875.669,126.569 883.52,127.989 890.306,130.823 C897.091,133.66 902.764,137.507 907.322,142.369 C911.879,147.231 915.322,152.928 917.653,159.46 C919.981,165.994 921.147,172.958 921.147,180.35 C921.147,188.554 919.856,195.975 917.273,202.606 C914.69,209.242 911.018,214.913 906.258,219.622 C901.496,224.332 895.776,227.978 889.09,230.561 C882.407,233.143 874.962,234.435 866.758,234.435 L825.284,234.435 L825.284,234.435 Z" id="Fill-25" fill="#0A0B09"></path>
        <polyline id="Fill-26" fill="#0A0B09" points="1010.93 208.608 1010.93 234.435 934.059 234.435 934.059 126.569 1009.56 126.569 1009.56 152.396 963.684 152.396 963.684 167.589 1002.88 167.589 1002.88 191.592 963.684 191.592 963.684 208.608 1010.93 208.608"></polyline>
        <path d="M252.237,306.012 C252.237,299.429 253.476,292.946 255.959,286.566 C258.44,280.185 262.059,274.463 266.822,269.398 C271.581,264.335 277.354,260.233 284.14,257.093 C290.925,253.955 298.673,252.383 307.385,252.383 C317.815,252.383 326.855,254.537 334.503,258.839 C342.149,263.146 347.846,268.842 351.595,275.931 L328.958,292.035 C327.944,289.402 326.603,287.226 324.932,285.502 C323.261,283.781 321.411,282.414 319.387,281.401 C317.36,280.389 315.259,279.679 313.082,279.273 C310.903,278.87 308.802,278.666 306.777,278.666 C302.523,278.666 298.851,279.502 295.763,281.172 C292.672,282.843 290.141,285.023 288.166,287.706 C286.192,290.389 284.722,293.428 283.761,296.821 C282.797,300.214 282.317,303.582 282.317,306.923 C282.317,310.671 282.873,314.268 283.989,317.71 C285.102,321.155 286.723,324.193 288.85,326.826 C290.977,329.46 293.584,331.561 296.674,333.13 C299.762,334.702 303.231,335.485 307.081,335.485 C309.106,335.485 311.183,335.257 313.31,334.801 C315.437,334.345 317.488,333.585 319.463,332.523 C321.438,331.459 323.209,330.092 324.78,328.42 C326.349,326.75 327.591,324.699 328.502,322.268 L352.658,336.701 C351.037,340.65 348.58,344.197 345.29,347.335 C341.997,350.475 338.249,353.108 334.047,355.235 C329.844,357.362 325.336,358.983 320.526,360.096 C315.715,361.21 311.031,361.768 306.473,361.768 C298.471,361.768 291.153,360.172 284.52,356.982 C277.886,353.792 272.162,349.564 267.353,344.296 C262.541,339.032 258.819,333.054 256.187,326.37 C253.552,319.685 252.237,312.901 252.237,306.012" id="Fill-27" fill="#0A0B09"></path>
        <path d="M385.624,307.075 C385.624,310.721 386.13,314.242 387.144,317.634 C388.155,321.029 389.674,324.041 391.701,326.673 C393.726,329.308 396.283,331.435 399.373,333.054 C402.462,334.675 406.135,335.485 410.388,335.485 C414.642,335.485 418.338,334.65 421.479,332.978 C424.616,331.307 427.176,329.13 429.151,326.446 C431.126,323.763 432.593,320.699 433.556,317.254 C434.518,313.812 435,310.318 435,306.772 C435,303.126 434.492,299.608 433.481,296.212 C432.467,292.821 430.922,289.832 428.847,287.25 C426.77,284.667 424.187,282.592 421.099,281.02 C418.008,279.451 414.388,278.666 410.236,278.666 C405.982,278.666 402.31,279.478 399.222,281.096 C396.131,282.718 393.574,284.871 391.55,287.553 C389.522,290.238 388.03,293.276 387.068,296.668 C386.104,300.063 385.624,303.531 385.624,307.075 Z M410.084,361.768 C401.881,361.768 394.436,360.199 387.752,357.058 C381.067,353.92 375.344,349.792 370.584,344.676 C365.822,339.563 362.126,333.714 359.494,327.129 C356.859,320.546 355.544,313.76 355.544,306.772 C355.544,299.683 356.911,292.847 359.646,286.262 C362.38,279.679 366.202,273.88 371.116,268.867 C376.027,263.853 381.85,259.853 388.587,256.865 C395.322,253.878 402.69,252.383 410.692,252.383 C418.896,252.383 426.34,253.955 433.025,257.093 C439.709,260.233 445.43,264.385 450.192,269.55 C454.951,274.715 458.624,280.591 461.206,287.173 C463.789,293.758 465.08,300.493 465.08,307.379 C465.08,314.469 463.713,321.28 460.979,327.813 C458.244,334.345 454.446,340.119 449.584,345.132 C444.723,350.145 438.924,354.171 432.189,357.21 C425.452,360.249 418.084,361.768 410.084,361.768 L410.084,361.768 Z" id="Fill-28" fill="#0A0B09"></path>
        <polyline id="Fill-29" fill="#0A0B09" points="507.315 307.835 507.315 360.856 477.69 360.856 477.69 252.991 500.783 252.991 544.08 307.835 544.08 252.991 573.705 252.991 573.705 360.856 550.158 360.856 507.315 307.835"></polyline>
        <path d="M586.315,306.012 C586.315,299.429 587.554,292.946 590.037,286.566 C592.518,280.185 596.138,274.463 600.9,269.398 C605.659,264.335 611.432,260.233 618.219,257.093 C625.003,253.955 632.751,252.383 641.463,252.383 C651.894,252.383 660.934,254.537 668.581,258.839 C676.228,263.146 681.925,268.842 685.673,275.931 L663.036,292.035 C662.023,289.402 660.682,287.226 659.01,285.502 C657.339,283.781 655.491,282.414 653.465,281.401 C651.438,280.389 649.337,279.679 647.16,279.273 C644.981,278.87 642.88,278.666 640.856,278.666 C636.602,278.666 632.929,279.502 629.841,281.172 C626.75,282.843 624.22,285.023 622.245,287.706 C620.27,290.389 618.8,293.428 617.839,296.821 C616.875,300.214 616.396,303.582 616.396,306.923 C616.396,310.671 616.951,314.268 618.068,317.71 C619.181,321.155 620.802,324.193 622.929,326.826 C625.056,329.46 627.661,331.561 630.753,333.13 C633.841,334.702 637.31,335.485 641.159,335.485 C643.185,335.485 645.262,335.257 647.388,334.801 C649.515,334.345 651.567,333.585 653.541,332.523 C655.517,331.459 657.287,330.092 658.859,328.42 C660.428,326.75 661.669,324.699 662.581,322.268 L686.737,336.701 C685.116,340.65 682.659,344.197 679.368,347.335 C676.076,350.475 672.327,353.108 668.126,355.235 C663.922,357.362 659.414,358.983 654.605,360.096 C649.793,361.21 645.11,361.768 640.552,361.768 C632.55,361.768 625.231,360.172 618.599,356.982 C611.964,353.792 606.241,349.564 601.432,344.296 C596.619,339.032 592.898,333.054 590.265,326.37 C587.63,319.685 586.315,312.901 586.315,306.012" id="Fill-30" fill="#0A0B09"></path>
        <polyline id="Fill-31" fill="#0A0B09" points="774.091 335.029 774.091 360.856 697.218 360.856 697.218 252.991 772.724 252.991 772.724 278.818 726.843 278.818 726.843 294.01 766.039 294.01 766.039 318.013 726.843 318.013 726.843 335.029 774.091 335.029"></polyline>
        <path d="M817.539,301.91 L836.226,301.91 C838.049,301.91 839.743,300.899 841.316,298.872 C842.885,296.847 843.67,294.01 843.67,290.364 C843.67,286.618 842.759,283.755 840.936,281.78 C839.113,279.805 837.289,278.818 835.466,278.818 L817.539,278.818 L817.539,301.91 Z M787.914,360.856 L787.914,252.991 L837.442,252.991 C842.706,252.991 847.568,254.081 852.026,256.256 C856.482,258.436 860.306,261.27 863.496,264.764 C866.686,268.259 869.194,272.261 871.016,276.767 C872.839,281.275 873.75,285.806 873.75,290.364 C873.75,296.645 872.384,302.494 869.649,307.911 C866.914,313.331 863.117,317.762 858.255,321.204 L881.043,360.856 L847.62,360.856 L828.63,327.737 L817.539,327.737 L817.539,360.856 L787.914,360.856 L787.914,360.856 Z" id="Fill-32" fill="#0A0B09"></path>
        <polyline id="Fill-33" fill="#0A0B09" points="973.107 278.818 942.115 278.818 942.115 360.856 912.49 360.856 912.49 278.818 881.345 278.818 881.345 252.991 973.107 252.991 973.107 278.818"></polyline>
        <path d="M1056.73,160.929 L1077.55,183.492 C1076.89,178.936 1076.03,174.429 1074.95,169.987 C1073.97,165.962 1072.8,161.948 1071.48,158.061 C1065.69,141.093 1056.98,126.294 1045.59,114.072 C1033.96,101.599 1020.03,92.314 1004.17,86.474 C993.305,82.467 981.921,80.24 970.335,79.853 C970.332,79.853 970.334,79.853 970.331,79.853 C953.473,79.291 936.466,82.581 919.788,89.634 C917.009,90.808 913.982,91.375 911.034,91.277 C906.154,91.114 901.775,89.171 899.011,85.935 C889.041,74.165 876.775,65.541 862.552,60.302 C852.665,56.664 842.442,54.645 832.159,54.3 C812.968,53.66 793.904,58.912 777.027,69.489 C764.465,77.362 753.402,87.953 744.147,100.968 L742.786,102.88 L574.356,48.285 L573.749,47.452 C570.398,42.848 566.159,39.066 561.151,36.211 L558.656,34.789 L566.568,17.858 L553.005,11.813 L544.715,29.554 L530.143,24.182 L538.412,6.484 L524.85,0.439 L515.806,19.792 L513.551,19.589 C512.65,19.508 511.906,19.459 511.21,19.437 C495.779,18.921 481.622,26.801 474.266,40 L473.998,40.482 L473.535,40.88 L470.395,48.914 C466.599,58.798 466.971,69.538 471.442,79.153 C475.909,88.763 483.952,96.122 494.088,99.874 L524.99,111.233 C529.099,112.746 533.412,113.587 537.808,113.734 C542.036,113.876 546.237,113.375 550.292,112.247 L551.359,111.949 L560.37,115.573 L599.441,115.573 L551.333,96.228 C547.31,98.333 542.835,99.361 538.293,99.21 C535.525,99.117 532.808,98.586 530.224,97.633 L499.356,86.288 C492.934,83.911 487.84,79.251 485.012,73.169 C482.183,67.085 481.949,60.288 484.358,54.014 L486.33,48.972 L486.365,48.956 C490.532,39.588 500.158,33.609 510.725,33.961 C513.518,34.055 516.271,34.595 518.907,35.568 L549.745,46.937 C556.215,49.308 561.405,54.131 564.186,60.296 L749.414,120.335 C767.984,86.967 798.693,67.725 831.68,68.826 C840.325,69.115 848.946,70.821 857.306,73.896 C869.07,78.23 879.241,85.393 887.532,95.183 C893.005,101.626 901.395,105.497 910.549,105.802 C915.691,105.974 920.944,104.994 925.739,102.969 C940.371,96.78 955.212,93.89 969.85,94.378 C979.804,94.711 989.587,96.625 998.928,100.069 C1025.76,109.953 1046.23,131.532 1056.73,160.929" id="Fill-34" fill="#4300FF"></path>
        <path d="M1049.83,171.804 L1049.83,219.243 C1048,218.526 1045.96,218.207 1043.83,218.449 C1037.66,219.145 1032.81,224.376 1032.61,230.58 C1032.38,237.748 1038.12,243.631 1045.24,243.631 C1052.14,243.631 1057.74,238.093 1057.86,231.22 L1057.9,231.22 L1057.9,192.454 L1071.72,207.443 L1077.66,201.972 L1049.83,171.804" id="Fill-35" fill="#797A76"></path>
        <path d="M1063.02,251.349 L1013.15,265.101 L1013.15,305.288 C1010.91,304.414 1008.38,304.13 1005.72,304.735 C1000.46,305.93 996.478,310.465 995.979,315.834 C995.279,323.355 1001.18,329.676 1008.55,329.676 C1015.46,329.676 1021.05,324.139 1021.17,317.264 L1021.22,317.264 L1021.22,271.246 L1054.95,261.944 L1054.95,294.195 C1052.79,293.405 1050.37,293.168 1047.82,293.795 C1042.76,295.043 1038.95,299.475 1038.54,304.672 C1037.96,311.89 1043.64,317.926 1050.74,317.926 C1057.48,317.926 1062.95,312.474 1062.98,305.739 L1063.02,305.739 L1063.02,251.349" id="Fill-36" fill="#797A76"></path>
        <path d="M1003.38,341.757 C997.802,341.757 992.597,339.552 988.72,335.547 C988.506,335.327 988.3,335.1 988.098,334.872 C977.011,340.73 965.456,344.686 953.892,346.61 L953.892,361.328 C969.312,359.105 984.693,353.751 999.2,345.471 C1001.34,344.248 1003.45,342.962 1005.53,341.627 C1004.82,341.705 1004.11,341.757 1003.38,341.757" id="Fill-37" fill="#4300FF"></path>
    </g>
</svg>