<svg xmlns="http://www.w3.org/2000/svg" viewBox="0 0 575.77 216"><defs><style>.cls-1{fill:#ee3524;}.cls-2{fill:#001c5a;}</style></defs><g id="Layer_2" data-name="Layer 2"><g id="Layer_1-2" data-name="Layer 1"><polygon class="cls-1" points="104.51 104.28 104.51 181.06 92.62 191.03 83.61 186.49 83.61 104.28 94.06 114.8 104.51 104.28"/><polygon class="cls-1" points="146.31 62.22 146.31 146 125.41 163.53 125.41 83.25 146.31 62.22"/><polygon class="cls-1" points="62.7 83.25 62.7 175.98 41.8 165.46 41.8 62.22 62.7 83.25"/><path class="cls-2" d="M103.78,39.78,68.93,20.05H0V168L95.5,216l92.62-77.68V0Zm63.43,88.69-62.7,52.59L92.62,191,20.9,154.94V41.18L94.06,114.8l73.15-73.62Z"/><path class="cls-2" d="M270.94,58.32V70.56H234.51V19.44h35.78V31.68H248.55v7.2h18.57V50.26H248.55v8.06Z"/><path class="cls-2" d="M316.18,70.56V43.63l-8.57,18.94h-7.49l-8.57-18.94V70.56h-14V19.44h15.34l11,24.05,11.09-24h15.27V70.56Z"/><path class="cls-2" d="M338.47,70.56V19.44h22A15.56,15.56,0,0,1,367.41,21a18,18,0,0,1,5.44,4,18.79,18.79,0,0,1,3.56,5.69,17.1,17.1,0,0,1,1.3,6.44,18.8,18.8,0,0,1-4.65,12.28,16.4,16.4,0,0,1-5.33,4,16,16,0,0,1-6.87,1.47h-8.35v15.7Zm14-27.94h7.41a3.26,3.26,0,0,0,2.41-1.18c.75-.8,1.12-2.22,1.12-4.29s-.43-3.55-1.3-4.32a3.94,3.94,0,0,0-2.59-1.15h-7.05Z"/><path class="cls-2" d="M381.81,70.56V19.44h14V58.32H419V70.56Z"/><path class="cls-2" d="M444.93,71a24.54,24.54,0,0,1-10.58-2.23A26.12,26.12,0,0,1,421,54.58a25.74,25.74,0,0,1-1.88-9.65A25,25,0,0,1,421,35.21,25.73,25.73,0,0,1,426.46,27a26.53,26.53,0,0,1,8.28-5.68,25.5,25.5,0,0,1,10.48-2.13,24.66,24.66,0,0,1,10.58,2.23,26,26,0,0,1,8.14,5.91,26.72,26.72,0,0,1,5.22,8.35A26.09,26.09,0,0,1,471,45.22a24.76,24.76,0,0,1-1.95,9.68,26,26,0,0,1-5.4,8.21,26.61,26.61,0,0,1-8.24,5.72A25.23,25.23,0,0,1,444.93,71ZM433.34,45.07a17.44,17.44,0,0,0,.72,5,13.08,13.08,0,0,0,2.16,4.28,10.74,10.74,0,0,0,3.64,3,12.25,12.25,0,0,0,10.47,0,10.69,10.69,0,0,0,3.64-3.1,13.5,13.5,0,0,0,2.09-4.35,18.62,18.62,0,0,0,.68-5,17.44,17.44,0,0,0-.72-5,12.23,12.23,0,0,0-2.2-4.24,11.1,11.1,0,0,0-3.67-3A11.27,11.27,0,0,0,445,31.61a11.11,11.11,0,0,0-5.22,1.15,10.8,10.8,0,0,0-3.63,3.06A13,13,0,0,0,434,40.14,18.22,18.22,0,0,0,433.34,45.07Z"/><path class="cls-2" d="M482.58,19.44l9.14,22.1,9.36-22.1h15.27l-17.64,34.2V70.56h-14V53.5L467.39,19.44Z"/><path class="cls-2" d="M253.23,134a24.59,24.59,0,0,1-10.59-2.23,26,26,0,0,1-8.13-5.87,26.49,26.49,0,0,1-5.26-8.31,25.73,25.73,0,0,1-1.87-9.65,25.21,25.21,0,0,1,1.94-9.72A25.92,25.92,0,0,1,234.76,90,26.53,26.53,0,0,1,243,84.28a25.47,25.47,0,0,1,10.48-2.13,24.72,24.72,0,0,1,10.58,2.23,26,26,0,0,1,8.14,5.91,26.72,26.72,0,0,1,5.22,8.35,26.08,26.08,0,0,1,1.83,9.58,24.94,24.94,0,0,1-1.94,9.68,26.38,26.38,0,0,1-5.4,8.21,26.77,26.77,0,0,1-8.25,5.72A25.15,25.15,0,0,1,253.23,134Zm-11.59-25.92a17.79,17.79,0,0,0,.71,5,12.91,12.91,0,0,0,2.17,4.28,10.7,10.7,0,0,0,3.63,3,12.27,12.27,0,0,0,10.48,0,10.65,10.65,0,0,0,3.63-3.1,13.3,13.3,0,0,0,2.09-4.35,18.23,18.23,0,0,0,.69-5,17.45,17.45,0,0,0-.73-5,12.21,12.21,0,0,0-2.19-4.24,11.1,11.1,0,0,0-3.67-3,11.29,11.29,0,0,0-5.15-1.11,11,11,0,0,0-5.22,1.15,10.74,10.74,0,0,0-3.64,3.06,12.82,12.82,0,0,0-2.12,4.32A17.83,17.83,0,0,0,241.64,108.07Z"/><path class="cls-2" d="M329.71,82.44v51.12h-14v-20H298.53v20h-14V82.44h14V101.3h17.14V82.44Z"/><path class="cls-2" d="M337.88,133.56V82.44h14v51.12Z"/><path class="cls-2" d="M383.09,134a24.54,24.54,0,0,1-10.58-2.23,26.17,26.17,0,0,1-8.14-5.87,26.46,26.46,0,0,1-5.25-8.31,25.74,25.74,0,0,1-1.88-9.65,25,25,0,0,1,1.95-9.72A25.9,25.9,0,0,1,364.62,90a26.53,26.53,0,0,1,8.28-5.68,25.53,25.53,0,0,1,10.48-2.13A24.66,24.66,0,0,1,394,84.38a26,26,0,0,1,8.14,5.91,26.36,26.36,0,0,1,5.22,8.35,26.09,26.09,0,0,1,1.84,9.58,24.76,24.76,0,0,1-2,9.68,26,26,0,0,1-5.4,8.21,26.61,26.61,0,0,1-8.24,5.72A25.2,25.2,0,0,1,383.09,134ZM371.5,108.07a17.44,17.44,0,0,0,.72,5,13.08,13.08,0,0,0,2.16,4.28,10.74,10.74,0,0,0,3.64,3,12.25,12.25,0,0,0,10.47,0,10.69,10.69,0,0,0,3.64-3.1,13.5,13.5,0,0,0,2.09-4.35,18.62,18.62,0,0,0,.68-5,17.44,17.44,0,0,0-.72-5,12.23,12.23,0,0,0-2.2-4.24,11,11,0,0,0-3.67-3,11.27,11.27,0,0,0-5.15-1.11,11.11,11.11,0,0,0-5.22,1.15,10.8,10.8,0,0,0-3.63,3.06,13,13,0,0,0-2.13,4.32A18.22,18.22,0,0,0,371.5,108.07Z"/><path class="cls-2" d="M248.55,171.43v25.13h-14V145.44h10.94l20.52,26v-26h14v51.12H268.85Z"/><path class="cls-2" d="M311.06,197a24.59,24.59,0,0,1-10.59-2.23,26.12,26.12,0,0,1-8.13-5.87,26.49,26.49,0,0,1-5.26-8.31,25.73,25.73,0,0,1-1.87-9.65,25.21,25.21,0,0,1,1.94-9.72,25.92,25.92,0,0,1,5.44-8.25,26.53,26.53,0,0,1,8.28-5.68,25.47,25.47,0,0,1,10.48-2.13,24.72,24.72,0,0,1,10.58,2.23,26,26,0,0,1,8.14,5.91,26.72,26.72,0,0,1,5.22,8.35,26.08,26.08,0,0,1,1.83,9.58,24.94,24.94,0,0,1-1.94,9.68,26.38,26.38,0,0,1-5.4,8.21,26.77,26.77,0,0,1-8.25,5.72A25.15,25.15,0,0,1,311.06,197Zm-11.59-25.92a17.79,17.79,0,0,0,.71,5,12.91,12.91,0,0,0,2.17,4.28,10.8,10.8,0,0,0,3.63,3,12.27,12.27,0,0,0,10.48,0,10.65,10.65,0,0,0,3.63-3.1,13.3,13.3,0,0,0,2.09-4.35,18.23,18.23,0,0,0,.69-5,17.45,17.45,0,0,0-.73-5,12.21,12.21,0,0,0-2.19-4.24,11.1,11.1,0,0,0-3.67-3,11.29,11.29,0,0,0-5.15-1.11,11,11,0,0,0-5.22,1.15,10.74,10.74,0,0,0-3.64,3.06,12.82,12.82,0,0,0-2.12,4.32A17.83,17.83,0,0,0,299.47,171.07Z"/><path class="cls-2" d="M355.91,145.44h12.88l4.47,15.77,4.53-15.77h12.89l-8.42,24.41,3.67,10.65,11-35.06h15.26l-20,51.12H380.53l-7.27-18.29-7.2,18.29H354.39l-20-51.12h15.19l11.09,35.06,3.53-10.65Z"/><path class="cls-1" d="M409.31,194.9a8.38,8.38,0,0,1,0-11.66,8.88,8.88,0,0,1,11.77,0,7.74,7.74,0,0,1,2.31,5.83A7.83,7.83,0,0,1,421,194.9a8.56,8.56,0,0,1-11.7,0Z"/><path class="cls-1" d="M451.44,197a24.54,24.54,0,0,1-10.58-2.23,26.17,26.17,0,0,1-8.14-5.87,26.46,26.46,0,0,1-5.25-8.31,25.74,25.74,0,0,1-1.88-9.65,25,25,0,0,1,2-9.72A25.73,25.73,0,0,1,433,153a26.53,26.53,0,0,1,8.28-5.68,25.53,25.53,0,0,1,10.48-2.13,24.66,24.66,0,0,1,10.58,2.23,26,26,0,0,1,8.14,5.91,26.36,26.36,0,0,1,5.22,8.35,26.09,26.09,0,0,1,1.84,9.58,24.76,24.76,0,0,1-1.95,9.68,26,26,0,0,1-5.4,8.21,26.61,26.61,0,0,1-8.24,5.72A25.23,25.23,0,0,1,451.44,197Zm-11.59-25.92a17.44,17.44,0,0,0,.72,5,13.08,13.08,0,0,0,2.16,4.28,10.74,10.74,0,0,0,3.64,3,12.25,12.25,0,0,0,10.47,0,10.69,10.69,0,0,0,3.64-3.1,13.5,13.5,0,0,0,2.09-4.35,18.62,18.62,0,0,0,.68-5,17.44,17.44,0,0,0-.72-5,12.23,12.23,0,0,0-2.2-4.24,11,11,0,0,0-3.67-3,11.27,11.27,0,0,0-5.15-1.11,11.11,11.11,0,0,0-5.22,1.15,10.8,10.8,0,0,0-3.63,3.06,13,13,0,0,0-2.13,4.32A18.22,18.22,0,0,0,439.85,171.07Z"/><path class="cls-1" d="M482.7,196.56V145.44h23.48a15.56,15.56,0,0,1,6.91,1.55,17.81,17.81,0,0,1,5.43,4,18.82,18.82,0,0,1,3.57,5.69,17.1,17.1,0,0,1,1.3,6.44,18.16,18.16,0,0,1-1.95,8.32,16.91,16.91,0,0,1-5.4,6.3l10.8,18.79H511l-9-15.7h-5.26v15.7Zm14-27.94h8.86a3.06,3.06,0,0,0,2.41-1.44,6.4,6.4,0,0,0,1.12-4,5.79,5.79,0,0,0-1.3-4.07,3.64,3.64,0,0,0-2.59-1.4h-8.5Z"/><path class="cls-1" d="M564.18,192.31a19,19,0,0,1-12.6,4.61,26.18,26.18,0,0,1-9.51-1.76,22.79,22.79,0,0,1-7.92-5.15,25.28,25.28,0,0,1-5.4-8.28,29.22,29.22,0,0,1-2-11.16,24.87,24.87,0,0,1,7.56-18.11,26.16,26.16,0,0,1,8.31-5.4,26.82,26.82,0,0,1,10.34-2,28.11,28.11,0,0,1,6.62.76,23.24,23.24,0,0,1,5.87,2.23,22.91,22.91,0,0,1,4.86,3.53,17.88,17.88,0,0,1,3.53,4.64l-10.44,8a11.84,11.84,0,0,0-4.54-4.86,12.19,12.19,0,0,0-6.41-1.83,10.52,10.52,0,0,0-4.61,1,10.92,10.92,0,0,0-3.6,2.81,13.47,13.47,0,0,0-2.37,4.29,17.51,17.51,0,0,0,0,10.9,12.65,12.65,0,0,0,2.41,4.22,10.81,10.81,0,0,0,3.71,2.73,11.59,11.59,0,0,0,4.82,1,14.35,14.35,0,0,0,10.8-5h-8.85V169.34h21v27.22H564.18Z"/></g></g></svg>