<?xml version="1.0" encoding="UTF-8"?>
<svg width="135px" height="143px" viewBox="0 0 135 143" version="1.1" xmlns="http://www.w3.org/2000/svg" xmlns:xlink="http://www.w3.org/1999/xlink">
    <!-- Generator: Sketch 64 (93537) - https://sketch.com -->
    <title>Group 32</title>
    <desc>Created with Sketch.</desc>
    <defs>
        <polygon id="path-1" points="0 142.4 134.4688 142.4 134.4688 0.4872 0 0.4872"></polygon>
    </defs>
    <g id="Page-1" stroke="none" stroke-width="1" fill="none" fill-rule="evenodd">
        <g id="Resources" transform="translate(-424.000000, -636.000000)">
            <g id="Group-32" transform="translate(424.000000, 636.000000)">
                <polygon id="Fill-1" fill="#000000" points="0 72.852 119.0984 72.852 119.0984 46.5896 0 46.5896"></polygon>
                <g id="Group-31" transform="translate(0.000000, 0.312800)">
                    <path d="M70.10848,35.18832 L72.79328,35.18832 L72.79328,39.98992 L60.09008,39.98992 L60.09008,35.18832 L62.48768,35.18832 L62.48448,27.02352 C62.48448,26.72512 62.46048,25.53392 62.44528,25.14992 C62.35648,23.10272 61.56528,20.05232 58.05808,20.05232 C53.71568,20.05232 53.43008,24.03952 53.43008,25.29792 L53.43008,35.18832 L55.83808,35.18832 L55.83808,39.98992 L43.12768,39.98992 L43.12768,35.18832 L45.81968,35.18832 L45.81968,6.12112 L43.12768,6.12112 L43.12768,1.31632 L53.43008,1.31632 L53.43008,16.60192 C54.94208,14.27632 57.75408,13.25472 60.43648,13.25472 C62.89168,13.25472 66.02608,14.26432 67.65008,16.20912 C69.79328,18.72272 70.10848,21.03152 70.10848,25.57472 L70.10848,35.18832 Z M105.27648,33.98512 C101.36528,33.98512 99.14208,30.70912 99.14208,26.97072 C99.14208,23.23392 101.36528,19.95792 105.27648,19.95792 C109.15008,19.95792 111.41088,23.23392 111.41088,26.97072 C111.41088,30.70912 109.15008,33.98512 105.27648,33.98512 L105.27648,33.98512 Z M105.28368,13.52272 C97.79568,13.52272 91.89808,19.49712 91.89808,26.97072 C91.89808,34.75792 97.79568,40.41792 105.28368,40.41792 C112.75488,40.41792 118.64768,34.75792 118.64768,26.97072 C118.64768,19.49712 112.75488,13.52272 105.28368,13.52272 L105.28368,13.52272 Z M86.30768,35.18832 L89.00048,35.18832 L89.00048,39.98992 L76.00688,39.98992 L76.00688,35.18832 L78.69968,35.18832 L78.69968,18.70832 L76.00688,18.70832 L76.00688,13.90352 L86.30768,13.90352 L86.30768,35.18832 Z M78.65488,8.40032 L86.30768,8.40032 L86.30768,1.31792 L78.65488,1.31792 L78.65488,8.40032 Z" id="Fill-2" fill="#820024"></path>
                    <path d="M20.63112,37.51608 C11.44952,37.51608 4.12232,29.92568 4.12232,20.65208 C4.12232,11.37288 11.44952,3.79288 20.63112,3.79288 C29.81592,3.79288 37.14072,11.37288 37.14072,20.65208 C37.14072,29.92568 29.81592,37.51608 20.63112,37.51608 M20.63112,0.48728 C9.49592,0.48728 0.58472,9.51528 0.58472,20.65208 C0.58472,31.79208 9.49592,40.81688 20.63112,40.81688 C31.76392,40.81688 40.67432,31.79208 40.67432,20.65208 C40.67432,9.51528 31.76392,0.48728 20.63112,0.48728" id="Fill-4" fill="#E31933"></path>
                    <polygon id="Fill-6" fill="#FFFFFF" points="17.58352 52.54848 22.75632 52.54848 25.88512 63.30688 29.25872 52.54848 34.28912 52.54848 34.28912 67.33248 31.13872 67.33248 31.13872 54.65648 27.11072 67.33248 24.49472 67.33248 20.54832 54.65648 20.54832 67.33248 17.58352 67.33248"></polygon>
                    <polygon id="Fill-8" fill="#FFFFFF" points="40.23424 52.54848 50.13024 52.54848 50.13024 54.96048 43.40384 54.96048 43.40384 58.48048 49.70144 58.48048 49.70144 60.89248 43.40384 60.89248 43.40384 64.87968 50.35584 64.87968 50.35584 67.33248 40.23424 67.33248"></polygon>
                    <path d="M63.5624,61.7508 L61.5176,55.4524 L59.3296,61.7508 L63.5624,61.7508 Z M63.48,52.5484 L68.612,67.334 L65.4208,67.334 L64.3584,64.1452 L58.512,64.1452 L57.408,67.334 L54.38,67.334 L59.7168,52.5484 L63.48,52.5484 Z" id="Fill-10" fill="#FFFFFF"></path>
                    <polygon id="Fill-12" fill="#FFFFFF" points="73.57728 52.54848 78.15888 52.54848 83.69888 64.18448 83.69888 52.54848 86.64448 52.54848 86.64448 67.33248 82.28848 67.33248 76.56368 55.06368 76.56368 67.33248 73.57728 67.33248"></polygon>
                    <path d="M95.02488,62.60824 C95.02488,63.30664 94.98408,65.40984 97.70248,65.40984 C99.42088,65.40984 100.50568,64.59224 100.50568,63.34584 C100.50568,62.03784 99.58248,61.81384 97.70248,61.36424 C94.18568,60.48424 92.26248,59.44024 92.26248,56.88424 C92.26248,54.45064 94.00168,52.30344 98.11048,52.30344 C99.64488,52.30344 101.46568,52.64984 102.56968,54.04184 C103.40808,55.10504 103.40808,56.29224 103.40808,56.78344 L100.36088,56.78344 C100.32008,56.27144 100.15688,54.53304 97.96968,54.53304 C96.49688,54.53304 95.53608,55.33064 95.53608,56.53624 C95.53608,57.90664 96.61928,58.15144 98.74568,58.68344 C101.30248,59.29864 103.81688,59.99144 103.81688,62.87464 C103.81688,65.53384 101.60888,67.67944 97.51848,67.67944 C91.85528,67.67944 91.81448,64.04264 91.79288,62.60824 L95.02488,62.60824 Z" id="Fill-14" fill="#FFFFFF"></path>
                    <path d="M29.66632,84.95312 L25.51672,84.95312 L25.51672,104.92832 C25.51672,109.79712 24.79752,116.65632 13.17912,116.65632 C4.43512,116.65632 2.27672,112.01152 2.27672,105.04032 L2.27672,103.76512 L9.91352,103.76512 L9.91352,104.87312 C9.91352,108.02432 10.18872,111.40032 14.17432,111.40032 C16.27752,111.40032 17.88232,109.68512 17.88232,106.14352 L17.88232,84.95312 L12.07192,84.95312 L12.07192,79.69472 L29.66632,79.69472 L29.66632,84.95312 Z" id="Fill-16" fill="#E31837"></path>
                    <path d="M43.87568,111.4 C48.57888,111.4 50.07088,107.0304 50.07088,102.9336 C50.07088,98.8416 48.57888,94.4688 43.87568,94.4688 C39.17248,94.4688 37.67888,98.8416 37.67888,102.9336 C37.67888,107.0304 39.17248,111.4 43.87568,111.4 M57.70928,102.9336 C57.70928,111.5672 52.00848,116.656 43.87568,116.656 C35.74128,116.656 30.04048,111.5672 30.04048,102.9336 C30.04048,94.3032 35.74128,89.212 43.87568,89.212 C52.00848,89.212 57.70928,94.3032 57.70928,102.9336" id="Fill-18" fill="#E31837"></path>
                    <path d="M82.97256,102.934 C82.97256,98.6748 81.53416,94.4676 76.83096,94.4676 C72.29416,94.4676 70.41416,98.2892 70.41416,102.5468 C70.41416,108.0236 71.96216,111.4004 77.49576,111.4004 C80.64936,111.4004 82.97256,108.5244 82.97256,102.934 L82.97256,102.934 Z M59.89896,110.9028 L63.49576,110.9028 L63.49576,83.9012 L59.89896,83.9012 L59.89896,78.9188 L70.85496,78.9188 L70.85496,93.7492 L70.96456,93.6388 C72.45896,90.8732 75.55896,89.2108 78.98936,89.2108 C85.74056,89.2108 90.60936,93.806 90.60936,103.3212 C90.60936,110.2948 86.95736,116.6572 79.43016,116.6572 C74.95016,116.6572 72.40456,115.3308 70.30216,111.566 L70.19176,111.566 L70.19176,115.882 L59.89896,115.882 L59.89896,110.9028 Z" id="Fill-20" fill="#E31837"></path>
                    <path d="M94.75304,106.75312 L100.56504,106.75312 C100.56504,110.01872 103.10984,111.67712 106.09864,111.67712 C107.70264,111.67712 109.97144,111.12592 109.97144,108.68912 C109.97144,103.26752 94.64264,108.68912 94.64264,97.18112 C94.64264,91.75712 99.23544,89.21152 103.93944,89.21152 C106.92824,89.21152 109.19704,90.04192 110.91144,92.69952 L111.02184,92.69952 L111.02184,89.98672 L116.55624,89.98672 L116.55624,98.56352 L110.74584,98.56352 C110.74584,95.51872 108.69944,94.19472 105.98904,94.19472 C104.49304,94.19472 102.00264,94.52352 102.00264,96.95872 C102.00264,102.21472 117.33144,96.95872 117.33144,108.35632 C117.33144,112.94832 113.67944,116.65632 108.08824,116.65632 C104.21704,116.65632 101.89304,115.21952 100.39944,113.11712 L100.28824,113.11712 L100.28824,115.88272 L94.75304,115.88272 L94.75304,106.75312 Z" id="Fill-22" fill="#E31837"></path>
                    <mask id="mask-2" fill="white">
                        <use xlink:href="#path-1"></use>
                    </mask>
                    <g id="Clip-25"></g>
                    <polygon id="Fill-24" fill="#000000" mask="url(#mask-2)" points="35.2912 142.08 38.6096 142.08 38.6096 138.7616 35.2912 138.7616"></polygon>
                    <path d="M50.81864,135.55744 L48.43144,135.55744 C48.36344,134.05344 47.81784,133.16864 46.24824,133.16864 C44.36264,133.16864 43.88584,135.03344 43.88584,136.71504 C43.88584,138.44464 44.33864,140.23984 46.31784,140.23984 C47.38584,140.23984 48.20264,139.53424 48.29464,138.37504 L51.02264,138.37504 C50.79544,141.07904 48.74984,142.39984 46.29464,142.39984 C42.08904,142.39984 40.74664,139.32944 40.74664,136.98864 C40.74664,133.66784 42.13304,131.12224 45.61224,131.12224 C46.79384,131.12224 47.90904,131.66784 48.50104,132.66704 L48.54504,132.66704 L48.54504,131.44224 L50.81864,131.44224 L50.81864,135.55744 Z" id="Fill-26" fill="#000000" mask="url(#mask-2)"></path>
                    <path d="M57.79832,140.23944 C59.72952,140.23944 60.34552,138.44424 60.34552,136.76104 C60.34552,135.07944 59.72952,133.28344 57.79832,133.28344 C55.86552,133.28344 55.25192,135.07944 55.25192,136.76104 C55.25192,138.44424 55.86552,140.23944 57.79832,140.23944 M63.48232,136.76104 C63.48232,140.30664 61.13992,142.39944 57.79832,142.39944 C54.45592,142.39944 52.11512,140.30664 52.11512,136.76104 C52.11512,133.21464 54.45592,131.12184 57.79832,131.12184 C61.13992,131.12184 63.48232,133.21464 63.48232,136.76104" id="Fill-27" fill="#000000" mask="url(#mask-2)"></path>
                    <path d="M64.68816,140.0344 L66.16736,140.0344 L66.16736,133.4856 L64.68816,133.4856 L64.68816,131.4416 L68.91456,131.4416 L68.91456,133.2368 L68.96176,133.2368 C69.69056,131.8736 71.05296,131.1216 72.57616,131.1216 C74.21216,131.1216 75.32736,131.6 76.12336,133.1 C76.84976,131.76 78.05536,131.1216 79.55616,131.1216 C81.89856,131.1216 83.48976,132.0992 83.55776,134.5792 L83.55776,140.0344 L85.03456,140.0344 L85.03456,142.0808 L79.16816,142.0808 L79.16816,140.0344 L80.53376,140.0344 L80.53376,135.4184 C80.53376,134.2608 80.07776,133.2832 78.71456,133.2832 C77.07696,133.2832 76.37296,134.6 76.37296,136.0328 L76.37296,140.0344 L77.73776,140.0344 L77.73776,142.0808 L71.98416,142.0808 L71.98416,140.0344 L73.34976,140.0344 L73.34976,135.4184 C73.34976,134.328 72.71296,133.2832 71.48496,133.2832 C69.84816,133.2832 69.18896,134.7832 69.18896,136.1448 L69.18896,140.0344 L70.55136,140.0344 L70.55136,142.0808 L64.68816,142.0808 L64.68816,140.0344 Z" id="Fill-28" fill="#000000" mask="url(#mask-2)"></path>
                    <polygon id="Fill-29" fill="#000000" mask="url(#mask-2)" points="0 124.1376 119.0992 124.1376 119.0992 122.7336 0 122.7336"></polygon>
                    <path d="M127.60536,109.33128 C128.76216,109.33128 129.61576,109.24968 129.61576,108.03208 C129.61576,107.03608 128.82216,106.85368 127.80776,106.89608 L126.14456,106.89608 L126.14456,109.33128 L127.60536,109.33128 Z M124.96536,105.83848 L127.99016,105.83848 C129.95976,105.83848 130.79176,106.55128 130.79176,108.11208 C130.79176,109.61368 130.12376,110.14168 128.74296,110.34488 L131.01656,113.81768 L129.65496,113.81768 L127.52456,110.38728 L126.14456,110.38728 L126.14456,113.81768 L124.96536,113.81768 L124.96536,105.83848 Z M133.04696,109.81688 C133.04696,106.59048 130.85496,104.15288 127.62616,104.15288 C124.39656,104.15288 122.20296,106.59048 122.20296,109.81688 C122.20296,113.04648 124.39656,115.48328 127.62616,115.48328 C130.85496,115.48328 133.04696,113.04648 133.04696,109.81688 L133.04696,109.81688 Z M120.78296,109.81688 C120.78296,106.04088 123.84936,102.97448 127.62616,102.97448 C131.40216,102.97448 134.46856,106.04088 134.46856,109.81688 C134.46856,113.59368 131.40216,116.66008 127.62616,116.66008 C123.84936,116.66008 120.78296,113.59368 120.78296,109.81688 L120.78296,109.81688 Z" id="Fill-30" fill="#D00A2C" mask="url(#mask-2)"></path>
                </g>
            </g>
        </g>
    </g>
</svg>