<svg xmlns="http://www.w3.org/2000/svg" viewBox="0 0 198 198"><defs><style>.cls-1{fill:#4300ff;}</style></defs><g id="Layer_2" data-name="Layer 2"><g id="Layer_1-2" data-name="Layer 1"><path d="M37,54.88a14.68,14.68,0,0,1,1-5.38,14.44,14.44,0,0,1,3-4.74,14.95,14.95,0,0,1,11.21-4.71,15,15,0,0,1,7.5,1.79,11.59,11.59,0,0,1,4.72,4.72L58.2,51a5.25,5.25,0,0,0-1.12-1.8,5.55,5.55,0,0,0-1.53-1.14,6.48,6.48,0,0,0-1.74-.58,9.77,9.77,0,0,0-1.75-.17,6.09,6.09,0,0,0-5.14,2.5,7.77,7.77,0,0,0-1.22,2.52,10.45,10.45,0,0,0-.4,2.79,9.53,9.53,0,0,0,.47,3,7.62,7.62,0,0,0,1.34,2.52,6.69,6.69,0,0,0,2.16,1.75,6.32,6.32,0,0,0,2.88.65,8.63,8.63,0,0,0,1.72-.19,6.58,6.58,0,0,0,1.7-.63A5.59,5.59,0,0,0,57,61.07a4.9,4.9,0,0,0,1-1.7l6.68,4a8.48,8.48,0,0,1-2,2.94,12.81,12.81,0,0,1-3.11,2.19,16.86,16.86,0,0,1-3.73,1.34,17.12,17.12,0,0,1-3.89.46A13.87,13.87,0,0,1,45.91,69a15.33,15.33,0,0,1-4.74-3.51,16,16,0,0,1-3.09-4.95A15.23,15.23,0,0,1,37,54.88Z"/><path d="M74.84,40.22h7.47L92.64,70H84.33L82.52,64.2H74.58L72.82,70H64.46Zm6.38,18.52L78.57,49.5,75.8,58.74Z"/><path d="M102.67,55.38V70H94.48V40.22h6.38l12,15.16V40.22H121V70h-6.51Z"/><path d="M132.11,40.8a4.54,4.54,0,0,1,1.34,3.4,7.46,7.46,0,0,1-.25,1.93,21.65,21.65,0,0,1-1.09,2.9l-2.69,6.13h-5l2-6.84a4,4,0,0,1-1.83-1.62,4.66,4.66,0,0,1-.65-2.5,4.54,4.54,0,0,1,1.34-3.4,4.76,4.76,0,0,1,3.45-1.3A4.69,4.69,0,0,1,132.11,40.8Z"/><path d="M160.72,47.36h-8.57V70H144V47.36h-8.61V40.22h25.37Z"/><path d="M56.69,92a22.93,22.93,0,0,0-2.61-1.34,22.34,22.34,0,0,0-2.54-.94,9,9,0,0,0-2.75-.45,3.84,3.84,0,0,0-1.74.34,1.17,1.17,0,0,0-.65,1.13,1.3,1.3,0,0,0,.37,1,3.66,3.66,0,0,0,1.09.69,13,13,0,0,0,1.75.61c.68.2,1.46.44,2.33.72a31.7,31.7,0,0,1,3.72,1.38,11.61,11.61,0,0,1,2.83,1.79,6.88,6.88,0,0,1,1.81,2.5,9,9,0,0,1,.63,3.57,9.37,9.37,0,0,1-1,4.51,8.18,8.18,0,0,1-2.6,2.92,11.16,11.16,0,0,1-3.66,1.58,17.78,17.78,0,0,1-4.09.48,24.19,24.19,0,0,1-3.36-.25,29.47,29.47,0,0,1-3.43-.72,28.49,28.49,0,0,1-3.27-1.09,20.85,20.85,0,0,1-2.92-1.43l3.53-7.18a25,25,0,0,0,3.06,1.64,21,21,0,0,0,3,1.13,12,12,0,0,0,3.46.51,3.49,3.49,0,0,0,1.87-.36,1.1,1.1,0,0,0,.53-1,1.36,1.36,0,0,0-.53-1.07,4.76,4.76,0,0,0-1.45-.77c-.61-.23-1.32-.45-2.12-.68s-1.64-.48-2.54-.79A21.69,21.69,0,0,1,42.07,99a9.16,9.16,0,0,1-2.35-1.77A6.25,6.25,0,0,1,38.35,95a8.88,8.88,0,0,1-.44-2.9,10.06,10.06,0,0,1,.9-4.37,9,9,0,0,1,2.46-3.15,11,11,0,0,1,3.55-1.91A13.65,13.65,0,0,1,49,82a16,16,0,0,1,3.19.31,26,26,0,0,1,3,.8,28.14,28.14,0,0,1,2.7,1c.84.38,1.6.74,2.27,1.07Z"/><path d="M87.29,89.36H78.73V112H70.54V89.36H61.93V82.22H87.29Z"/><path d="M102.67,112.29A14.33,14.33,0,0,1,96.5,111a15.41,15.41,0,0,1-4.75-3.42,15.7,15.7,0,0,1-3.06-4.85,15,15,0,0,1-1.09-5.63,14.56,14.56,0,0,1,1.13-5.67,15.13,15.13,0,0,1,3.17-4.81,15.51,15.51,0,0,1,4.83-3.32,15,15,0,0,1,6.11-1.24,14.49,14.49,0,0,1,6.18,1.3,15.12,15.12,0,0,1,4.74,3.45,15.52,15.52,0,0,1,3,4.87,15.25,15.25,0,0,1,1.07,5.59,14.44,14.44,0,0,1-1.14,5.65,15.06,15.06,0,0,1-3.15,4.78,15.37,15.37,0,0,1-4.8,3.34A14.73,14.73,0,0,1,102.67,112.29ZM95.91,97.17a10.16,10.16,0,0,0,.42,2.92,7.64,7.64,0,0,0,1.26,2.5,6.27,6.27,0,0,0,2.12,1.76,6.48,6.48,0,0,0,3.05.68,6.31,6.31,0,0,0,3.06-.7,6.24,6.24,0,0,0,2.13-1.8,7.75,7.75,0,0,0,1.21-2.54,10.62,10.62,0,0,0,.4-2.9,10.16,10.16,0,0,0-.42-2.92,7.13,7.13,0,0,0-1.28-2.48A6.46,6.46,0,0,0,105.72,90a6.63,6.63,0,0,0-3-.65,6.45,6.45,0,0,0-3,.67,6.24,6.24,0,0,0-2.12,1.79,7.61,7.61,0,0,0-1.24,2.52A10.64,10.64,0,0,0,95.91,97.17Z"/><path d="M121.2,112V82.22h12.85a9.06,9.06,0,0,1,4,.9,10.6,10.6,0,0,1,3.18,2.36,10.88,10.88,0,0,1,2.07,3.31,9.86,9.86,0,0,1,.76,3.76,10.83,10.83,0,0,1-2.71,7.16,9.34,9.34,0,0,1-3.11,2.31,9.16,9.16,0,0,1-4,.86h-4.87V112Zm8.19-16.3h4.33a1.91,1.91,0,0,0,1.4-.69,3.63,3.63,0,0,0,.65-2.5A3.33,3.33,0,0,0,135,90a2.34,2.34,0,0,0-1.51-.67h-4.12Z"/><path d="M37,138.88a14.68,14.68,0,0,1,1-5.38,14.44,14.44,0,0,1,3-4.74,14.95,14.95,0,0,1,11.21-4.71,15,15,0,0,1,7.5,1.79,11.59,11.59,0,0,1,4.72,4.72L58.2,135a5.25,5.25,0,0,0-1.12-1.8,5.55,5.55,0,0,0-1.53-1.14,6.85,6.85,0,0,0-1.74-.58,8.93,8.93,0,0,0-1.75-.17,6.09,6.09,0,0,0-5.14,2.5,7.77,7.77,0,0,0-1.22,2.52,10.45,10.45,0,0,0-.4,2.79,9.53,9.53,0,0,0,.47,3,7.62,7.62,0,0,0,1.34,2.52,6.69,6.69,0,0,0,2.16,1.75,6.32,6.32,0,0,0,2.88.65,8.63,8.63,0,0,0,1.72-.19,6.58,6.58,0,0,0,1.7-.63A5.59,5.59,0,0,0,57,145.07a4.9,4.9,0,0,0,1-1.7l6.68,4a8.48,8.48,0,0,1-2,2.94,12.81,12.81,0,0,1-3.11,2.19,16.86,16.86,0,0,1-3.73,1.34,17.12,17.12,0,0,1-3.89.46A13.87,13.87,0,0,1,45.91,153a15.33,15.33,0,0,1-4.74-3.51,16,16,0,0,1-3.09-5A15.23,15.23,0,0,1,37,138.88Z"/><path d="M92.75,146.4a6.51,6.51,0,0,1-3.15,5.83,10.7,10.7,0,0,1-3.42,1.37A19,19,0,0,1,82,154H67.39V124.22h17.3a5.83,5.83,0,0,1,2.81.67,7,7,0,0,1,2.15,1.75A8,8,0,0,1,91,129.07a8.35,8.35,0,0,1,.48,2.79,8,8,0,0,1-1.07,4,6.68,6.68,0,0,1-3.21,2.87,7.86,7.86,0,0,1,4.05,2.63A7.78,7.78,0,0,1,92.75,146.4ZM75.58,131.19v4.58h5.58a2.67,2.67,0,0,0,1.53-.46,2.07,2.07,0,0,0,.7-1.85,2.24,2.24,0,0,0-.59-1.74,2,2,0,0,0-1.39-.53Zm8.86,13.53a2.85,2.85,0,0,0-.59-1.83,1.86,1.86,0,0,0-1.51-.74H75.58v5H82a2.42,2.42,0,0,0,1.7-.63A2.29,2.29,0,0,0,84.44,144.72Z"/><path class="cls-1" d="M109.08,147a4.48,4.48,0,0,0,2.43-.63,5,5,0,0,0,1.64-1.66,7.78,7.78,0,0,0,.93-2.38,13.45,13.45,0,0,0,.29-2.81V124.22h8.19v15.33a20.62,20.62,0,0,1-.8,5.82,12.67,12.67,0,0,1-2.48,4.68,11.67,11.67,0,0,1-4.22,3.11,14.67,14.67,0,0,1-6,1.13A14.35,14.35,0,0,1,103,153.1a11.63,11.63,0,0,1-4.18-3.22,12.82,12.82,0,0,1-2.39-4.68,20.4,20.4,0,0,1-.76-5.65V124.22h8.19v15.33a13.89,13.89,0,0,0,.29,2.84,7.74,7.74,0,0,0,.93,2.39,5,5,0,0,0,1.61,1.64A4.6,4.6,0,0,0,109.08,147Z"/><path class="cls-1" d="M145,134a22.93,22.93,0,0,0-2.61-1.34,21.65,21.65,0,0,0-2.54-.94,9,9,0,0,0-2.75-.45,3.84,3.84,0,0,0-1.74.34,1.18,1.18,0,0,0-.65,1.13,1.27,1.27,0,0,0,.38,1,3.53,3.53,0,0,0,1.09.69,12.3,12.3,0,0,0,1.74.61c.69.2,1.46.44,2.33.72a31.7,31.7,0,0,1,3.72,1.38,11.42,11.42,0,0,1,2.83,1.79,6.77,6.77,0,0,1,1.81,2.5,9,9,0,0,1,.63,3.57,9.37,9.37,0,0,1-1,4.51,8.09,8.09,0,0,1-2.6,2.92,11.2,11.2,0,0,1-3.65,1.58,17.87,17.87,0,0,1-4.1.48,24.42,24.42,0,0,1-3.36-.25,28.88,28.88,0,0,1-3.42-.72,28,28,0,0,1-3.28-1.09,21.41,21.41,0,0,1-2.92-1.43l3.53-7.18a24.37,24.37,0,0,0,3.07,1.64,20.86,20.86,0,0,0,3,1.13A12,12,0,0,0,138,147a3.45,3.45,0,0,0,1.86-.36,1.08,1.08,0,0,0,.53-.95,1.33,1.33,0,0,0-.53-1.07,4.7,4.7,0,0,0-1.44-.77c-.62-.23-1.33-.45-2.12-.68s-1.65-.48-2.55-.79a22.1,22.1,0,0,1-3.4-1.45,9.33,9.33,0,0,1-2.35-1.77,6.08,6.08,0,0,1-1.36-2.24,8.62,8.62,0,0,1-.45-2.9,9.92,9.92,0,0,1,.91-4.37,9,9,0,0,1,2.45-3.15,11,11,0,0,1,3.55-1.91,13.65,13.65,0,0,1,4.22-.65,16.08,16.08,0,0,1,3.2.31,26.42,26.42,0,0,1,3,.8,28.36,28.36,0,0,1,2.71,1c.84.38,1.59.74,2.27,1.07Z"/><path class="cls-1" d="M152.45,153.08a4.57,4.57,0,0,1-1.39-3.41,4.49,4.49,0,0,1,1.37-3.4,5.19,5.19,0,0,1,6.87,0,5,5,0,0,1,0,6.81,5,5,0,0,1-6.83,0Z"/><polygon points="109.1 114.22 110.16 117.66 113.6 117.66 110.82 119.78 111.88 123.22 109.1 121.1 106.31 123.22 107.38 119.78 104.6 117.66 108.03 117.66 109.1 114.22"/><path class="cls-1" d="M186,12V186H12V12H186M198,0H0V198H198V0Z"/></g></g></svg>