<?xml version="1.0" encoding="UTF-8"?>
<svg width="26px" height="44px" viewBox="0 0 26 44" version="1.1" xmlns="http://www.w3.org/2000/svg" xmlns:xlink="http://www.w3.org/1999/xlink">
    <!-- Generator: Sketch 63.1 (92452) - https://sketch.com -->
    <title>FB</title>
    <desc>Created with Sketch.</desc>
    <g id="Page-1" stroke="none" stroke-width="1" fill="none" fill-rule="evenodd">
        <g id="Main" transform="translate(-208.000000, -2027.000000)" fill="#4300FF" fill-rule="nonzero">
            <g id="Group-5" transform="translate(202.000000, 1947.000000)">
                <g id="Group-4">
                    <path d="M12,92 C12,85.372583 17.372583,80 24,80 L30,80 C31.1045695,80 32,80.8954305 32,82 L32,90 C32,91.1045695 31.1045695,92 30,92 L24,92 L24,96 L30,96 C31.3011423,96 32.2558584,97.2227778 31.940285,98.4850713 L29.940285,106.485071 C29.7177015,107.375405 28.9177353,108 28,108 L24,108 L24,122 C24,123.104569 23.1045695,124 22,124 L14,124 C12.8954305,124 12,123.104569 12,122 L12,108 L8,108 C6.8954305,108 6,107.104569 6,106 L6,98 C6,96.8954305 6.8954305,96 8,96 L12,96 L12,92 Z M28,84 L24,84 C19.581722,84 16,87.581722 16,92 L16,98 C16,99.1045695 15.1045695,100 14,100 L10,100 L10,104 L14,104 C15.1045695,104 16,104.895431 16,106 L16,120 L20,120 L20,106 C20,104.895431 20.8954305,104 22,104 L26.4384472,104 L27.4384472,100 L22,100 C20.8954305,100 20,99.1045695 20,98 L20,92 C20,89.790861 21.790861,88 24,88 L28,88 L28,84 Z" id="FB"></path>
                </g>
            </g>
        </g>
    </g>
</svg>