<?xml version="1.0" encoding="UTF-8"?>
<svg width="44px" height="44px" viewBox="0 0 44 44" version="1.1" xmlns="http://www.w3.org/2000/svg" xmlns:xlink="http://www.w3.org/1999/xlink">
    <!-- Generator: Sketch 63.1 (92452) - https://sketch.com -->
    <title>insta</title>
    <desc>Created with Sketch.</desc>
    <g id="Page-1" stroke="none" stroke-width="1" fill="none" fill-rule="evenodd">
        <g id="Main" transform="translate(-202.000000, -2111.000000)" fill="#4300FF" fill-rule="nonzero">
            <g id="Group-5" transform="translate(202.000000, 1947.000000)">
                <g id="Group-4">
                    <path d="M32,164 C38.627417,164 44,169.372583 44,176 L44,196 C44,202.627417 38.627417,208 32,208 L12,208 C5.372583,208 0,202.627417 0,196 L0,176 C0,169.372583 5.372583,164 12,164 L32,164 Z M32,168 L12,168 C7.581722,168 4,171.581722 4,176 L4,196 C4,200.418278 7.581722,204 12,204 L32,204 C36.418278,204 40,200.418278 40,196 L40,176 C40,171.581722 36.418278,168 32,168 Z M23.553367,176.021633 C27.9108089,176.667787 31.3322131,180.089191 31.978367,184.446633 C32.6111731,188.714062 30.4359316,192.906244 26.5824333,194.845818 C22.728935,196.785391 18.0659884,196.03506 15.0154643,192.984536 C11.9649403,189.934012 11.214609,185.271065 13.1541823,181.417567 C15.0937557,177.564068 19.285938,175.388827 23.553367,176.021633 Z M16.7271223,183.215927 C15.5633783,185.528026 16.0135771,188.325794 17.8438915,190.156109 C19.6742059,191.986423 22.4719739,192.436622 24.7840728,191.272878 C27.0961718,190.109134 28.4013167,187.593824 28.021633,185.033367 C27.6339407,182.418902 25.5810982,180.366059 22.966633,179.978367 C20.4061756,179.598683 17.8908663,180.903828 16.7271223,183.215927 Z" id="insta"></path>
                </g>
            </g>
        </g>
    </g>
</svg>