<?xml version="1.0" encoding="UTF-8"?>
<svg width="48px" height="40px" viewBox="0 0 48 40" version="1.1" xmlns="http://www.w3.org/2000/svg" xmlns:xlink="http://www.w3.org/1999/xlink">
    <!-- Generator: Sketch 63.1 (92452) - https://sketch.com -->
    <title>twit</title>
    <desc>Created with Sketch.</desc>
    <g id="Page-1" stroke="none" stroke-width="1" fill="none" fill-rule="evenodd">
        <g id="Main" transform="translate(-202.000000, -1947.000000)" fill="#4300FF" fill-rule="nonzero">
            <g id="Group-5" transform="translate(202.000000, 1947.000000)">
                <g id="Group-4">
                    <path d="M44.8512006,0.386291382 C46.3612811,-0.678881235 48.3844781,0.698376371 47.9472186,2.49385406 C47.2621369,5.30694116 45.8888818,7.89982006 43.9577199,10.0426452 C43.9874729,10.3665949 44.0029341,10.692663 44.0040132,11.0206179 C44.0040132,34.7394943 21.1118796,46.924017 1.0327273,35.7689324 C-0.808636679,34.7459525 -0.0212778862,31.9384782 2.08350246,32.0221982 C5.45670152,32.1563708 8.79590683,31.4857387 11.8323262,30.0870998 C7.42404524,27.3699012 4.60134271,23.7725791 3.21659848,19.5170236 C1.78684944,15.1231607 1.99554051,10.5057683 3.18831652,6.12056238 C3.54912532,4.79405944 3.91584752,3.79456168 4.17639006,3.20834097 C4.80773276,1.78781989 6.74733746,1.59905999 7.64072619,2.87119611 C10.983902,7.63169349 16.2699657,10.6034108 22.0034501,11.0336295 C21.9727278,6.4645487 24.7813615,2.35216104 29.0549993,0.721001586 C32.9197826,-0.754106553 37.2431871,0.0822145814 40.2696279,2.79069252 C41.8938169,2.19366642 43.4343669,1.38568999 44.8512006,0.386291382 Z M40.3006789,6.99567836 C39.5474174,7.22250157 38.7311483,6.98667957 38.2149049,6.3930935 C36.2983563,4.18941115 33.2098725,3.41662824 30.4813529,4.45804794 C27.7528332,5.49946765 25.9646839,8.13356093 26.0040132,11.0806179 L26.0040132,13.0806179 C26.0040132,14.1649934 25.1398666,15.0518376 24.0558555,15.0799459 C17.5343858,15.2490467 11.3039112,12.681885 6.81213313,8.10713703 C6.02206468,11.5173204 5.96429527,15.0340596 7.02029082,18.2793142 C8.37434426,22.4405516 11.4740373,25.8186602 16.8162901,28.1929948 C18.2498164,28.8301176 18.4252247,30.7943476 17.127273,31.675395 C14.8890682,33.1946845 12.4366496,34.3349224 9.86801585,35.0681089 C25.2263214,39.1086058 40.0040146,28.9130329 40.0040241,11.02723 C40.0025916,10.5939356 39.9609313,10.1617101 39.8795796,9.73611885 C39.7542386,9.08039713 39.9643366,8.40537059 40.4396678,7.93660453 C40.8851927,7.49723308 41.2978386,7.02893475 41.6753915,6.53561625 C41.2223824,6.70272739 40.763944,6.85617931 40.3006789,6.99567836 Z" id="twit"></path>
                </g>
            </g>
        </g>
    </g>
</svg>